<svg width="63" height="74" viewBox="0 0 63 74" fill="none" xmlns="http://www.w3.org/2000/svg">
<path d="M44.6907 2.20934L5.61657 41.2835L1.38721 58.8952C1.07159 60.3471 2.58658 61.8621 4.03845 61.5465L21.6502 57.3171L60.7243 18.243C62.2393 16.728 61.9868 14.1399 60.2194 12.3724L50.6244 2.77746C48.7938 0.946847 46.1426 0.694347 44.6907 2.20934Z" fill="#D7F1FF"/>
<path d="M3.53336 62.809C2.52337 62.809 1.45023 62.304 0.755863 61.4203C0.124617 60.5996 -0.127866 59.5265 0.0615079 58.5796L4.29085 40.9679C4.35397 40.7154 4.48022 40.526 4.60647 40.3998L43.6806 1.32562C44.5644 0.441871 45.7637 0 47.0262 0C48.6043 0 50.1193 0.694372 51.3187 1.83061L60.9136 11.4256C61.9868 12.4987 62.618 13.8243 62.7442 15.2762C62.8705 16.7911 62.4286 18.1168 61.4186 19.1268L22.3445 58.2009C22.1551 58.3903 21.9657 58.4534 21.7764 58.5165L4.16461 62.7459C4.03836 62.809 3.78586 62.809 3.53336 62.809ZM6.7527 41.9147L2.6496 59.1478C2.58648 59.3371 2.64961 59.5896 2.83899 59.8421C3.09149 60.1578 3.47023 60.3471 3.72273 60.284L20.9557 56.1809L59.7774 17.3593C60.2193 16.9174 60.4718 16.2861 60.4086 15.5287C60.3455 14.708 59.9668 13.8874 59.2724 13.2562L49.6774 3.66123C48.9831 2.96686 48.0362 2.52498 47.1525 2.52498C46.7106 2.52498 46.0793 2.65123 45.5743 3.15623L6.7527 41.9147Z" fill="#0F145B"/>
<path d="M60.4718 12.6248L50.3719 2.52488C48.7306 0.883635 46.0163 0.883635 44.3119 2.52488L37.1788 9.72108L53.2125 25.7547L60.5349 18.4323C62.0499 16.791 62.0499 14.2029 60.4718 12.6248Z" fill="#FFCDBD"/>
<path d="M53.1494 27.0173C52.8338 27.0173 52.5182 26.8911 52.2657 26.6386L36.232 10.6049C35.9795 10.3524 35.8533 10.0368 35.8533 9.72119C35.8533 9.40557 35.9795 9.08995 36.232 8.83745L43.4282 1.64124C44.5013 0.568121 45.8901 0 47.342 0C48.7938 0 50.1826 0.568121 51.2557 1.64124L61.3556 11.7412C62.3656 12.7512 62.9337 14.0768 62.9337 15.5287C62.9337 16.9805 62.3656 18.3061 61.3556 19.3161L54.0332 26.6386C53.7807 26.8911 53.465 27.0173 53.1494 27.0173ZM38.9464 9.72119L53.1494 23.9242L59.5881 17.4855C60.0931 16.9805 60.4087 16.223 60.4087 15.4655C60.4087 14.708 60.0931 14.0137 59.5881 13.4455L49.4882 3.34561C48.9201 2.77749 48.1626 2.46186 47.342 2.46186C46.5213 2.46186 45.7638 2.77749 45.1957 3.34561L38.9464 9.72119Z" fill="#0F145B"/>
<path d="M14.2015 49.9316C13.8858 49.9316 13.5702 49.8054 13.3177 49.5529C12.8127 49.0479 12.8127 48.2904 13.3177 47.7854L44.2488 16.8543C44.7538 16.3493 45.5113 16.3493 46.0163 16.8543C46.5213 17.3593 46.5213 18.1168 46.0163 18.6218L15.0852 49.5529C14.8327 49.8054 14.5171 49.9316 14.2015 49.9316Z" fill="#0F145B"/>
<path d="M14.012 50.1211C13.507 50.1211 13.0651 49.8686 12.8758 49.3636L10.2245 43.6823C9.97202 43.1142 9.34078 42.6724 8.70953 42.6724L5.49017 42.5461C4.7958 42.5461 4.22769 41.9149 4.29081 41.2205C4.35393 40.5261 4.92206 40.0211 5.61643 40.0211L8.83579 40.1474C10.4139 40.2105 11.8658 41.1574 12.5601 42.6092L15.2114 48.2904C15.527 48.9217 15.2114 49.6792 14.5801 49.9948C14.3908 50.1211 14.2014 50.1211 14.012 50.1211Z" fill="#0F145B"/>
<path d="M21.587 58.5796C20.8926 58.5796 20.3245 58.0746 20.3245 57.3802L20.1983 54.1609C20.1983 53.5296 19.7564 52.8984 19.1883 52.6459L13.5071 49.9946C12.8758 49.679 12.6233 48.9215 12.8758 48.2903C13.1914 47.659 13.9489 47.4065 14.5802 47.659L20.2614 50.3102C21.7133 51.0046 22.6601 52.3934 22.7233 54.0346L22.8495 57.254C22.8495 57.9483 22.3445 58.5165 21.587 58.5796C21.6501 58.5796 21.587 58.5796 21.587 58.5796Z" fill="#0F145B"/>
<path d="M2.77596 53.0878L1.38721 58.8952C1.07159 60.3471 2.58658 61.8621 4.03845 61.5465L9.84592 60.1577L2.77596 53.0878Z" fill="#FFCDBD"/>
<path d="M3.53336 62.809C2.52337 62.809 1.45023 62.304 0.755863 61.4203C0.124617 60.5997 -0.127866 59.5266 0.0615079 58.5797L1.45024 52.7722C1.57649 52.3304 1.89211 51.9516 2.33398 51.8254C2.77585 51.6991 3.21772 51.8254 3.59647 52.141L10.6664 59.2109C10.9821 59.5266 11.1083 60.0316 10.9821 60.4734C10.8558 60.9153 10.4771 61.2309 10.0352 61.3572L4.22772 62.7459C4.03834 62.809 3.78586 62.809 3.53336 62.809ZM3.47023 55.5497L2.58649 59.2109C2.52337 59.4003 2.58648 59.6528 2.77586 59.9053C3.02836 60.2209 3.4071 60.4103 3.6596 60.3472L7.32084 59.4634L3.47023 55.5497Z" fill="#0F145B"/>
<path d="M39.3249 73.5401H28.9094C28.215 73.5401 27.6469 72.972 27.6469 72.2776C27.6469 71.5832 28.215 71.0151 28.9094 71.0151H39.3249C41.1555 71.0151 42.7968 70.0051 42.7968 68.8689C42.7968 67.7326 41.1555 66.7226 39.3249 66.7226H10.982C10.2876 66.7226 9.71948 66.1545 9.71948 65.4601C9.71948 64.7658 10.2876 64.1976 10.982 64.1976H39.3249C42.6705 64.1976 45.3218 66.2808 45.3218 68.8689C45.3218 71.457 42.6705 73.5401 39.3249 73.5401Z" fill="#0F145B"/>
</svg>
