<svg width="66" height="80" viewBox="0 0 66 80" fill="none" xmlns="http://www.w3.org/2000/svg">
<path d="M58.9742 5.58251H7.53582C6.80479 5.58251 6.20667 4.98439 6.20667 4.25335C6.20667 3.52232 6.80479 2.92419 7.53582 2.92419H58.9742C59.7052 2.92419 60.3034 3.52232 60.3034 4.25335C60.3034 4.98439 59.7052 5.58251 58.9742 5.58251Z" fill="#0F145B"/>
<path d="M30.1314 17.3454L16.4411 42.3335C15.9759 43.1975 15.9095 44.2608 16.2417 45.1912L22.09 60.2107C22.2229 60.6094 22.2894 61.0082 22.2894 61.4734V75.1637C22.2894 77.0245 23.8179 78.5531 25.6788 78.5531H40.4989C42.3597 78.5531 43.8882 77.0245 43.8882 75.1637V61.4734C43.8882 61.0747 43.9546 60.6094 44.0876 60.2107L49.9359 45.1912C50.2682 44.2608 50.2017 43.1975 49.7365 42.3335L36.0462 17.3454C34.7835 14.9529 31.3941 14.9529 30.1314 17.3454Z" fill="#D7F1FF"/>
<path d="M40.4989 79.7494H25.6788C23.0869 79.7494 20.9603 77.6228 20.9603 75.0309V61.3406C20.9603 61.0748 20.8938 60.8089 20.8273 60.6096L14.9791 45.5901C14.4474 44.2609 14.5803 42.7988 15.2449 41.6026L28.9352 16.6145C29.7992 15.0859 31.3277 14.1555 33.0556 14.1555C34.7835 14.1555 36.3785 15.0859 37.176 16.6145L50.8663 41.6026C51.5309 42.7988 51.6638 44.2609 51.1321 45.5901L45.2839 60.6096C45.2174 60.8754 45.1509 61.0748 45.1509 61.3406V75.0309C45.2174 77.6892 43.0907 79.7494 40.4989 79.7494ZM33.0556 16.8803C32.2581 16.8803 31.5935 17.279 31.2612 17.9436L17.5709 42.9318C17.3051 43.4634 17.2386 44.128 17.438 44.6597L23.2863 59.6791C23.4857 60.2108 23.6186 60.8089 23.6186 61.407V75.0974C23.6186 76.2272 24.549 77.1576 25.6788 77.1576H40.4989C41.6287 77.1576 42.5591 76.2272 42.5591 75.0974V61.407C42.5591 60.8089 42.692 60.2108 42.8914 59.6791L48.7396 44.6597C48.939 44.0616 48.939 43.4634 48.6068 42.9318L34.9164 17.9436C34.5177 17.279 33.8531 16.8803 33.0556 16.8803Z" fill="#0F145B"/>
<path d="M44.2205 67.5213H21.9571C20.2956 67.5213 18.9 66.1256 18.9 64.4642V63.7996C18.9 62.1382 20.2956 60.7426 21.9571 60.7426H44.2205C45.8819 60.7426 47.2775 62.1382 47.2775 63.7996V64.4642C47.2775 66.1921 45.8819 67.5213 44.2205 67.5213Z" fill="#FFCDBD"/>
<path d="M44.2204 68.8502H21.957C19.5645 68.8502 17.5708 66.8565 17.5708 64.464V63.7994C17.5708 61.4069 19.5645 59.4132 21.957 59.4132H44.2204C46.6129 59.4132 48.6066 61.4069 48.6066 63.7994V64.464C48.6066 66.9229 46.6129 68.8502 44.2204 68.8502ZM21.957 62.0715C21.0266 62.0715 20.2291 62.869 20.2291 63.7994V64.464C20.2291 65.3944 21.0266 66.1919 21.957 66.1919H44.2204C45.1508 66.1919 45.9483 65.3944 45.9483 64.464V63.7994C45.9483 62.869 45.1508 62.0715 44.2204 62.0715H21.957Z" fill="#0F145B"/>
<path d="M33.0555 40.805C32.3244 40.805 31.7263 40.2069 31.7263 39.4759V15.6175C31.7263 14.8865 32.3244 14.2883 33.0555 14.2883C33.7865 14.2883 34.3846 14.8865 34.3846 15.6175V39.4759C34.3846 40.2069 33.853 40.805 33.0555 40.805Z" fill="#0F145B"/>
<path d="M33.0555 47.9824C35.6615 47.9824 37.774 45.8699 37.774 43.2639C37.774 40.658 35.6615 38.5454 33.0555 38.5454C30.4496 38.5454 28.337 40.658 28.337 43.2639C28.337 45.8699 30.4496 47.9824 33.0555 47.9824Z" fill="#FFCDBD"/>
<path d="M33.0555 49.3117C29.7327 49.3117 27.0743 46.5869 27.0743 43.3305C27.0743 40.0741 29.7991 37.2828 33.0555 37.2828C36.312 37.2828 39.1032 40.0076 39.1032 43.3305C39.1032 46.6534 36.3784 49.3117 33.0555 49.3117ZM33.0555 39.9412C31.1947 39.9412 29.7327 41.4697 29.7327 43.3305C29.7327 45.1913 31.2612 46.6534 33.0555 46.6534C34.9164 46.6534 36.4449 45.1249 36.4449 43.3305C36.4449 41.4032 34.9164 39.9412 33.0555 39.9412Z" fill="#0F145B"/>
<path d="M23.8845 44.5931H16.0424C15.3114 44.5931 14.7133 43.995 14.7133 43.264C14.7133 42.5329 15.3114 41.9348 16.0424 41.9348H23.8845C24.6155 41.9348 25.2136 42.5329 25.2136 43.264C25.2136 43.995 24.6155 44.5931 23.8845 44.5931Z" fill="#0F145B"/>
<path d="M50.2018 44.5931H42.3598C41.6288 44.5931 41.0306 43.995 41.0306 43.264C41.0306 42.5329 41.6288 41.9348 42.3598 41.9348H50.2018C50.9329 41.9348 51.531 42.5329 51.531 43.264C51.531 43.995 50.9329 44.5931 50.2018 44.5931Z" fill="#0F145B"/>
<path d="M61.5661 34.0265C60.8351 34.0265 60.2369 33.4284 60.2369 32.6973C60.2369 17.7443 48.0751 5.58251 33.1221 5.58251C18.1691 5.58251 6.00731 17.7443 6.00731 32.6973C6.00731 33.4284 5.40919 34.0265 4.67816 34.0265C3.94712 34.0265 3.349 33.4284 3.349 32.6973C3.349 16.2822 16.707 2.92419 33.1221 2.92419C49.5372 2.92419 62.8953 16.2822 62.8953 32.6973C62.8953 33.4284 62.2971 34.0265 61.5661 34.0265Z" fill="#0F145B"/>
<path d="M4.61166 35.6875C6.22662 35.6875 7.5358 34.3783 7.5358 32.7634C7.5358 31.1484 6.22662 29.8392 4.61166 29.8392C2.9967 29.8392 1.6875 31.1484 1.6875 32.7634C1.6875 34.3783 2.9967 35.6875 4.61166 35.6875Z" fill="#FFCDBD"/>
<path d="M4.61172 37.017C2.28569 37.017 0.358398 35.0897 0.358398 32.7637C0.358398 30.4377 2.28569 28.5104 4.61172 28.5104C6.93774 28.5104 8.86502 30.4377 8.86502 32.7637C8.86502 35.0897 7.0042 37.017 4.61172 37.017ZM4.61172 31.1022C3.74777 31.1022 3.01671 31.8333 3.01671 32.6972C3.01671 33.5612 3.74777 34.2922 4.61172 34.2922C5.47567 34.2922 6.2067 33.5612 6.2067 32.6972C6.2067 31.8333 5.54213 31.1022 4.61172 31.1022Z" fill="#0F145B"/>
<path d="M33.0556 7.17739C34.6706 7.17739 35.9798 5.8682 35.9798 4.25324C35.9798 2.63828 34.6706 1.3291 33.0556 1.3291C31.4407 1.3291 30.1315 2.63828 30.1315 4.25324C30.1315 5.8682 31.4407 7.17739 33.0556 7.17739Z" fill="#FFCDBD"/>
<path d="M33.0556 8.5066C30.7295 8.5066 28.8022 6.57932 28.8022 4.2533C28.8022 1.92727 30.7295 0 33.0556 0C35.3816 0 37.3089 1.92727 37.3089 4.2533C37.3089 6.57932 35.448 8.5066 33.0556 8.5066ZM33.0556 2.59185C32.1916 2.59185 31.4606 3.32289 31.4606 4.18684C31.4606 5.05079 32.1916 5.78183 33.0556 5.78183C33.9195 5.78183 34.6506 5.05079 34.6506 4.18684C34.717 3.32289 33.986 2.59185 33.0556 2.59185Z" fill="#0F145B"/>
<path d="M61.5663 35.6875C63.1812 35.6875 64.4904 34.3783 64.4904 32.7634C64.4904 31.1484 63.1812 29.8392 61.5663 29.8392C59.9513 29.8392 58.6421 31.1484 58.6421 32.7634C58.6421 34.3783 59.9513 35.6875 61.5663 35.6875Z" fill="#FFCDBD"/>
<path d="M61.5661 37.017C59.24 37.017 57.3127 35.0897 57.3127 32.7637C57.3127 30.4377 59.24 28.5104 61.5661 28.5104C63.8921 28.5104 65.8193 30.4377 65.8193 32.7637C65.8193 35.0897 63.8921 37.017 61.5661 37.017ZM61.5661 31.1022C60.7021 31.1022 59.9711 31.8333 59.9711 32.6972C59.9711 33.5612 60.7021 34.2922 61.5661 34.2922C62.43 34.2922 63.161 33.5612 63.161 32.6972C63.161 31.8333 62.43 31.1022 61.5661 31.1022Z" fill="#0F145B"/>
</svg>
