<svg width="26" height="26" viewBox="0 0 26 26" fill="none" xmlns="http://www.w3.org/2000/svg">
<mask id="path-2-inside-1" fill="white">
<path fill-rule="evenodd" clip-rule="evenodd" d="M1.68915 1.63708C-0.488987 3.81984 -0.488984 7.35881 1.68915 9.54158L5.11246 12.9722L1.6336 16.4584C-0.544534 18.6412 -0.544535 22.1801 1.6336 24.3629C3.81174 26.5457 7.3432 26.5457 9.52134 24.3629L13.0002 20.8767L16.4787 24.3625C18.6568 26.5453 22.1883 26.5453 24.3664 24.3625C26.5445 22.1798 26.5445 18.6408 24.3664 16.458L20.8879 12.9722L24.3108 9.54197C26.489 7.3592 26.489 3.82023 24.3108 1.63746C22.1327 -0.545305 18.6012 -0.545302 16.4231 1.63747L13.0002 5.06766L9.57689 1.63708C7.39875 -0.545692 3.86729 -0.545693 1.68915 1.63708Z"/>
</mask>
<path fill-rule="evenodd" clip-rule="evenodd" d="M1.68915 1.63708C-0.488987 3.81984 -0.488984 7.35881 1.68915 9.54158L5.11246 12.9722L1.6336 16.4584C-0.544534 18.6412 -0.544535 22.1801 1.6336 24.3629C3.81174 26.5457 7.3432 26.5457 9.52134 24.3629L13.0002 20.8767L16.4787 24.3625C18.6568 26.5453 22.1883 26.5453 24.3664 24.3625C26.5445 22.1798 26.5445 18.6408 24.3664 16.458L20.8879 12.9722L24.3108 9.54197C26.489 7.3592 26.489 3.82023 24.3108 1.63746C22.1327 -0.545305 18.6012 -0.545302 16.4231 1.63747L13.0002 5.06766L9.57689 1.63708C7.39875 -0.545692 3.86729 -0.545693 1.68915 1.63708Z" fill="#FFCDBD"/>
<path d="M1.68915 9.54158L0.27344 10.9543H0.27344L1.68915 9.54158ZM1.68915 1.63708L3.10487 3.04979L1.68915 1.63708ZM5.11246 12.9722L6.52817 14.3849L7.93788 12.9722L6.52817 11.5594L5.11246 12.9722ZM1.6336 16.4584L3.04932 17.8711H3.04932L1.6336 16.4584ZM1.6336 24.3629L3.04932 22.9502H3.04932L1.6336 24.3629ZM9.52134 24.3629L10.9371 25.7756L9.52134 24.3629ZM13.0002 20.8767L14.4159 19.464L13.0002 18.0452L11.5845 19.464L13.0002 20.8767ZM16.4787 24.3625L17.8944 22.9498H17.8944L16.4787 24.3625ZM24.3664 24.3625L25.7821 25.7752H25.7821L24.3664 24.3625ZM24.3664 16.458L22.9507 17.8707L24.3664 16.458ZM20.8879 12.9722L19.4722 11.5594L18.0625 12.9722L19.4722 14.3849L20.8879 12.9722ZM24.3108 9.54197L22.8951 8.12926L24.3108 9.54197ZM24.3108 1.63746L25.7266 0.224753L24.3108 1.63746ZM16.4231 1.63747L17.8388 3.05018L16.4231 1.63747ZM13.0002 5.06766L11.5845 6.48037L13.0002 7.89909L14.4159 6.48037L13.0002 5.06766ZM9.57689 1.63708L8.16117 3.04979L9.57689 1.63708ZM3.10487 8.12887C1.70578 6.7268 1.70578 4.45185 3.10487 3.04979L0.273437 0.224365C-2.68375 3.18784 -2.68374 7.99082 0.27344 10.9543L3.10487 8.12887ZM6.52817 11.5594L3.10487 8.12887L0.27344 10.9543L3.69674 14.3849L6.52817 11.5594ZM3.04932 17.8711L6.52817 14.3849L3.69674 11.5594L0.217891 15.0457L3.04932 17.8711ZM3.04932 22.9502C1.65023 21.5481 1.65023 19.2732 3.04932 17.8711L0.217891 15.0457C-2.7393 18.0092 -2.7393 22.8121 0.21789 25.7756L3.04932 22.9502ZM8.10563 22.9502C6.70888 24.3499 4.44606 24.3499 3.04932 22.9502L0.217889 25.7756C3.17742 28.7414 7.97753 28.7414 10.9371 25.7756L8.10563 22.9502ZM11.5845 19.464L8.10563 22.9502L10.9371 25.7756L14.4159 22.2894L11.5845 19.464ZM17.8944 22.9498L14.4159 19.464L11.5845 22.2894L15.0629 25.7752L17.8944 22.9498ZM22.9507 22.9498C21.5539 24.3495 19.2911 24.3495 17.8944 22.9498L15.0629 25.7752C18.0225 28.7411 22.8226 28.7411 25.7821 25.7752L22.9507 22.9498ZM22.9507 17.8707C24.3498 19.2728 24.3498 21.5477 22.9507 22.9498L25.7821 25.7752C28.7393 22.8118 28.7393 18.0088 25.7821 15.0453L22.9507 17.8707ZM19.4722 14.3849L22.9507 17.8707L25.7821 15.0453L22.3036 11.5594L19.4722 14.3849ZM22.8951 8.12926L19.4722 11.5594L22.3036 14.3849L25.7266 10.9547L22.8951 8.12926ZM22.8951 3.05018C24.2942 4.45224 24.2942 6.72719 22.8951 8.12926L25.7266 10.9547C28.6837 7.99121 28.6837 3.18822 25.7266 0.224753L22.8951 3.05018ZM17.8388 3.05018C19.2356 1.65046 21.4984 1.65046 22.8951 3.05018L25.7266 0.224753C22.767 -2.74107 17.9669 -2.74106 15.0074 0.224756L17.8388 3.05018ZM14.4159 6.48037L17.8388 3.05018L15.0074 0.224756L11.5845 3.65495L14.4159 6.48037ZM8.16117 3.04979L11.5845 6.48037L14.4159 3.65495L10.9926 0.224366L8.16117 3.04979ZM3.10487 3.04979C4.50161 1.65007 6.76443 1.65007 8.16117 3.04979L10.9926 0.224366C8.03307 -2.74145 3.23297 -2.74146 0.273437 0.224365L3.10487 3.04979Z" fill="#0F145B" mask="url(#path-2-inside-1)"/>
</svg>
