<svg width="17" height="16" viewBox="0 0 17 16" fill="none" xmlns="http://www.w3.org/2000/svg">
<path d="M0.294922 8.60857V6.33767C0.294922 5.86271 0.531032 5.41744 0.929469 5.15027L7.70289 0.5491C8.18987 0.222566 8.82442 0.222566 9.3114 0.5491L16.0848 5.15027C16.4833 5.41744 16.7194 5.86271 16.7194 6.33767V8.47499C16.7194 9.26164 16.0848 9.89987 15.3027 9.91471L1.75586 10.0483C0.944226 10.0631 0.294922 9.41006 0.294922 8.60857Z" fill="#D7F1FF"/>
<path d="M1.72656 10.3452C0.782116 10.3452 0 9.5734 0 8.60864V6.33774C0 5.75888 0.280381 5.22455 0.752602 4.89802L7.52603 0.29685C7.80641 0.103897 8.14582 0 8.48522 0C8.82463 0 9.16404 0.103897 9.44442 0.29685L16.2178 4.89802C16.6901 5.22455 16.9705 5.75888 16.9705 6.33774V8.47506C16.9705 9.42498 16.2031 10.1968 15.2586 10.2116L1.7118 10.3452C1.74132 10.3452 1.72656 10.3452 1.72656 10.3452ZM8.49998 0.593699C8.27863 0.593699 8.05727 0.667912 7.86543 0.786651L1.07725 5.40266C0.767359 5.61046 0.57552 5.96668 0.57552 6.35258V8.62348C0.57552 9.24687 1.09201 9.76635 1.7118 9.76635V10.0632L1.72656 9.76635L15.2734 9.63277C15.8932 9.63277 16.3949 9.11329 16.3949 8.4899V6.33774C16.3949 5.95184 16.2031 5.61046 15.8932 5.38782L9.11977 0.786651C8.94269 0.667912 8.72134 0.593699 8.49998 0.593699Z" fill="#0F145B"/>
<path d="M12.366 2.19653H4.54481C3.52658 2.19653 2.7002 3.02771 2.7002 4.05184V12.1113C2.7002 13.1354 3.52658 13.9666 4.54481 13.9666H12.366C13.3842 13.9666 14.2106 13.1354 14.2106 12.1113V4.05184C14.2106 3.02771 13.3842 2.19653 12.366 2.19653Z" fill="#FFCDBD"/>
<path d="M12.3662 14.2634H4.54503C3.36447 14.2634 2.40527 13.2987 2.40527 12.1113V4.05182C2.40527 2.86442 3.36447 1.89966 4.54503 1.89966H12.3662C13.5467 1.89966 14.5059 2.86442 14.5059 4.05182V12.1113C14.5059 13.2987 13.5467 14.2634 12.3662 14.2634ZM4.54503 2.49336C3.68912 2.49336 2.99555 3.19095 2.99555 4.05182V12.1113C2.99555 12.9721 3.68912 13.6697 4.54503 13.6697H12.3662C13.2221 13.6697 13.9157 12.9721 13.9157 12.1113V4.05182C13.9157 3.19095 13.2221 2.49336 12.3662 2.49336H4.54503Z" fill="#0F145B"/>
<path d="M0.294922 13.4473V6.15967L8.36695 12.7497V15.3175H2.13954C1.12131 15.3026 0.294922 14.4715 0.294922 13.4473Z" fill="#D7F1FF"/>
<path d="M8.35242 15.5995H2.13975C0.9592 15.5995 0 14.6347 0 13.4473V6.15964C0 6.0409 0.0590274 5.93701 0.162326 5.89248C0.265624 5.84795 0.38368 5.86279 0.472221 5.93701L8.54425 12.5271C8.61804 12.5864 8.64755 12.6755 8.64755 12.7645V15.3323C8.64755 15.4659 8.51474 15.5995 8.35242 15.5995ZM0.590277 6.78303V13.4473C0.590277 14.3082 1.28385 15.0058 2.13975 15.0058H8.07203V12.8833L0.590277 6.78303Z" fill="#0F145B"/>
<path d="M16.7195 13.4473V6.15967L8.64746 12.7349V15.3026H14.8749C15.8931 15.3026 16.7195 14.4715 16.7195 13.4473Z" fill="#D7F1FF"/>
<path d="M14.8746 15.5994H8.64719C8.48486 15.5994 8.35205 15.4658 8.35205 15.3026V12.7348C8.35205 12.6458 8.39632 12.5567 8.45535 12.4973L16.5274 5.92211C16.6159 5.8479 16.734 5.83306 16.8373 5.87759C16.9406 5.92211 16.9996 6.02601 16.9996 6.14475V13.4324C17.0144 14.6346 16.0404 15.5994 14.8746 15.5994ZM8.94233 15.0057H14.8746C15.7305 15.0057 16.4241 14.3081 16.4241 13.4473V6.78298L8.94233 12.8832V15.0057Z" fill="#0F145B"/>
<path d="M7.65887 9.03894C8.11634 8.65304 8.79516 8.65304 9.25262 9.03894L12.5434 11.8293L15.4505 14.2932C15.849 14.6346 15.6129 15.2876 15.0816 15.2876H8.45575H1.82989C1.29864 15.2876 1.06253 14.6346 1.46097 14.2932L4.36808 11.8293L7.65887 9.03894Z" fill="#D7F1FF"/>
<path d="M15.0963 15.5994H1.82986C1.46094 15.5994 1.15104 15.3768 1.01823 15.0354C0.900175 14.694 0.988716 14.323 1.2691 14.0855L7.467 8.81642C7.74738 8.57895 8.08679 8.46021 8.45571 8.46021C8.82464 8.46021 9.16405 8.59379 9.44443 8.81642L15.6423 14.0855C15.9227 14.323 16.026 14.694 15.8932 15.0354C15.7751 15.3768 15.4505 15.5994 15.0963 15.5994ZM8.45571 9.03906C8.23436 9.03906 8.01301 9.11327 7.85068 9.2617L1.65278 14.5308C1.51996 14.6495 1.56424 14.7831 1.57899 14.8276C1.59375 14.8722 1.65278 15.0057 1.82986 15.0057H15.0963C15.2734 15.0057 15.3324 14.8722 15.3472 14.8276C15.362 14.7831 15.4062 14.6347 15.2734 14.5308L9.0755 9.2617C8.89842 9.11327 8.67707 9.03906 8.45571 9.03906Z" fill="#0F145B"/>
<path d="M11.2153 5.12055H5.60764C5.44531 5.12055 5.3125 4.98697 5.3125 4.82371C5.3125 4.66044 5.44531 4.52686 5.60764 4.52686H11.23C11.3923 4.52686 11.5252 4.66044 11.5252 4.82371C11.5252 4.98697 11.3776 5.12055 11.2153 5.12055Z" fill="#0F145B"/>
<path d="M11.2153 7.03535H5.60764C5.44531 7.03535 5.3125 6.90177 5.3125 6.7385C5.3125 6.57523 5.44531 6.44165 5.60764 6.44165H11.23C11.3923 6.44165 11.5252 6.57523 11.5252 6.7385C11.5252 6.90177 11.3776 7.03535 11.2153 7.03535Z" fill="#0F145B"/>
</svg>
