<svg width="59" height="76" viewBox="0 0 59 76" fill="none" xmlns="http://www.w3.org/2000/svg">
<path d="M49.237 74.4238H9.15291C4.79731 74.4238 1.26233 70.8888 1.26233 66.5332V15.5285C1.26233 11.1729 4.79731 7.63794 9.15291 7.63794H49.237C53.5926 7.63794 57.1276 11.1729 57.1276 15.5285V66.5332C57.1276 70.8888 53.5926 74.4238 49.237 74.4238Z" fill="#D7F1FF"/>
<path d="M49.2372 75.6863H9.15307C4.1031 75.6863 0 71.5832 0 66.5332V15.5286C0 10.4786 4.1031 6.37549 9.15307 6.37549H49.2372C54.2872 6.37549 58.3903 10.4786 58.3903 15.5286V66.5332C58.3903 71.5832 54.2872 75.6863 49.2372 75.6863ZM9.15307 8.90047C5.49184 8.90047 2.52498 11.8673 2.52498 15.5286V66.5332C2.52498 70.1945 5.49184 73.1613 9.15307 73.1613H49.2372C52.8984 73.1613 55.8653 70.1945 55.8653 66.5332V15.5286C55.8653 11.8673 52.8984 8.90047 49.2372 8.90047H9.15307Z" fill="#0F145B"/>
<path d="M21.2096 5.11321H23.9871C24.8077 5.11321 25.5021 4.54508 25.6914 3.78758C26.1333 2.27259 27.522 1.13635 29.1633 1.13635C30.7414 1.13635 32.1933 2.20947 32.6351 3.78758C32.8245 4.54508 33.5821 5.11321 34.3396 5.11321H37.117C41.0307 5.11321 44.187 8.14318 44.5026 11.9307H13.7609C14.1396 8.14318 17.359 5.11321 21.2096 5.11321Z" fill="#FFCDBD"/>
<path d="M44.5659 13.193H13.8242C13.4455 13.193 13.1299 13.0668 12.8774 12.8143C12.6249 12.5618 12.4986 12.1831 12.5617 11.8674C12.9405 7.38558 16.7279 3.91373 21.2098 3.91373H23.9873C24.2398 3.91373 24.4291 3.72436 24.4922 3.53498C25.0604 1.45187 27.0172 0 29.1635 0C31.3097 0 33.2666 1.45187 33.8347 3.53498C33.8978 3.78748 34.0872 3.91373 34.3397 3.91373H37.1172C41.5359 3.91373 45.3234 7.32246 45.7653 11.6781C45.7653 11.8043 45.8284 11.8674 45.8284 11.9937C45.8284 12.6249 45.2603 13.193 44.5659 13.193ZM15.3392 10.6681H42.9878C42.1672 8.2062 39.8315 6.37559 37.1172 6.37559H34.3397C32.951 6.37559 31.7516 5.42872 31.3728 4.16623C31.1203 3.15623 30.1735 2.46186 29.1635 2.46186C28.1535 2.46186 27.2066 3.15623 26.9541 4.16623C26.5754 5.49185 25.376 6.37559 23.9873 6.37559H21.2098C18.4954 6.37559 16.1598 8.14308 15.3392 10.6681Z" fill="#0F145B"/>
<path d="M14.7081 46.7754C16.521 46.7754 17.9906 45.3058 17.9906 43.4929C17.9906 41.6801 16.521 40.2104 14.7081 40.2104C12.8952 40.2104 11.4257 41.6801 11.4257 43.4929C11.4257 45.3058 12.8952 46.7754 14.7081 46.7754Z" fill="#0F145B"/>
<path d="M48.1641 44.7555H24.3661C23.6718 44.7555 23.1036 44.1873 23.1036 43.493C23.1036 42.7986 23.6718 42.2305 24.3661 42.2305H48.1641C48.8585 42.2305 49.4266 42.7986 49.4266 43.493C49.4266 44.1873 48.8585 44.7555 48.1641 44.7555Z" fill="#0F145B"/>
<path d="M48.1641 28.0274H24.3661C23.6718 28.0274 23.1036 27.4593 23.1036 26.7649C23.1036 26.0706 23.6718 25.5024 24.3661 25.5024H48.1641C48.8585 25.5024 49.4266 26.0706 49.4266 26.7649C49.4266 27.4593 48.8585 28.0274 48.1641 28.0274Z" fill="#0F145B"/>
<path d="M14.7081 63.4403C16.521 63.4403 17.9906 61.9707 17.9906 60.1578C17.9906 58.345 16.521 56.8754 14.7081 56.8754C12.8952 56.8754 11.4257 58.345 11.4257 60.1578C11.4257 61.9707 12.8952 63.4403 14.7081 63.4403Z" fill="#0F145B"/>
<path d="M48.1641 61.4202H24.3661C23.6718 61.4202 23.1036 60.8521 23.1036 60.1578C23.1036 59.4634 23.6718 58.8953 24.3661 58.8953H48.1641C48.8585 58.8953 49.4266 59.4634 49.4266 60.1578C49.4266 60.8521 48.8585 61.4202 48.1641 61.4202Z" fill="#0F145B"/>
<path d="M14.0138 31.1204C13.6981 31.1204 13.3826 30.9942 13.1932 30.8048L10.1632 28.0904C9.65818 27.6486 9.59509 26.8279 10.037 26.3229C10.4788 25.8179 11.2994 25.7548 11.8044 26.1967L13.8244 27.9642L17.4856 22.9142C17.8644 22.3461 18.685 22.2198 19.2531 22.6617C19.8213 23.0405 19.9475 23.8611 19.5057 24.4292L15.0237 30.6154C14.8344 30.931 14.5188 31.0573 14.1401 31.1204C14.0769 31.1204 14.0138 31.1204 14.0138 31.1204Z" fill="#0F145B"/>
</svg>
