<svg width="126" height="65" viewBox="0 0 126 65" fill="none" xmlns="http://www.w3.org/2000/svg">
<path d="M122.466 47.2457C122.282 55.3057 115.73 61.8057 107.706 61.8057C99.5337 61.8057 92.9448 55.12 92.9448 46.9114V14.8943C92.9448 6.64857 99.5706 0 107.706 0C115.877 0 122.466 6.68571 122.466 14.8943V44.0514H118.601C117.865 39.1857 113.853 35.4343 108.883 35.1371C106.086 34.9886 103.436 35.9171 101.374 37.8114C99.3129 39.6686 98.0982 42.2686 97.9509 45.0543C97.6564 50.8486 102.037 55.7886 107.779 56.0857C107.963 56.0857 108.147 56.0857 108.331 56.0857C111.055 56.0857 113.669 55.0086 115.62 53.0771C116.245 52.4829 116.245 51.48 115.656 50.8486C115.067 50.2171 114.074 50.2171 113.448 50.8114C111.975 52.26 109.988 53.0029 107.963 52.8914C103.951 52.6686 100.896 49.2143 101.08 45.1657C101.19 43.1971 102.037 41.4143 103.472 40.1143C104.908 38.8143 106.785 38.1457 108.736 38.2571C112.049 38.4429 114.773 40.82 115.436 44.0143H107.448C106.601 44.0143 105.865 44.72 105.865 45.6114C105.865 46.5029 106.564 47.2086 107.448 47.2086H122.466V47.2457ZM17.8528 27.6714C18.5521 26.5943 18.8834 25.4429 18.8834 24.1429C18.8834 22.3971 18.2577 20.9486 16.9693 19.8714C15.681 18.7571 13.546 17.9029 10.4908 17.2714C9.0184 16.9743 7.8773 16.64 7.10429 16.3057C6.33129 15.9714 5.77914 15.6371 5.52147 15.2286C5.22699 14.8571 5.11656 14.3743 5.11656 13.8171C5.11656 13.0371 5.52147 12.4057 6.3681 11.96C7.17791 11.5143 8.2454 11.2914 9.53374 11.2914C10.638 11.2914 11.5951 11.44 12.4049 11.7C13.1779 11.96 13.9141 12.4429 14.6135 13.0743C15.2025 13.5943 15.865 13.8914 16.6012 13.8914C17.0798 13.8914 17.4847 13.78 17.7791 13.5571C18.2577 13.1486 18.4785 12.74 18.4785 12.2571C18.4785 11.8114 18.2945 11.3657 17.9264 10.92C17.0798 9.88 15.9387 9.06286 14.5031 8.46857C13.0675 7.87428 11.4479 7.57714 9.60736 7.57714C8.13497 7.57714 6.7362 7.8 5.41104 8.28286C4.08589 8.76571 3.0184 9.47143 2.20859 10.4371C1.39877 11.4029 0.993865 12.5543 0.993865 13.9657C0.993865 17.3829 3.68098 19.6114 9.05521 20.6514C11.1166 21.06 12.589 21.5429 13.4724 22.1C14.3558 22.6943 14.7607 23.4 14.7607 24.2914C14.7607 25.1829 14.319 25.9257 13.4356 26.4457C12.5521 26.9657 11.3006 27.2629 9.71779 27.2629C8.50307 27.2629 7.39877 27.04 6.33129 26.5943C5.2638 26.1486 4.45399 25.6286 3.93865 25.0343C3.42331 24.5143 2.90798 24.2543 2.35583 24.2543C1.91411 24.2543 1.43558 24.44 0.883436 24.8486C0.294479 25.3314 0 25.8514 0 26.5571C0 27.04 0.184049 27.4857 0.552147 27.8571C1.5092 28.8229 2.83436 29.6029 4.4908 30.1971C6.18405 30.7914 7.95092 31.0886 9.86503 31.0886C11.7791 31.0886 13.3988 30.7914 14.7607 30.16C16.1227 29.5657 17.1534 28.7114 17.8528 27.6714ZM30.2945 8.13428H26.9816V2.6C26.9816 1.33714 25.9877 0.334286 24.7362 0.334286C23.4847 0.334286 22.4908 1.33714 22.4908 2.6V23.8086C22.4908 27.7829 25.6933 31.0514 29.6687 31.0514C30.9202 31.0514 31.9141 30.0486 31.9141 28.7857C31.9141 27.5229 30.9202 26.52 29.6687 26.52C28.1963 26.52 26.9816 25.2943 26.9816 23.8086V12.6286H30.2945C31.546 12.6286 32.5399 11.6257 32.5399 10.3629C32.5399 9.13714 31.5092 8.13428 30.2945 8.13428ZM84.2577 31.0886C85.5092 31.0886 86.5031 30.0857 86.5031 28.8229C86.5031 27.56 85.5092 26.5571 84.2577 26.5571C82.7853 26.5571 81.5706 25.3314 81.5706 23.8457V12.6286H84.8834C86.135 12.6286 87.1288 11.6257 87.1288 10.3629C87.1288 9.1 86.135 8.09714 84.8834 8.09714H81.5706V2.6C81.5706 1.33714 80.5767 0.334286 79.3252 0.334286C78.0736 0.334286 77.0798 1.33714 77.0798 2.6V23.8086C77.0798 27.82 80.2822 31.0886 84.2577 31.0886ZM88.2699 55.3429C86.7975 55.3429 85.5828 54.1171 85.5828 52.6314V35.62C85.5828 34.3571 84.589 33.3543 83.3374 33.3543C82.0859 33.3543 81.092 34.3571 81.092 35.62V52.6314C81.092 56.6057 84.2945 59.8743 88.2699 59.8743C89.5215 59.8743 90.5153 58.8714 90.5153 57.6086C90.5153 56.3457 89.4847 55.3429 88.2699 55.3429ZM56.6135 31.0143C54.8098 30.68 53.3006 29.5286 52.3804 27.9686C50.3558 29.9 47.6319 31.0886 44.6135 31.0886C38.3558 31.0886 33.2393 25.9257 33.2393 19.6114C33.2393 13.2971 38.3558 8.13428 44.6135 8.13428C50.8712 8.13428 55.9877 13.2971 55.9877 19.6114V24.6629C55.9877 25.5914 56.6135 26.4457 57.4601 26.5943C58.6749 26.8171 59.5215 27.9686 59.3006 29.1943C59.1166 30.3086 58.1963 31.0886 57.1288 31.0886C57.0184 31.0886 56.8712 31.0886 56.7607 31.0514L56.6135 31.0143ZM51.5337 19.6114C51.5337 15.7857 48.4417 12.6657 44.6503 12.6657C40.8589 12.6657 37.7669 15.7857 37.7669 19.6114C37.7669 23.4371 40.8589 26.5571 44.6503 26.5571C48.4417 26.5571 51.5337 23.4371 51.5337 19.6114ZM30.0368 48.6571C28.7485 47.5429 26.6135 46.6886 23.5583 46.0571C22.0859 45.76 20.9448 45.4257 20.1718 45.0914C19.3988 44.7571 18.8466 44.4229 18.589 44.0143C18.2945 43.6429 18.184 43.16 18.184 42.6029C18.184 41.8229 18.589 41.1914 19.4356 40.7457C20.2454 40.3 21.3129 40.0771 22.6012 40.0771C23.7055 40.0771 24.6626 40.2257 25.4724 40.4857C26.2454 40.7457 26.9816 41.2286 27.681 41.86C28.2699 42.38 28.9325 42.6771 29.6687 42.6771C30.1472 42.6771 30.5521 42.5657 30.8466 42.3429C31.3252 41.9343 31.546 41.5257 31.546 41.0429C31.546 40.5971 31.362 40.1514 30.9939 39.7057C30.1472 38.6657 29.0061 37.8486 27.5706 37.2543C26.135 36.66 24.5153 36.3629 22.6748 36.3629C21.2025 36.3629 19.8037 36.5857 18.4785 37.0686C17.1534 37.5514 16.0859 38.2571 15.2761 39.2229C14.4663 40.1886 14.0614 41.34 14.0614 42.7514C14.0614 46.1686 16.7485 48.3971 22.1227 49.4371C24.184 49.8457 25.6564 50.3286 26.5399 50.8857C27.4233 51.48 27.8282 52.1857 27.8282 53.0771C27.8282 53.9686 27.3865 54.7114 26.5031 55.2314C25.6196 55.7514 24.3681 56.0486 22.7853 56.0486C21.5706 56.0486 20.4663 55.8257 19.3988 55.38C18.3313 54.9343 17.5215 54.4143 17.0061 53.82C16.4908 53.3 15.9755 53.04 15.4233 53.04C14.9816 53.04 14.5031 53.2257 13.9509 53.6343C13.3988 54.0429 13.1043 54.6 13.1043 55.2686C13.1043 55.7886 13.2883 56.1971 13.6564 56.5686C14.6135 57.5343 15.9387 58.3143 17.5951 58.9086C19.2883 59.5029 21.0552 59.8 22.9693 59.8C24.8834 59.8 26.5031 59.5029 27.865 58.8714C29.227 58.2771 30.2577 57.4229 30.9571 56.3829C31.6564 55.3057 31.9877 54.1543 31.9877 52.8543C31.9509 51.1829 31.3252 49.7343 30.0368 48.6571ZM79.546 58.0171C79.362 59.0943 78.4417 59.8743 77.3742 59.8743C77.2638 59.8743 77.1166 59.8743 77.0061 59.8371H76.9325C75.0552 59.4657 73.546 58.3143 72.6258 56.7543C70.6012 58.6857 67.8773 59.8743 64.8589 59.8743C58.6012 59.8743 53.4847 54.7114 53.4847 48.3971C53.4847 42.0829 58.6012 36.92 64.8589 36.92C71.1166 36.92 76.2331 42.0829 76.2331 48.3971V53.4486C76.2331 54.3771 76.8589 55.2314 77.7055 55.38C78.9202 55.6029 79.7669 56.7914 79.546 58.0171ZM71.7423 48.3971C71.7423 44.5714 68.6503 41.4514 64.8589 41.4514C61.0675 41.4514 57.9755 44.5714 57.9755 48.3971C57.9755 52.2229 61.0675 55.3429 64.8589 55.3429C68.6503 55.3429 71.7423 52.2229 71.7423 48.3971ZM49.362 53.4114C48.0736 54.6371 46.3804 55.3429 44.6135 55.3429C40.8221 55.3429 37.7301 52.2229 37.7301 48.3971C37.7301 44.5714 40.8221 41.4514 44.6135 41.4514C46.3067 41.4514 47.9264 42.0829 49.1779 43.1971C50.0982 44.0143 51.5337 43.94 52.3436 43.0114C53.1534 42.0829 53.0798 40.6343 52.1595 39.8171C50.0614 37.96 47.411 36.92 44.6135 36.92C38.3558 36.92 33.2393 42.0829 33.2393 48.3971C33.2393 54.7114 38.3558 59.8743 44.6135 59.8743C47.5583 59.8743 50.319 58.76 52.454 56.7171C53.3374 55.8629 53.3742 54.4143 52.5276 53.5229C51.681 52.5943 50.2822 52.5571 49.362 53.4114ZM63.0552 31.0886C64.3068 31.0886 65.3006 30.0857 65.3006 28.8229V16.4171C67.7669 13 71.4479 12.6657 71.6687 12.6286C72.8834 12.5543 73.8405 11.4771 73.7669 10.2143C73.6933 8.95143 72.6258 8.02286 71.3742 8.09714C71.1902 8.09714 68.319 8.32 65.3006 10.2886C65.2638 9.06286 64.2699 8.09714 63.0552 8.09714C61.8037 8.09714 60.8098 9.1 60.8098 10.3629V28.7857C60.8098 30.0486 61.8037 31.0886 63.0552 31.0886Z" fill="white"/>
</svg>
