<svg width="26" height="26" viewBox="0 0 26 26" fill="none" xmlns="http://www.w3.org/2000/svg">
<path d="M25 5.41667C25 7.85592 23.0226 9.83333 20.5834 9.83333C18.1441 9.83333 16.1667 7.85592 16.1667 5.41667C16.1667 2.97741 18.1441 1 20.5834 1C23.0226 1 25 2.97741 25 5.41667Z" fill="#FFCDBD" stroke="#0F145B" stroke-width="2"/>
<circle cx="20.5834" cy="20.5832" r="4.41667" fill="#FFCDBD" stroke="#0F145B" stroke-width="2"/>
<circle cx="5.41667" cy="5.41667" r="4.41667" fill="#FFCDBD" stroke="#0F145B" stroke-width="2"/>
<path d="M9.83333 20.5832C9.83333 23.0224 7.85592 24.9998 5.41667 24.9998C2.97741 24.9998 1 23.0224 1 20.5832C1 18.1439 2.97741 16.1665 5.41667 16.1665C7.85592 16.1665 9.83333 18.1439 9.83333 20.5832Z" fill="#FFCDBD" stroke="#0F145B" stroke-width="2"/>
</svg>
