<svg width="75" height="80" viewBox="0 0 75 80" fill="none" xmlns="http://www.w3.org/2000/svg">
<path d="M26.6488 77.5015L26.9224 77.3647C28.4956 76.4756 28.906 74.3552 27.8116 72.9189L18.8515 61.7016C18.5095 61.2912 17.8939 61.2912 17.5519 61.7016L14.474 65.1899C14.2004 65.4635 14.2004 65.9423 14.474 66.2843L22.8869 76.8175C23.7761 77.9119 25.3493 78.2539 26.6488 77.5015Z" fill="#FFCDBD"/>
<path d="M25.2126 79.2799C23.913 79.2799 22.6135 78.6644 21.7927 77.6384L13.3797 67.1051C12.6957 66.2843 12.7641 65.0532 13.4481 64.2324L16.526 60.7441C16.9364 60.2653 17.552 59.9917 18.1676 59.9917C18.8516 59.9917 19.4671 60.2653 19.8775 60.8125L28.8377 72.0297C29.6585 73.0557 29.932 74.2869 29.7268 75.5864C29.5217 76.886 28.7009 77.912 27.6065 78.5276L27.3329 78.6644C26.6489 79.0747 25.965 79.2799 25.2126 79.2799ZM15.7737 65.7371L23.913 75.9284C24.255 76.3388 24.6654 76.544 25.1442 76.544C25.4178 76.544 25.6914 76.4756 25.965 76.3388L26.2386 76.202C26.6489 75.9968 26.9225 75.5864 27.0593 75.1077C27.1277 74.6289 27.0593 74.1501 26.7173 73.8081L18.1676 63.0696L15.7737 65.7371Z" fill="#0F145B"/>
<path d="M63.5838 48.8427C40.6021 49.4583 19.6039 61.4279 12.0801 66.2158C10.4386 67.3101 8.18145 66.8998 6.95029 65.395L2.16243 59.376C0.931261 57.8028 1.06805 55.6141 2.43601 54.1777C8.59184 48.0903 24.1866 31.1276 30.274 9.719C30.4792 8.96663 31.5052 8.76143 31.984 9.37701L63.5838 48.8427Z" fill="#D7F1FF"/>
<path d="M10.0282 68.1309C8.45505 68.1309 6.9503 67.3785 5.92433 66.1474L1.13646 60.1283C-0.50509 58.008 -0.368301 54.9985 1.54684 53.1517C7.83946 46.9275 23.0238 30.2384 29.0429 9.30858C29.3164 8.28261 30.274 7.59863 31.3 7.59863C32.0524 7.59863 32.6679 7.94063 33.1467 8.48781L64.6782 47.9535C65.0202 48.3639 65.0886 48.911 64.8834 49.3898C64.6782 49.8686 64.1995 50.1422 63.6523 50.2106C41.2177 50.8262 20.6299 62.3855 12.8325 67.3785C12.0117 67.8573 10.9858 68.1309 10.0282 68.1309ZM31.4368 10.7449C25.1442 32.0167 9.82301 48.8426 3.46199 55.1353C2.57282 56.0244 2.43602 57.4608 3.2568 58.4868L8.04466 64.5058C8.52345 65.1214 9.20743 65.4634 10.0282 65.4634C10.507 65.4634 10.9858 65.3266 11.3962 65.053C19.0567 60.1967 38.8238 49.0478 60.8479 47.6115L31.4368 10.7449Z" fill="#0F145B"/>
<path d="M64.7203 47.9689C69.0604 44.5056 65.2447 32.507 56.1975 21.1693C47.1503 9.83171 36.2977 3.44836 31.9575 6.91174C27.6173 10.3751 31.4331 22.3737 40.4803 33.7113C49.5275 45.049 60.3801 51.4323 64.7203 47.9689Z" fill="#D7F1FF"/>
<path d="M61.7372 50.2108C55.9233 50.2108 46.9632 43.9182 39.4394 34.4793C34.9935 28.8707 31.5736 22.92 29.9321 17.7218C28.1537 12.1131 28.5641 7.87246 31.1632 5.82052C32.1892 4.99975 33.4888 4.58936 34.9935 4.58936C40.8074 4.58936 49.7675 10.882 57.2913 20.3209C67.1406 32.6325 70.6973 44.9442 65.5674 48.9797C64.5415 49.8005 63.2419 50.2108 61.7372 50.2108ZM34.9935 7.32528C34.1044 7.32528 33.352 7.53047 32.8732 7.94086C31.3 9.17202 31.1632 12.5235 32.5996 16.901C34.1728 21.8257 37.3875 27.4343 41.6281 32.7693C48.5363 41.3875 56.8125 47.4749 61.7372 47.4749C62.6263 47.4749 63.3787 47.2697 63.8575 46.8593C67.0722 44.3286 64.2679 33.4533 55.1025 22.0309C48.1943 13.3443 39.9182 7.32528 34.9935 7.32528Z" fill="#0F145B"/>
<path d="M43.4749 37.0781C44.1589 36.9413 44.7745 36.5993 45.3901 36.1205C47.5104 34.4105 47.8524 31.2642 46.1425 29.1439C44.4325 27.0235 41.2862 26.6816 39.1659 28.3915C38.6187 28.8019 38.2083 29.3491 37.9347 29.8963" fill="#FFCDBD"/>
<path d="M43.4065 38.4462C42.7909 38.4462 42.2437 38.0358 42.1069 37.4202C41.9017 36.6678 42.3805 35.9155 43.1329 35.7787C43.6117 35.6419 44.0905 35.4367 44.5008 35.0947C45.2532 34.4791 45.732 33.6583 45.8004 32.7007C45.9372 31.7432 45.6636 30.7856 45.048 30.0332C43.8169 28.4601 41.5597 28.2549 39.9866 29.486C39.6446 29.7596 39.3026 30.17 39.0974 30.5804C38.7554 31.2644 37.9346 31.4696 37.2507 31.1276C36.5667 30.7856 36.3615 29.9648 36.7035 29.2808C37.1139 28.5285 37.661 27.9129 38.2766 27.3657C41.0125 25.177 44.9796 25.6557 47.1684 28.3917C48.1943 29.6912 48.6731 31.4012 48.5363 33.0427C48.3995 34.6843 47.5104 36.2574 46.2108 37.2834C45.4584 37.8306 44.706 38.241 43.8169 38.5146C43.6801 38.4462 43.5433 38.4462 43.4065 38.4462Z" fill="#0F145B"/>
<path d="M13.9952 65.6003L19.5354 62.5224L7.77095 47.7484L3.53027 52.5363L13.9952 65.6003Z" fill="#FFCDBD"/>
<path d="M13.9952 66.9683C13.5848 66.9683 13.1745 66.7631 12.9009 66.4212L2.43596 53.3571C2.02558 52.8099 2.02558 52.126 2.50437 51.5788L6.74504 46.7909C7.01863 46.5173 7.42902 46.3121 7.77101 46.3121C8.1814 46.3121 8.52339 46.5173 8.79698 46.8593L20.5614 61.6333C20.835 61.9753 20.9034 62.3857 20.835 62.7277C20.7666 63.1381 20.493 63.48 20.1511 63.6852L14.6108 66.8315C14.4056 66.8999 14.2004 66.9683 13.9952 66.9683ZM5.30868 52.6048L14.3372 63.8904L17.4835 62.1121L7.70261 49.8688L5.30868 52.6048Z" fill="#0F145B"/>
<path d="M66.525 25.2452C66.4566 25.2452 66.3882 25.2452 66.3882 25.2452C65.6358 25.1768 65.0886 24.4928 65.157 23.7405C65.499 20.6626 64.6098 17.653 62.6947 15.2591C60.7795 12.8652 58.0436 11.3604 54.9657 11.0184C54.2133 10.95 53.6661 10.2661 53.7345 9.51367C53.8029 8.76129 54.4869 8.21411 55.2393 8.28251C59.0012 8.69289 62.4211 10.608 64.7466 13.5492C67.1406 16.4903 68.1665 20.2522 67.7561 24.0141C67.8245 24.7664 67.209 25.2452 66.525 25.2452Z" fill="#0F145B"/>
<path d="M73.5017 26.0662C73.4333 26.0662 73.3649 26.0662 73.3649 26.0662C72.6125 25.9978 72.0653 25.3139 72.1337 24.5615C72.6809 19.6368 71.313 14.849 68.235 10.9503C65.1571 7.11998 60.7796 4.65765 55.855 4.11047C55.1026 4.04207 54.5554 3.35809 54.6238 2.60571C54.6922 1.85333 55.3762 1.30615 56.1286 1.37455C61.7372 1.99013 66.7987 4.79445 70.3554 9.24032C73.9121 13.6862 75.4852 19.2264 74.8696 24.8351C74.8012 25.519 74.1857 26.0662 73.5017 26.0662Z" fill="#0F145B"/>
</svg>
