<svg width="35" height="35" viewBox="0 0 35 35" fill="none" xmlns="http://www.w3.org/2000/svg">
<path d="M17.5 34C26.6127 34 34 26.6127 34 17.5C34 8.3873 26.6127 1 17.5 1C8.3873 1 1 8.3873 1 17.5C1 26.6127 8.3873 34 17.5 34Z" fill="#D7F1FF" stroke="#0F145B" stroke-width="2" stroke-miterlimit="10"/>
<path d="M26.784 14.09H21.856C21.13 14.09 20.536 13.496 20.536 12.77V7.84197C20.536 7.11597 19.942 6.52197 19.216 6.52197H15.762C15.036 6.52197 14.442 7.11597 14.442 7.84197V12.77C14.442 13.496 13.848 14.09 13.122 14.09H8.19396C7.46796 14.09 6.87396 14.684 6.87396 15.41V18.864C6.87396 19.59 7.46796 20.184 8.19396 20.184H13.122C13.848 20.184 14.442 20.778 14.442 21.504V26.432C14.442 27.158 15.036 27.752 15.762 27.752H19.216C19.942 27.752 20.536 27.158 20.536 26.432V21.504C20.536 20.778 21.13 20.184 21.856 20.184H26.784C27.51 20.184 28.104 19.59 28.104 18.864V15.41C28.104 14.684 27.532 14.09 26.784 14.09Z" fill="#FFCDBD" stroke="#0F145B" stroke-width="2" stroke-miterlimit="10"/>
</svg>
