<svg width="19" height="19" viewBox="0 0 19 19" fill="none" xmlns="http://www.w3.org/2000/svg">
<path d="M9.38864 17.7773C14.0216 17.7773 17.7773 14.0216 17.7773 9.38864C17.7773 4.75572 14.0216 1 9.38864 1C4.75572 1 1 4.75572 1 9.38864C1 14.0216 4.75572 17.7773 9.38864 17.7773Z" fill="#D7F1FF" stroke="#0F145B" stroke-width="0.75" stroke-miterlimit="10"/>
<path d="M10.4483 6.08079L5.43749 11.0916C5.42631 11.1028 5.4263 11.114 5.41512 11.1252L4.93417 13.5299C4.92299 13.5746 4.96773 13.6082 5.01247 13.6082L7.41721 13.1272C7.4284 13.1272 7.43958 13.1161 7.45077 13.1049L12.4616 8.08288L10.4483 6.08079Z" fill="#FFCDBD" stroke="#0F145B" stroke-width="0.75" stroke-miterlimit="10"/>
<path d="M12.5986 7.9458L13.5046 7.03983C13.8402 6.70428 13.8402 6.16741 13.5046 5.84305L12.6993 5.03774C12.3638 4.70219 11.8269 4.70219 11.5025 5.03774L10.5966 5.94371L12.5986 7.9458Z" fill="#FFCDBD" stroke="#0F145B" stroke-width="0.75" stroke-miterlimit="10"/>
<path d="M8.69232 13.9521H14.117" stroke="#0F145B" stroke-width="0.75" stroke-miterlimit="10" stroke-linecap="round"/>
<path d="M10.851 12.3667H14.1169" stroke="#0F145B" stroke-width="0.75" stroke-miterlimit="10" stroke-linecap="round"/>
</svg>
