<svg width="17" height="19" viewBox="0 0 17 19" fill="none" xmlns="http://www.w3.org/2000/svg">
<path d="M8.4981 1C7.96163 1 7.67551 1.17745 7.42515 1.42589L1.52393 6.74948C0.844391 7.38831 0.844391 8.38205 1.41663 9.02088C1.98887 9.62422 3.06182 9.6952 3.70559 9.12735L6.88868 6.25261V16.4029C6.88868 17.2902 7.60398 18 8.4981 18C9.39223 18 10.1075 17.2902 10.1075 16.4029V6.18163L13.2906 9.05637C13.8986 9.62422 14.9716 9.55324 15.5796 8.9499C16.2233 8.34656 16.0803 7.24635 15.4723 6.6785L9.57106 1.35491C9.24917 1.10647 9.03458 1 8.4981 1Z" fill="#FFCDBD" stroke="#0F145B" stroke-width="1.5" stroke-miterlimit="10" stroke-linecap="round" stroke-linejoin="round"/>
</svg>
