<svg width="71" height="74" viewBox="0 0 71 74" fill="none" xmlns="http://www.w3.org/2000/svg">
<path d="M69.555 27.7118H2.9585V63.8822C2.9585 68.2378 6.49347 71.7728 10.8491 71.7728H61.6644C66.02 71.7728 69.555 68.2378 69.555 63.8822V27.7118Z" fill="#D7F1FF"/>
<path d="M61.6643 73.0353H10.849C5.79902 73.0353 1.69592 68.9322 1.69592 63.8822V27.7118C1.69592 27.0175 2.26404 26.4493 2.95842 26.4493H69.5549C70.2493 26.4493 70.8174 27.0175 70.8174 27.7118V63.8822C70.8174 68.9322 66.6512 73.0353 61.6643 73.0353ZM4.22091 28.9743V63.8822C4.22091 67.5435 7.18776 70.5103 10.849 70.5103H61.6643C65.3255 70.5103 68.2924 67.5435 68.2924 63.8822V28.9743H4.22091Z" fill="#0F145B"/>
<path d="M69.555 27.7118H2.9585V40.8417H69.555V27.7118Z" fill="#FFCDBD"/>
<path d="M69.5549 42.1672H2.95842C2.26404 42.1672 1.69592 41.5991 1.69592 40.9047V27.7748C1.69592 27.0805 2.26404 26.5123 2.95842 26.5123H69.5549C70.2493 26.5123 70.8174 27.0805 70.8174 27.7748V40.9047C70.8174 41.5991 70.2493 42.1672 69.5549 42.1672ZM4.22091 39.6422H68.2924V29.0373H4.22091V39.6422Z" fill="#0F145B"/>
<path d="M8.19767 42.1672C8.0083 42.1672 7.7558 42.1041 7.56642 42.041C6.93518 41.7253 6.74581 40.9047 7.06143 40.3366L14.3208 27.2067C14.6364 26.5754 15.3939 26.3861 16.0251 26.7017C16.6564 27.0173 16.8458 27.8379 16.5301 28.4061L9.2708 41.536C9.08142 41.9147 8.63954 42.1672 8.19767 42.1672Z" fill="#0F145B"/>
<path d="M23.0953 42.1672C22.9059 42.1672 22.6534 42.1041 22.464 42.041C21.8328 41.7253 21.6434 40.9047 21.959 40.3366L29.2183 27.2067C29.534 26.5754 30.2915 26.3861 30.9227 26.7017C31.554 27.0173 31.7433 27.8379 31.4277 28.4061L24.1684 41.536C23.979 41.9147 23.5372 42.1672 23.0953 42.1672Z" fill="#0F145B"/>
<path d="M37.9294 42.1672C37.74 42.1672 37.4875 42.1041 37.2981 42.041C36.6669 41.7253 36.4775 40.9047 36.7931 40.3366L44.0524 27.2067C44.3681 26.5754 45.1256 26.3861 45.7568 26.7017C46.3881 27.0173 46.5774 27.8379 46.2618 28.4061L39.0025 41.536C38.8131 41.9147 38.3713 42.1672 37.9294 42.1672Z" fill="#0F145B"/>
<path d="M52.8268 42.1672C52.6374 42.1672 52.3849 42.1041 52.1956 42.041C51.5643 41.7253 51.375 40.9047 51.6906 40.3366L58.9499 27.2067C59.2655 26.5754 60.023 26.3861 60.6543 26.7017C61.2855 27.0173 61.4749 27.8379 61.1593 28.4061L53.8999 41.536C53.7106 41.9147 53.2687 42.1672 52.8268 42.1672Z" fill="#0F145B"/>
<path d="M67.5981 12.4988L2.70593 27.5225L1.50659 22.4094C0.496592 18.18 3.1478 13.9507 7.44028 12.9407L56.93 1.45202C61.1593 0.442026 65.3887 3.09326 66.3987 7.38573L67.5981 12.4988Z" fill="#FFCDBD"/>
<path d="M2.7059 28.7848C2.45341 28.7848 2.26405 28.7217 2.01155 28.5955C1.69593 28.4061 1.50654 28.1536 1.44341 27.838L0.244067 22.7249C-0.324055 20.3261 0.11781 17.8643 1.3803 15.8443C2.64279 13.8243 4.72591 12.3093 7.06152 11.7412L56.6775 0.252499C57.3718 0.0631256 58.0662 0 58.7606 0C63.0531 0 66.7143 2.90374 67.6612 7.06996L68.8605 12.1831C68.9868 12.8774 68.608 13.5718 67.9137 13.698L3.02153 28.7217C2.89528 28.7848 2.83215 28.7848 2.7059 28.7848ZM58.7606 2.52498C58.2556 2.52498 57.7506 2.58811 57.2456 2.71436L7.75587 14.1399C6.05151 14.5187 4.53652 15.5918 3.65277 17.1068C2.7059 18.6218 2.39029 20.3892 2.83216 22.0936L3.71592 26.0073L66.1461 11.5518L65.2624 7.63808C64.5049 4.6081 61.8537 2.52498 58.7606 2.52498Z" fill="#0F145B"/>
<path d="M7.88221 27.5855C7.75596 27.5855 7.62971 27.5855 7.56658 27.5224C6.87221 27.333 6.49349 26.6386 6.68286 25.9443L10.786 11.4887C10.9753 10.7944 11.6697 10.4156 12.3641 10.605C13.0584 10.7944 13.4372 11.4887 13.2478 12.1831L9.1447 26.6386C8.95532 27.2068 8.45033 27.5855 7.88221 27.5855Z" fill="#0F145B"/>
<path d="M22.3377 24.2398C22.2114 24.2398 22.0852 24.2398 22.0221 24.1767C21.3277 23.9873 20.9489 23.2929 21.1383 22.5986L25.2414 8.14302C25.4308 7.44865 26.1251 7.0699 26.8195 7.25928C27.5139 7.44865 27.8927 8.14302 27.7033 8.83739L23.6002 23.2929C23.4108 23.8611 22.9058 24.2398 22.3377 24.2398Z" fill="#0F145B"/>
<path d="M36.8564 20.8942C36.7301 20.8942 36.6039 20.8942 36.5407 20.8311C35.8464 20.6417 35.4676 19.9473 35.657 19.253L39.7601 4.79744C39.9495 4.10307 40.6438 3.72432 41.3382 3.9137C42.0326 4.10307 42.4113 4.79744 42.222 5.49181L38.1189 19.9473C37.9295 20.5155 37.4245 20.8942 36.8564 20.8942Z" fill="#0F145B"/>
<path d="M51.312 17.5488C51.1858 17.5488 51.0595 17.5488 50.9964 17.4856C50.302 17.2963 49.9233 16.6019 50.1127 15.9075L54.2158 1.45198C54.4051 0.757611 55.0995 0.378862 55.7939 0.568236C56.4883 0.75761 56.867 1.45198 56.6776 2.14635L52.5745 16.6019C52.3851 17.17 51.8801 17.5488 51.312 17.5488Z" fill="#0F145B"/>
<path d="M41.1488 56.1809C41.78 56.5596 41.78 57.4434 41.1488 57.759L36.2251 60.5996L31.3013 63.4402C30.6701 63.8189 29.9126 63.3771 29.9126 62.6196V56.9384V51.2571C29.9126 50.5628 30.6701 50.1209 31.3013 50.4365L36.2251 53.2771L41.1488 56.1809Z" fill="#D7F1FF"/>
<path d="M30.8595 64.8921C29.6601 64.8921 28.6501 63.8821 28.6501 62.6828V51.3203C28.6501 50.121 29.6601 49.111 30.8595 49.111C31.2383 49.111 31.617 49.2372 31.9326 49.4266L41.7801 55.1078C42.4744 55.4865 42.8532 56.1809 42.8532 57.0015C42.8532 57.759 42.4744 58.5165 41.7801 58.8953L31.9326 64.5765C31.617 64.7659 31.2383 64.8921 30.8595 64.8921ZM31.1751 51.8885V62.1146L40.0126 57.0015L31.1751 51.8885Z" fill="#0F145B"/>
</svg>
