<svg width="46" height="77" viewBox="0 0 46 77" fill="none" xmlns="http://www.w3.org/2000/svg">
<path d="M22.6617 13.5717C11.8042 13.5717 1.32556 22.0304 1.32556 33.9609C1.32556 41.4096 4.29242 46.2071 6.88052 49.9314C9.53176 53.6558 11.5517 56.1808 11.5517 60.0945V69.5632C11.5517 72.6563 14.1399 75.1182 17.1067 75.1182H28.1535C31.1204 75.1182 33.7085 72.7194 33.7085 69.5632V60.0945C33.7085 56.1176 35.7916 53.5927 38.3797 49.9314C41.0309 46.2071 43.9347 41.4096 43.9347 33.9609C43.9347 21.9672 33.5191 13.5717 22.6617 13.5717Z" fill="#D7F1FF"/>
<path d="M28.1536 76.3808H17.1068C13.3824 76.3808 10.2893 73.3508 10.2893 69.5634V60.0947C10.2893 56.8753 8.77432 54.7922 6.50184 51.5728L5.80747 50.626C2.77748 46.3335 0 41.3467 0 33.898C0 20.5155 11.7412 12.2462 22.5986 12.2462C33.4561 12.2462 45.1972 20.5155 45.1972 33.898C45.1972 41.3467 42.4197 46.3335 39.3898 50.626L38.6954 51.5728C36.4229 54.7922 34.9079 56.8753 34.9079 60.0947V69.5634C34.971 73.3508 31.9411 76.3808 28.1536 76.3808ZM22.6617 14.8343C13.0037 14.8343 2.58811 22.1568 2.58811 33.9611C2.58811 41.0942 5.36559 45.576 7.9537 49.2372L8.58495 50.1841C10.9837 53.5297 12.8774 56.181 12.8774 60.1578V69.6265C12.8774 71.9621 14.8343 73.919 17.1699 73.919H28.2167C30.5523 73.919 32.5092 71.9621 32.5092 69.6265V60.1578C32.5092 56.1178 34.4029 53.5297 36.8017 50.1841L37.4329 49.2372C40.021 45.576 42.7985 41.0942 42.7985 33.9611C42.6722 22.1568 32.2567 14.8343 22.6617 14.8343Z" fill="#0F145B"/>
<path d="M6.69128 33.3299C6.62816 33.3299 6.62815 33.3299 6.56503 33.3299C5.87066 33.2667 5.36566 32.6355 5.42879 31.9411C6.24941 23.6718 12.6881 20.5156 12.9406 20.3262C13.5719 20.0106 14.3294 20.2631 14.645 20.8943C14.9606 21.5256 14.7081 22.283 14.0769 22.5987C13.8244 22.7249 8.64814 25.3762 7.95377 32.1305C7.89065 32.8249 7.38565 33.3299 6.69128 33.3299Z" fill="#0F145B"/>
<path d="M27.2699 75.1814H17.9906C14.4556 75.1814 11.5519 72.2777 11.5519 68.7427V59.5265H33.7086V68.7427C33.7086 72.2777 30.8049 75.1814 27.2699 75.1814Z" fill="#FFCDBD"/>
<path d="M27.2698 76.4438H17.9905C13.7612 76.4438 10.2893 72.972 10.2893 68.7426V59.5264C10.2893 58.832 10.8574 58.2639 11.5518 58.2639H33.7085C34.4029 58.2639 34.971 58.832 34.971 59.5264V68.7426C34.971 72.972 31.4992 76.4438 27.2698 76.4438ZM12.8143 60.7258V68.6795C12.8143 71.5201 15.1499 73.8557 17.9905 73.8557H27.2698C30.1104 73.8557 32.446 71.5201 32.446 68.6795V60.7258H12.8143Z" fill="#0F145B"/>
<path d="M33.7085 68.6796H11.5518C10.8574 68.6796 10.2893 68.1115 10.2893 67.4172C10.2893 66.7228 10.8574 66.1547 11.5518 66.1547H33.7085C34.4029 66.1547 34.971 66.7228 34.971 67.4172C34.971 68.1115 34.4029 68.6796 33.7085 68.6796Z" fill="#0F145B"/>
<path d="M22.6618 9.91057C21.9674 9.91057 21.3993 9.34245 21.3993 8.64808V1.26249C21.3993 0.568122 21.9674 0 22.6618 0C23.3562 0 23.9243 0.568122 23.9243 1.26249V8.7112C23.9243 9.34245 23.3562 9.91057 22.6618 9.91057Z" fill="#0F145B"/>
<path d="M37.1805 12.5618C36.8648 12.5618 36.5492 12.4356 36.2967 12.1831C35.7917 11.6781 35.7917 10.9206 36.2967 10.4156L41.5361 5.17623C42.0411 4.67124 42.7986 4.67124 43.3036 5.17623C43.8086 5.68123 43.8086 6.43872 43.3036 6.94372L38.0642 12.1831C37.8117 12.4356 37.4961 12.5618 37.1805 12.5618Z" fill="#0F145B"/>
<path d="M8.07996 12.5618C7.76434 12.5618 7.44871 12.4356 7.19621 12.1831L1.95687 6.94372C1.45188 6.43872 1.45188 5.68123 1.95687 5.17623C2.46187 4.67124 3.21936 4.67124 3.72436 5.17623L8.96371 10.4156C9.4687 10.9206 9.4687 11.6781 8.96371 12.1831C8.77433 12.4356 8.45871 12.5618 8.07996 12.5618Z" fill="#0F145B"/>
</svg>
