<svg width="19" height="19" viewBox="0 0 19 19" fill="none" xmlns="http://www.w3.org/2000/svg">
<path d="M9.38864 17.7773C14.0216 17.7773 17.7773 14.0216 17.7773 9.38864C17.7773 4.75572 14.0216 1 9.38864 1C4.75572 1 1 4.75572 1 9.38864C1 14.0216 4.75572 17.7773 9.38864 17.7773Z" fill="#D7F1FF" stroke="#0F145B" stroke-width="0.75" stroke-miterlimit="10"/>
<path d="M9.38861 9.51168C11.1985 9.51168 12.6658 8.04444 12.6658 6.23452C12.6658 4.42459 11.1985 2.95735 9.38861 2.95735C7.57869 2.95735 6.11145 4.42459 6.11145 6.23452C6.11145 8.04444 7.57869 9.51168 9.38861 9.51168Z" fill="#FFCDBD" stroke="#0F145B" stroke-width="0.75" stroke-miterlimit="10"/>
<path d="M9.38863 17.7885C11.95 17.7885 14.2429 16.6476 15.7752 14.8357C14.7909 12.2631 12.2967 10.44 9.38863 10.44C6.48057 10.44 3.98634 12.2631 3.00208 14.8357C4.5344 16.6364 6.8273 17.7885 9.38863 17.7885Z" fill="#FFCDBD" stroke="#0F145B" stroke-width="0.75" stroke-miterlimit="10"/>
</svg>
