<svg width="71" height="63" viewBox="0 0 71 63" fill="none" xmlns="http://www.w3.org/2000/svg">
<path d="M62.4083 11.7294H9.09293C5.03249 11.7294 1.73706 15.0248 1.73706 19.0852V53.7461C1.73706 57.8065 5.03249 61.102 9.09293 61.102H62.4671C66.5276 61.102 69.823 57.8065 69.823 53.7461V19.0852C69.7642 15.0248 66.4687 11.7294 62.4083 11.7294Z" fill="#D7F1FF"/>
<path d="M62.4083 62.279H9.09299C4.38523 62.279 0.560181 58.4539 0.560181 53.7462V19.0853C0.560181 14.3775 4.38523 10.5525 9.09299 10.5525H62.4672C67.1749 10.5525 71 14.3775 71 19.0853V53.7462C70.9411 58.4539 67.1161 62.279 62.4083 62.279ZM9.09299 12.9064C5.67987 12.9064 2.91406 15.6722 2.91406 19.0853V53.7462C2.91406 57.1593 5.67987 59.9251 9.09299 59.9251H62.4672C65.8803 59.9251 68.6461 57.1593 68.6461 53.7462V19.0853C68.6461 15.6722 65.8803 12.9064 62.4672 12.9064H9.09299Z" fill="#0F145B"/>
<path d="M15.0366 6.78638H13.0358C10.9173 6.78638 9.15186 8.49294 9.15186 10.6703V11.7295H18.8616V10.6703C18.9205 8.49294 17.2139 6.78638 15.0366 6.78638Z" fill="#D7F1FF"/>
<path d="M18.9205 12.9064H9.21075C8.56344 12.9064 8.03381 12.3768 8.03381 11.7295V10.6702C8.03381 7.90441 10.3288 5.60938 13.0946 5.60938H15.0954C17.8613 5.60938 20.1563 7.90441 20.1563 10.6702V11.7295C20.0974 12.3768 19.5678 12.9064 18.9205 12.9064ZM10.3877 10.5525H17.7436C17.6847 9.08135 16.5078 7.96325 15.0366 7.96325H13.0358C11.6235 7.96325 10.4465 9.08135 10.3877 10.5525Z" fill="#0F145B"/>
<path d="M47.9908 11.5529L44.6366 3.60861C44.0481 2.25513 42.93 1.43127 41.6354 1.43127H29.9837C28.7479 1.43127 27.571 2.25513 26.9825 3.60861L23.5693 11.5529H47.9908Z" fill="#D7F1FF"/>
<path d="M47.9908 12.7298H23.5105C23.0985 12.7298 22.7455 12.5533 22.5101 12.2002C22.2747 11.8471 22.2747 11.4352 22.3924 11.0821L25.8055 3.13777C26.5705 1.37237 28.1594 0.254272 29.8659 0.254272H41.5176C43.283 0.254272 44.8131 1.37236 45.5781 3.19662L48.9324 11.141C49.1089 11.494 49.0501 11.906 48.8147 12.2591C48.7558 12.5533 48.4027 12.7298 47.9908 12.7298ZM25.3347 10.3759H46.2254L43.5184 4.07932C43.1065 3.13777 42.4003 2.60815 41.6353 2.60815H29.9836C29.2186 2.60815 28.4536 3.19662 28.1005 4.07932L25.3347 10.3759Z" fill="#0F145B"/>
<path d="M69.7053 23.6165H1.73706V18.6733C1.73706 14.8483 4.85594 11.7294 8.68099 11.7294H62.7614C66.5864 11.7294 69.7053 14.8483 69.7053 18.6733V23.6165Z" fill="#FFCDBD"/>
<path d="M69.7054 24.7935H1.73712C1.0898 24.7935 0.560181 24.2638 0.560181 23.6165V18.6734C0.560181 14.201 4.20868 10.5525 8.68105 10.5525H62.7614C67.2338 10.5525 70.8823 14.201 70.8823 18.6734V23.6165C70.8823 24.2638 70.3527 24.7935 69.7054 24.7935ZM2.91406 22.4396H68.5284V18.6734C68.5284 15.4956 65.9392 12.9064 62.7614 12.9064H8.68105C5.50332 12.9064 2.91406 15.4956 2.91406 18.6734V22.4396Z" fill="#0F145B"/>
<path d="M1.73706 49.2147H69.7053V54.1579C69.7053 57.9829 66.5864 61.1018 62.7614 61.1018H8.68099C4.85594 61.1018 1.73706 57.9829 1.73706 54.1579V49.2147Z" fill="#FFCDBD"/>
<path d="M62.7614 62.2788H8.68105C4.20868 62.2788 0.560181 58.6303 0.560181 54.1579V49.2148C0.560181 48.5675 1.0898 48.0378 1.73712 48.0378H69.7054C70.3527 48.0378 70.8823 48.5675 70.8823 49.2148V54.1579C70.8823 58.6303 67.2338 62.2788 62.7614 62.2788ZM2.91406 50.3917V54.1579C2.91406 57.3357 5.50332 59.9249 8.68105 59.9249H62.7614C65.9392 59.9249 68.5284 57.3357 68.5284 54.1579V50.3917H2.91406Z" fill="#0F145B"/>
<path d="M35.7504 53.6875C45.3055 53.6875 53.0515 45.9415 53.0515 36.3865C53.0515 26.8314 45.3055 19.0854 35.7504 19.0854C26.1954 19.0854 18.4495 26.8314 18.4495 36.3865C18.4495 45.9415 26.1954 53.6875 35.7504 53.6875Z" fill="#D7F1FF"/>
<path d="M35.7505 54.9232C25.57 54.9232 17.2726 46.6257 17.2726 36.4452C17.2726 26.2647 25.57 17.9673 35.7505 17.9673C45.931 17.9673 54.2285 26.2647 54.2285 36.4452C54.2285 46.6257 45.931 54.9232 35.7505 54.9232ZM35.7505 20.2623C26.8646 20.2623 19.6265 27.5005 19.6265 36.3864C19.6265 45.2723 26.8646 52.5104 35.7505 52.5104C44.6364 52.5104 51.8746 45.2723 51.8746 36.3864C51.8746 27.5005 44.6364 20.2623 35.7505 20.2623Z" fill="#0F145B"/>
<path d="M22.6863 37.5634C22.039 37.5634 21.5094 37.0338 21.5094 36.3865C21.6271 27.6772 28.3945 24.9114 28.6887 24.7937C29.2772 24.5583 29.9834 24.8525 30.2188 25.441C30.4542 26.0294 30.1599 26.7356 29.5714 26.971C29.3361 27.0887 23.981 29.266 23.8633 36.3865C23.8633 37.0927 23.3337 37.5634 22.6863 37.5634Z" fill="#0F145B"/>
</svg>
