<svg width="73" height="73" viewBox="0 0 73 73" fill="none" xmlns="http://www.w3.org/2000/svg">
<path d="M62.9984 71.457H9.15315C4.79755 71.457 1.26257 67.922 1.26257 63.5664V9.15303C1.26257 4.79743 4.79755 1.26245 9.15315 1.26245H62.9984C67.354 1.26245 70.889 4.79743 70.889 9.15303V63.5664C70.889 67.922 67.4171 71.457 62.9984 71.457Z" fill="#D7F1FF"/>
<path d="M62.9983 72.7196H9.15307C4.1031 72.7196 0 68.6165 0 63.5665V9.15307C0 4.1031 4.1031 0 9.15307 0H62.9983C68.0483 0 72.1514 4.1031 72.1514 9.15307V63.5665C72.1514 68.6165 68.0483 72.7196 62.9983 72.7196ZM9.15307 2.52498C5.49184 2.52498 2.52498 5.49184 2.52498 9.15307V63.5665C2.52498 67.2277 5.49184 70.1946 9.15307 70.1946H62.9983C66.6596 70.1946 69.6264 67.2277 69.6264 63.5665V9.15307C69.6264 5.49184 66.6596 2.52498 62.9983 2.52498H9.15307Z" fill="#0F145B"/>
<path d="M70.889 20.768H1.26257V9.15303C1.26257 4.79743 4.79755 1.26245 9.15315 1.26245H62.9984C67.354 1.26245 70.889 4.79743 70.889 9.15303V20.768Z" fill="#FFCDBD"/>
<path d="M70.8889 22.0305H1.26249C0.568122 22.0305 0 21.4624 0 20.768V9.15307C0 4.1031 4.1031 0 9.15307 0H62.9983C68.0483 0 72.1514 4.1031 72.1514 9.15307V20.7049C72.1514 21.4624 71.6464 22.0305 70.8889 22.0305ZM2.52498 19.5055H69.6264V9.15307C69.6264 5.49184 66.6596 2.52498 62.9983 2.52498H9.15307C5.49184 2.52498 2.52498 5.49184 2.52498 9.15307V19.5055Z" fill="#0F145B"/>
<path d="M11.4256 14.0138C13.2384 14.0138 14.708 12.5442 14.708 10.7313C14.708 8.91847 13.2384 7.44885 11.4256 7.44885C9.61269 7.44885 8.14307 8.91847 8.14307 10.7313C8.14307 12.5442 9.61269 14.0138 11.4256 14.0138Z" fill="#0F145B"/>
<path d="M21.4623 14.0138C23.2752 14.0138 24.7447 12.5442 24.7447 10.7313C24.7447 8.91847 23.2752 7.44885 21.4623 7.44885C19.6494 7.44885 18.1798 8.91847 18.1798 10.7313C18.1798 12.5442 19.6494 14.0138 21.4623 14.0138Z" fill="#0F145B"/>
<path d="M31.4992 14.0138C33.312 14.0138 34.7817 12.5442 34.7817 10.7313C34.7817 8.91847 33.312 7.44885 31.4992 7.44885C29.6863 7.44885 28.2167 8.91847 28.2167 10.7313C28.2167 12.5442 29.6863 14.0138 31.4992 14.0138Z" fill="#0F145B"/>
<path d="M29.7947 44.9449H13.0035C10.2892 44.9449 8.07983 42.7355 8.07983 40.0211V35.0974C8.07983 32.3831 10.2892 30.1737 13.0035 30.1737H29.7947C32.509 30.1737 34.7184 32.3831 34.7184 35.0974V40.0211C34.7816 42.7355 32.5722 44.9449 29.7947 44.9449Z" fill="#FFCDBD"/>
<path d="M29.7948 46.2074H13.0037C9.59498 46.2074 6.8175 43.4299 6.8175 40.0212V35.0975C6.8175 31.6887 9.59498 28.9113 13.0037 28.9113H29.7948C33.2036 28.9113 35.9811 31.6887 35.9811 35.0975V40.0212C36.0442 43.4299 33.2667 46.2074 29.7948 46.2074ZM13.0668 31.3731C11.0468 31.3731 9.4056 33.0144 9.4056 35.0343V39.9581C9.4056 41.9781 11.0468 43.6193 13.0668 43.6193H29.858C31.878 43.6193 33.5192 41.9781 33.5192 39.9581V35.0343C33.5192 33.0144 31.878 31.3731 29.858 31.3731H13.0668Z" fill="#0F145B"/>
<path d="M64.0715 46.2072H40.0841C39.3898 46.2072 38.8217 45.6391 38.8217 44.9447C38.8217 44.2504 39.3898 43.6823 40.0841 43.6823H64.0715C64.7659 43.6823 65.334 44.2504 65.334 44.9447C65.334 45.6391 64.7659 46.2072 64.0715 46.2072Z" fill="#0F145B"/>
<path d="M64.0715 53.593H8.39555C7.70118 53.593 7.13306 53.0249 7.13306 52.3305C7.13306 51.6361 7.70118 51.068 8.39555 51.068H64.0715C64.7658 51.068 65.334 51.6361 65.334 52.3305C65.334 53.0249 64.7658 53.593 64.0715 53.593Z" fill="#0F145B"/>
<path d="M64.0715 60.9784H8.39555C7.70118 60.9784 7.13306 60.4102 7.13306 59.7159C7.13306 59.0215 7.70118 58.4534 8.39555 58.4534H64.0715C64.7658 58.4534 65.334 59.0215 65.334 59.7159C65.334 60.4102 64.7658 60.9784 64.0715 60.9784Z" fill="#0F145B"/>
</svg>
