<svg width="19" height="17" viewBox="0 0 19 17" fill="none" xmlns="http://www.w3.org/2000/svg">
<path d="M18 8.4981C18 7.96163 17.8225 7.67551 17.5741 7.42515L12.2505 1.52393C11.6117 0.844391 10.618 0.844391 9.97912 1.41663C9.37578 1.98887 9.3048 3.06182 9.87265 3.70559L12.7474 6.88868L2.59708 6.88868C1.70981 6.88868 1 7.60398 1 8.4981C1 9.39223 1.70981 10.1075 2.59708 10.1075L12.8184 10.1075L9.94363 13.2906C9.37578 13.8986 9.44676 14.9716 10.0501 15.5796C10.6534 16.2233 11.7537 16.0803 12.3215 15.4723L17.6451 9.57106C17.8935 9.24917 18 9.03458 18 8.4981Z" fill="#FFCDBD" stroke="#0F145B" stroke-width="1.5" stroke-miterlimit="10" stroke-linecap="round" stroke-linejoin="round"/>
</svg>
