<svg width="258" height="330" viewBox="0 0 258 330" fill="none" xmlns="http://www.w3.org/2000/svg">
<g filter="url(#filter0_d)">
<path d="M150.808 112.213C149.257 116.425 144.495 118.622 140.282 117.07C136.068 115.518 133.869 110.758 135.419 106.547L149.983 66.9971C133.13 64.7418 116.484 73.7905 109.567 89.7491C105.511 99.0678 105.37 109.62 109.153 119.122C112.935 128.624 120.177 136.074 129.685 140.198C149.065 148.583 171.699 139.659 180.147 120.106C184.405 110.238 184.382 99.0017 179.867 89.2299C178.082 85.0378 179.835 80.2772 184.096 78.3114C188.289 76.5286 193.052 78.2826 195.02 82.5422C200.973 95.7544 201.315 110.643 196.393 124.01C196.056 124.925 195.719 125.841 195.382 126.756C183.466 154.597 151.077 167.413 123.221 155.492C109.751 149.7 99.3351 139.003 93.9511 125.376C88.5671 111.75 88.6585 96.8125 94.4482 83.3499C104.766 59.2869 130.618 46.1426 155.782 51.2506L164.345 27.997C126.338 18.7835 86.7308 39.3382 72.9086 76.8736L30.9027 190.944C16.0017 231.409 36.7922 276.077 77.0955 290.918C117.582 305.827 162.26 285.06 177.094 244.778L219.167 130.524C233.191 92.4398 215.709 50.6541 179.801 33.4806L150.808 112.213Z" fill="#FFCDBD"/>
</g>
<defs>
<filter id="filter0_d" x="0" y="0" width="257.935" height="329.835" filterUnits="userSpaceOnUse" color-interpolation-filters="sRGB">
<feFlood flood-opacity="0" result="BackgroundImageFix"/>
<feColorMatrix in="SourceAlpha" type="matrix" values="0 0 0 0 0 0 0 0 0 0 0 0 0 0 0 0 0 0 127 0"/>
<feOffset dx="4" dy="4"/>
<feGaussianBlur stdDeviation="4"/>
<feColorMatrix type="matrix" values="0 0 0 0 0 0 0 0 0 0 0 0 0 0 0 0 0 0 0.25 0"/>
<feBlend mode="normal" in2="BackgroundImageFix" result="effect1_dropShadow"/>
<feBlend mode="normal" in="SourceGraphic" in2="effect1_dropShadow" result="shape"/>
</filter>
</defs>
</svg>
