<svg width="94" height="69" viewBox="0 0 94 69" fill="none" xmlns="http://www.w3.org/2000/svg">
<path d="M58.1159 66.3674H9.31268C4.95104 66.3674 1.41455 62.831 1.41455 58.4693V9.19448C1.41455 4.83284 4.95104 1.29639 9.31268 1.29639H58.1159C62.4776 1.29639 66.0141 4.83284 66.0141 9.19448V58.4693C66.0141 62.831 62.4776 66.3674 58.1159 66.3674Z" fill="#D7F1FF"/>
<path d="M58.116 67.6645H9.31271C4.24376 67.6645 0.117859 63.5386 0.117859 58.4697V9.19481C0.117859 4.12587 4.24376 0 9.31271 0H58.116C63.1849 0 67.3108 4.12587 67.3108 9.19481V58.4697C67.3108 63.5386 63.1849 67.6645 58.116 67.6645ZM9.31271 2.47554C5.65835 2.47554 2.5934 5.42257 2.5934 9.19481V58.4697C2.5934 62.124 5.54047 65.1889 9.31271 65.1889H58.116C61.7703 65.1889 64.8353 62.2419 64.8353 58.4697V9.19481C64.8353 5.54046 61.8882 2.47554 58.116 2.47554H9.31271Z" fill="#0F145B"/>
<path d="M66.0141 16.3853H1.29669V9.19448C1.29669 4.83284 4.83318 1.29639 9.19483 1.29639H57.9981C62.3598 1.29639 65.8963 4.83284 65.8963 9.19448V16.3853H66.0141Z" fill="#FFCDBD"/>
<path d="M66.0141 17.6824H1.29671C0.589419 17.6824 0 17.0929 0 16.3856V9.19481C0 4.12587 4.1259 0 9.19485 0H57.9981C63.0671 0 67.193 4.12587 67.193 9.19481V16.3856C67.3108 17.0929 66.7214 17.6824 66.0141 17.6824ZM2.59343 15.0889H64.7175V9.19481C64.7175 5.54046 61.7704 2.47554 57.9981 2.47554H9.19485C5.54049 2.47554 2.47554 5.42257 2.47554 9.19481V15.0889H2.59343Z" fill="#0F145B"/>
<path d="M10.8451 11.9053C12.5378 11.9053 13.91 10.5331 13.91 8.84034C13.91 7.14762 12.5378 5.77539 10.8451 5.77539C9.15238 5.77539 7.78015 7.14762 7.78015 8.84034C7.78015 10.5331 9.15238 11.9053 10.8451 11.9053Z" fill="#0F145B"/>
<path d="M20.0399 11.9053C21.7326 11.9053 23.1048 10.5331 23.1048 8.84034C23.1048 7.14762 21.7326 5.77539 20.0399 5.77539C18.3472 5.77539 16.975 7.14762 16.975 8.84034C16.975 10.5331 18.3472 11.9053 20.0399 11.9053Z" fill="#0F145B"/>
<path d="M29.4704 11.9053C31.1632 11.9053 32.5354 10.5331 32.5354 8.84034C32.5354 7.14762 31.1632 5.77539 29.4704 5.77539C27.7777 5.77539 26.4055 7.14762 26.4055 8.84034C26.4055 10.5331 27.7777 11.9053 29.4704 11.9053Z" fill="#0F145B"/>
<path d="M90.18 45.5018H89.8263C87.2329 45.5018 85.9362 42.4368 87.8223 40.5507L88.0581 40.315C88.6475 39.7256 88.6475 38.5467 88.0581 37.9573L85.111 35.0103C84.5216 34.4208 83.3428 34.4208 82.7534 35.0103L82.5176 35.246C80.6315 37.1321 77.5665 35.7176 77.5665 33.242V32.8884C77.5665 31.9453 76.8592 31.1201 75.7983 31.1201H71.6724C70.7294 31.1201 69.9042 31.8274 69.9042 32.8884V33.242C69.9042 35.8354 66.8393 37.1321 64.9532 35.246L64.7174 35.0103C64.128 34.4208 62.9492 34.4208 62.3597 35.0103L59.4127 37.9573C58.8233 38.5467 58.8233 39.7256 59.4127 40.315L59.6485 40.5507C61.5346 42.4368 60.12 45.5018 57.6445 45.5018H57.2908C56.3478 45.5018 55.5226 46.2091 55.5226 47.27V51.3959C55.5226 52.339 56.2299 53.1641 57.2908 53.1641H57.6445C60.2379 53.1641 61.5346 56.2291 59.6485 58.1152L59.5305 58.351C58.9411 58.9404 58.9411 60.1192 59.5305 60.7086L62.4776 63.6557C63.067 64.2451 64.2458 64.2451 64.8352 63.6557L65.071 63.4199C66.9571 61.5338 70.0221 62.9484 70.0221 65.4239V65.7775C70.0221 66.7206 70.7294 67.5458 71.7903 67.5458H75.9162C76.8593 67.5458 77.6845 66.8385 77.6845 65.7775V65.4239C77.6845 62.8305 80.7494 61.5338 82.6355 63.4199L82.8712 63.6557C83.4606 64.2451 84.6395 64.2451 85.2289 63.6557L88.1759 60.7086C88.7654 60.1192 88.7654 58.9404 88.1759 58.351L87.9402 58.1152C86.0541 56.2291 87.4686 53.1641 89.9442 53.1641H90.2979C91.2409 53.1641 92.0661 52.4568 92.0661 51.3959V47.1521C91.9482 46.2091 91.123 45.5018 90.18 45.5018Z" fill="#FFCDBD"/>
<path d="M75.9162 68.6075H71.7903C70.14 68.6075 68.8433 67.3108 68.8433 65.6605V65.3068C68.8433 64.2459 68.0181 63.7744 67.1929 63.7744C66.8392 63.7744 66.4856 63.8922 66.0141 64.2459L65.7783 64.4817C65.1889 65.0711 64.4816 65.4247 63.6564 65.4247C62.8312 65.4247 62.124 65.0711 61.5346 64.4817L58.5875 61.5346C57.9981 60.9452 57.6444 60.2379 57.6444 59.4127C57.6444 58.5875 57.9981 57.8802 58.5875 57.2908L58.8233 57.0551C59.5306 56.3478 59.2948 55.5226 59.1769 55.2868C59.059 55.0511 58.7054 54.2259 57.7623 54.2259H57.4087C55.7583 54.2259 54.4616 52.9292 54.4616 51.2788V47.1529C54.4616 45.5026 55.7583 44.2059 57.4087 44.2059H57.7623C58.8232 44.2059 59.1769 43.4986 59.1769 43.1449C59.2948 42.9092 59.5306 42.084 58.8233 41.3767L58.5875 41.1409C57.9981 40.5515 57.6444 39.8442 57.6444 39.0191C57.6444 38.1939 57.9981 37.4866 58.5875 36.8972L61.5346 33.9501C62.124 33.3607 62.8312 33.0071 63.6564 33.0071C64.4816 33.0071 65.1889 33.3607 65.7783 33.9501L66.0141 34.1859C66.3677 34.5395 66.8392 34.6574 67.1929 34.6574C68.0181 34.6574 68.8433 34.068 68.8433 33.1249V32.7713C68.8433 31.1209 70.14 29.8242 71.7903 29.8242H75.9162C77.5666 29.8242 78.8633 31.1209 78.8633 32.7713V33.1249C78.8633 33.7144 79.099 34.068 79.3348 34.3038C79.6884 34.6574 80.0421 34.7753 80.5136 34.7753C80.8672 34.7753 81.2209 34.6574 81.6924 34.3038L81.9282 34.068C82.5176 33.4786 83.2249 33.1249 84.0501 33.1249C84.7573 33.1249 85.5826 33.4786 86.172 34.068L89.1191 37.0151C89.7085 37.6045 90.0621 38.3118 90.0621 39.137C90.0621 39.9621 89.7085 40.6694 89.1191 41.2588L88.8833 41.4946C88.176 42.2019 88.4118 43.0271 88.5296 43.2628C88.6475 43.4986 89.0011 44.3238 89.9442 44.3238H90.2979C91.9482 44.3238 93.2449 45.6205 93.2449 47.2708V51.3967C93.2449 53.0471 91.9482 54.3438 90.2979 54.3438H89.9442C88.8832 54.3438 88.5296 55.0511 88.5296 55.4047C88.4118 55.6405 88.176 56.4656 88.8833 57.1729L89.1191 57.4087C89.7085 57.9981 90.0621 58.7054 90.0621 59.5306C90.0621 60.2379 89.7085 61.063 89.1191 61.6525L86.172 64.5995C85.5826 65.1889 84.8752 65.5426 84.0501 65.5426C83.2249 65.5426 82.5176 65.1889 81.9282 64.5995L81.6924 64.3638C81.3388 64.0101 80.8672 63.8923 80.5136 63.8923C79.6884 63.8923 78.8633 64.4817 78.8633 65.4247V65.7783C78.8633 67.3108 77.5666 68.6075 75.9162 68.6075ZM67.075 61.1809C69.3148 61.1809 71.3188 63.0671 71.3188 65.3068V65.6605C71.3188 65.8963 71.5546 66.132 71.7903 66.132H75.9162C76.152 66.132 76.3877 65.8963 76.3877 65.6605V65.3068C76.3877 63.0671 78.2739 61.1809 80.6315 61.1809C81.6925 61.1809 82.7534 61.6525 83.5786 62.3598L83.8143 62.5955C83.9322 62.7134 84.0501 62.7134 84.168 62.7134C84.2859 62.7134 84.4037 62.7134 84.5216 62.5955L87.4687 59.6485C87.5866 59.5306 87.5865 59.4127 87.5865 59.2948C87.5865 59.1769 87.5866 59.0591 87.4687 58.9412L87.2329 58.7054C86.0541 57.5266 85.7004 55.7584 86.2898 54.2259C86.8793 52.6934 88.4117 51.6325 90.0621 51.6325H90.4157C90.6515 51.6325 90.8873 51.3967 90.8873 51.1609V47.1529C90.8873 46.9172 90.6515 46.6814 90.4157 46.6814H90.0621C88.2939 46.6814 86.8793 45.7383 86.2898 44.088C85.7004 42.5555 85.9362 40.7873 87.2329 39.6085L87.4687 39.3727C87.5866 39.2548 87.5865 39.1369 87.5865 39.0191C87.5865 38.9012 87.5866 38.7833 87.4687 38.6654L84.5216 35.7183C84.4037 35.6005 84.2859 35.6005 84.168 35.6005C84.0501 35.6005 83.9322 35.6005 83.8143 35.7183L83.5786 35.9541C82.8713 36.6614 81.6925 37.1329 80.6315 37.1329C79.5706 37.1329 78.5096 36.7793 77.8023 35.9541C76.9771 35.2468 76.5056 34.068 76.5056 32.8892V32.5355C76.5056 32.2998 76.2698 32.064 76.0341 32.064H71.9082C71.6724 32.064 71.4367 32.2998 71.4367 32.5355V32.8892C71.4367 35.1289 69.5505 37.0151 67.1929 37.0151C66.1319 37.0151 65.071 36.5435 64.2458 35.8362L64.0101 35.6005C63.8922 35.4826 63.7743 35.4826 63.6564 35.4826C63.5385 35.4826 63.4207 35.4826 63.3028 35.6005L60.3557 38.5475C60.2378 38.6654 60.2379 38.7833 60.2379 38.9012C60.2379 39.0191 60.2378 39.1369 60.3557 39.2548L60.5915 39.4906C61.7703 40.6694 62.124 42.4376 61.5346 43.9701C60.9451 45.5026 59.4127 46.5635 57.7623 46.5635H57.4087C57.1729 46.5635 56.9371 46.7993 56.9371 47.0351V51.1609C56.9371 51.3967 57.1729 51.6325 57.4087 51.6325H57.7623C59.5305 51.6325 60.9451 52.5755 61.5346 54.2259C62.124 55.7584 61.8882 57.5266 60.5915 58.7054L60.3557 58.9412C60.2378 59.0591 60.2379 59.1769 60.2379 59.2948C60.2379 59.4127 60.2378 59.5306 60.3557 59.6485L63.3028 62.5955C63.4207 62.7134 63.5385 62.7134 63.6564 62.7134C63.7743 62.7134 63.8922 62.7134 64.0101 62.5955L64.2458 62.3598C65.071 61.5346 66.0141 61.1809 67.075 61.1809Z" fill="#0F145B"/>
<path d="M73.7941 56.347C77.7655 56.347 80.9849 53.1275 80.9849 49.1562C80.9849 45.1848 77.7655 41.9653 73.7941 41.9653C69.8227 41.9653 66.6032 45.1848 66.6032 49.1562C66.6032 53.1275 69.8227 56.347 73.7941 56.347Z" fill="white"/>
<path d="M73.7942 57.6445C69.1968 57.6445 65.3067 53.8723 65.3067 49.157C65.3067 44.5596 69.079 40.6694 73.7942 40.6694C78.3917 40.6694 82.2817 44.4417 82.2817 49.157C82.2817 53.8723 78.5095 57.6445 73.7942 57.6445ZM73.7942 43.2629C70.4935 43.2629 67.9001 45.9742 67.9001 49.157C67.9001 52.4577 70.6114 55.0511 73.7942 55.0511C76.9771 55.0511 79.6884 52.3398 79.6884 49.157C79.6884 45.9742 77.095 43.2629 73.7942 43.2629Z" fill="#0F145B"/>
<path d="M48.6852 39.0179H18.7431C17.0928 39.0179 15.7961 37.7212 15.7961 36.0709V26.9939C15.7961 25.3436 17.0928 24.0469 18.7431 24.0469H48.6852C50.3356 24.0469 51.6323 25.3436 51.6323 26.9939V36.0709C51.5144 37.7212 50.2177 39.0179 48.6852 39.0179Z" fill="#D7F1FF"/>
<path d="M48.6853 40.1968H18.7432C16.3856 40.1968 14.4995 38.3107 14.4995 35.953V26.8761C14.4995 24.5184 16.3856 22.6323 18.7432 22.6323H48.6853C51.0429 22.6323 52.9291 24.5184 52.9291 26.8761V35.953C52.8112 38.4285 50.9251 40.1968 48.6853 40.1968ZM18.7432 25.3436C17.8002 25.3436 17.0928 26.0509 17.0928 26.994V36.0709C17.0928 37.014 17.8002 37.7213 18.7432 37.7213H48.6853C49.6284 37.7213 50.3357 37.014 50.3357 36.0709V26.994C50.3357 26.0509 49.6284 25.3436 48.6853 25.3436H18.7432Z" fill="#0F145B"/>
<path d="M51.5145 48.8024H15.7962C15.0889 48.8024 14.4995 48.213 14.4995 47.5057C14.4995 46.7984 15.0889 46.209 15.7962 46.209H51.5145C52.2218 46.209 52.8112 46.7984 52.8112 47.5057C52.8112 48.213 52.2218 48.8024 51.5145 48.8024Z" fill="#0F145B"/>
<path d="M51.5145 57.4089H15.7962C15.0889 57.4089 14.4995 56.8194 14.4995 56.1121C14.4995 55.4048 15.0889 54.8154 15.7962 54.8154H51.5145C52.2218 54.8154 52.8112 55.4048 52.8112 56.1121C52.8112 56.8194 52.2218 57.4089 51.5145 57.4089Z" fill="#0F145B"/>
</svg>
