<svg width="86" height="22" viewBox="0 0 86 22" fill="none" xmlns="http://www.w3.org/2000/svg">
<path d="M66.6307 10.2564C66.3734 11.8861 65.1297 11.8861 63.886 11.8861H63.1998L63.6716 8.79826C63.7145 8.62671 63.8431 8.45517 64.0575 8.45517H64.3577C65.1726 8.45517 65.9874 8.45517 66.3734 8.92692C66.6307 9.27 66.7165 9.69887 66.6307 10.2564ZM66.1161 5.96777H61.5273C61.2271 5.96777 60.9269 6.1822 60.884 6.52529L59.0399 18.2761C58.997 18.4905 59.1685 18.6621 59.3401 18.705H59.383H61.7417C61.9561 18.705 62.1277 18.5334 62.1706 18.319L62.6852 14.9739C62.7281 14.6737 62.9854 14.4163 63.3285 14.4163H64.7866C67.7886 14.4163 69.547 12.9582 70.0187 10.042C70.2331 8.75537 70.0187 7.76899 69.4183 7.08281C68.775 6.35375 67.66 5.96777 66.1161 5.96777Z" fill="white"/>
<path d="M33.9081 10.2564C33.6507 11.8861 32.407 11.8861 31.1634 11.8861H30.4772L30.9489 8.79826C30.9918 8.62671 31.1205 8.45517 31.3349 8.45517H31.6351C32.4499 8.45517 33.2648 8.45517 33.6507 8.92691C33.9081 9.27 33.9938 9.69887 33.9081 10.2564ZM33.3934 5.96777H28.8046C28.5044 5.96777 28.2042 6.1822 28.1613 6.52529L26.3172 18.2761C26.2743 18.4905 26.4459 18.6621 26.6174 18.705H26.6603H28.8475C29.1477 18.705 29.4479 18.4905 29.4908 18.1474L30.0054 14.9739C30.0483 14.6737 30.3056 14.4163 30.6487 14.4163H32.1068C35.1089 14.4163 36.8672 12.9582 37.339 10.042C37.5534 8.75537 37.339 7.76899 36.7385 7.08281C36.0524 6.35375 34.8944 5.96777 33.3934 5.96777ZM44.0292 14.5021C43.8148 15.7458 42.8284 16.6035 41.5418 16.6035C40.8985 16.6035 40.3839 16.3891 40.0837 16.0031C39.7406 15.6171 39.6548 15.0596 39.7406 14.4592C39.955 13.2155 40.9414 12.3578 42.1851 12.3578C42.8284 12.3578 43.3001 12.5722 43.6432 12.9582C43.9863 13.3013 44.115 13.8588 44.0292 14.5021ZM47.0741 10.2135H44.8869C44.7154 10.2135 44.5438 10.3422 44.5009 10.5566L44.4152 11.157L44.2436 10.9426C43.7719 10.2564 42.6997 10.042 41.6276 10.042C39.1831 10.042 37.1245 11.8861 36.7385 14.4592C36.5241 15.7458 36.8243 16.9895 37.5534 17.8472C38.2396 18.6192 39.1831 18.9623 40.341 18.9623C42.3137 18.9623 43.3859 17.7186 43.3859 17.7186L43.3001 18.319C43.2572 18.5334 43.4288 18.705 43.6003 18.7478H43.6432H45.616C45.9162 18.7478 46.2164 18.5334 46.2593 18.1903L47.4601 10.6852C47.503 10.4708 47.3314 10.2993 47.1599 10.2564C47.117 10.2135 47.117 10.2135 47.0741 10.2135Z" fill="white"/>
<path d="M76.753 14.5012C76.5386 15.7449 75.5522 16.6026 74.2656 16.6026C73.6223 16.6026 73.1077 16.3882 72.8075 16.0022C72.4644 15.6162 72.3786 15.0587 72.4644 14.4583C72.6788 13.2146 73.6652 12.3569 74.9089 12.3569C75.5522 12.3569 76.0239 12.5713 76.367 12.9573C76.7101 13.3004 76.8388 13.8579 76.753 14.5012ZM79.7979 10.2126H77.6107C77.4392 10.2126 77.2676 10.3412 77.2247 10.5556L77.139 11.1561L76.9674 10.9416C76.4957 10.2554 75.4235 10.041 74.3514 10.041C71.9068 10.041 69.8483 11.8851 69.4623 14.4583C69.2479 15.7449 69.5481 16.9886 70.2772 17.8463C70.9633 18.6182 71.9068 18.9613 73.0648 18.9613C75.0375 18.9613 76.1097 17.7176 76.1097 17.7176L76.0239 18.318C75.981 18.5325 76.1526 18.704 76.3241 18.7469H76.367H78.3398C78.64 18.7469 78.9402 18.5325 78.9831 18.1894L80.1839 10.6843C80.2268 10.4699 80.0552 10.2983 79.8837 10.2554C79.8408 10.2126 79.8408 10.2126 79.7979 10.2126Z" fill="white"/>
<path d="M58.783 10.2128H56.5529C56.3385 10.2128 56.124 10.2986 56.0383 10.513L52.9934 14.9732L51.7068 10.6417C51.621 10.3844 51.3637 10.1699 51.1064 10.1699H48.9192C48.7047 10.1699 48.5332 10.3415 48.5332 10.5559C48.5332 10.5988 48.5332 10.6417 48.5332 10.6846L50.9777 17.8037L48.7047 21.063C48.5761 21.2345 48.619 21.4919 48.7905 21.5776C48.8763 21.6205 48.9192 21.6634 49.005 21.6634H51.1921C51.4066 21.6634 51.5781 21.5776 51.7068 21.4061L59.0403 10.8132C59.169 10.6417 59.1261 10.3844 58.9545 10.2986C58.9545 10.2128 58.8688 10.2128 58.783 10.2128Z" fill="white"/>
<path d="M82.4132 6.26789L80.5262 18.2331C80.4833 18.4476 80.6549 18.6191 80.8264 18.662H80.8693H82.7563C83.0565 18.662 83.3567 18.4476 83.3996 18.1045L85.2437 6.35367C85.2866 6.13924 85.115 5.96769 84.9435 5.9248H84.9006H82.7992C82.5847 5.96769 82.4561 6.09635 82.4132 6.26789Z" fill="white"/>
<path d="M16.4113 1.89334C15.4249 0.778305 13.6237 0.263672 11.3507 0.263672H4.70335C4.2316 0.263672 3.84563 0.606762 3.75986 1.07851L0.972262 18.6189C0.929375 18.9191 1.1438 19.2193 1.444 19.2622C1.48688 19.2622 1.48689 19.2622 1.52978 19.2622H5.64685L6.67611 12.7435L7.79115 5.71021L6.67611 12.7864L6.63322 13.0008C6.71899 12.5291 7.10497 12.186 7.57672 12.186H9.5066C13.3235 12.186 16.3255 10.6421 17.2261 6.13907C17.269 6.01041 17.269 5.88175 17.3119 5.7531C17.5692 4.08054 17.3119 2.92261 16.4113 1.89334ZM16.883 5.53866C16.8401 5.53866 16.7972 5.49578 16.7543 5.49578C16.7972 5.49578 16.8401 5.53866 16.883 5.53866ZM14.8674 5.1098C15.0818 5.1098 15.2962 5.15269 15.5107 5.19558C15.6393 5.19558 15.7251 5.23846 15.8537 5.28135C15.7251 5.23846 15.6393 5.23846 15.5107 5.19558C15.3391 5.15269 15.1247 5.1098 14.8674 5.1098Z" fill="white"/>
<path opacity="0.5" d="M18.2551 6.43974C17.9978 6.13954 17.6547 5.88222 17.3116 5.71067C17.0972 5.58202 16.8399 5.49624 16.5825 5.41047C16.4968 5.41047 16.4539 5.36759 16.3681 5.36759C16.2394 5.3247 16.1108 5.28181 15.9392 5.28181C15.8106 5.23893 15.639 5.23893 15.5104 5.19604C14.9957 5.11027 14.3953 5.06738 13.7949 5.06738H8.60571C8.17685 5.06738 7.83377 5.36759 7.79088 5.75356L6.67584 12.7869L6.63295 13.0013L5.64657 19.3485L5.34637 21.1497C5.30348 21.407 5.47502 21.6643 5.77523 21.7072C5.81811 21.7072 5.81812 21.7072 5.861 21.7072H9.33478C9.76364 21.7072 10.1067 21.407 10.1496 21.021L10.1925 20.8495L10.8358 16.7324L10.8787 16.518C10.9216 16.132 11.3075 15.8318 11.6935 15.8318H12.2081C15.5533 15.8318 18.1693 14.4594 18.9413 10.5139C19.2415 8.79848 19.1128 7.42612 18.2551 6.43974Z" fill="#CFD0D1"/>
</svg>
