<svg width="57" height="67" viewBox="0 0 57 67" fill="none" xmlns="http://www.w3.org/2000/svg">
<path d="M53.0998 8.77415L47.4381 3.07955C44.9538 0.580904 40.9097 0.580904 38.4254 3.07955L33.5725 7.96063L48.2469 22.662L53.0998 17.7809C55.5841 15.2823 55.5841 11.2728 53.0998 8.77415Z" fill="#FFCDBD"/>
<path d="M48.2469 23.8243C47.958 23.8243 47.6692 23.7081 47.4381 23.4757L32.7637 8.71622C32.3015 8.25135 32.3015 7.55405 32.7637 7.08919L37.6166 2.20811C39.061 0.755405 40.9097 0 42.9318 0C44.9538 0 46.8026 0.813513 48.2469 2.20811L53.9087 7.9027C55.353 9.35541 56.104 11.2149 56.104 13.2486C56.104 15.2824 55.2952 17.1419 53.9087 18.5946L49.0557 23.4757C48.8246 23.7081 48.5358 23.8243 48.2469 23.8243ZM35.2479 7.96081L48.2469 21.0351L52.291 16.9676C53.2732 15.9797 53.7931 14.6432 53.7931 13.2486C53.7931 11.8541 53.2732 10.5176 52.291 9.52973L46.6292 3.83514C45.6471 2.8473 44.3183 2.32432 42.9318 2.32432C41.5452 2.32432 40.2164 2.8473 39.2343 3.83514L35.2479 7.96081Z" fill="#0F145B"/>
<path d="M33.5725 7.90234L5.14817 36.4915L1.21959 52.9361C0.872954 54.2726 2.08619 55.4929 3.41497 55.1442L19.7648 51.1929L48.2469 22.6618L33.5725 7.90234Z" fill="#D7F1FF"/>
<path d="M3.01054 56.4227C2.08617 56.4227 1.21958 56.0159 0.64185 55.2605C0.0641192 54.5632 -0.1092 53.5754 0.0641192 52.7037L3.99269 36.2591C4.05047 36.0267 4.16601 35.8524 4.28156 35.7362L32.7059 7.14699C33.1681 6.68212 33.8614 6.68212 34.3236 7.14699L48.998 21.9064C49.229 22.1389 49.3446 22.4294 49.3446 22.72C49.3446 23.0105 49.229 23.301 48.998 23.5335L20.5736 52.1227C20.4003 52.297 20.2269 52.3551 20.0536 52.4132L3.70383 56.3646C3.47274 56.4227 3.24164 56.4227 3.01054 56.4227ZM6.18807 37.1308L2.37504 53.2848C2.31727 53.5754 2.43282 53.7497 2.49059 53.8659C2.66391 54.0983 2.895 54.1564 3.18386 54.0983L19.2448 50.2632L46.5715 22.6619L33.5725 9.58753L6.18807 37.1308Z" fill="#0F145B"/>
<path d="M13.0053 44.5106C12.7164 44.5106 12.4276 44.3944 12.1965 44.162C11.7343 43.6971 11.7343 42.9998 12.1965 42.535L39.5809 14.9917C40.0431 14.5269 40.7364 14.5269 41.1986 14.9917C41.6608 15.4566 41.6608 16.1539 41.1986 16.6187L13.8141 44.162C13.6408 44.3944 13.2942 44.5106 13.0053 44.5106Z" fill="#0F145B"/>
<path d="M12.832 44.685C12.3698 44.685 11.9654 44.4526 11.7921 43.9877L9.36561 38.758C9.13451 38.235 8.55679 37.8283 7.97905 37.8283L5.03262 37.712C4.39712 37.712 3.87716 37.131 3.93493 36.4918C3.93493 35.8526 4.51267 35.3296 5.14817 35.3877L8.0946 35.5039C9.53893 35.562 10.8677 36.4337 11.5032 37.7702L13.9297 42.9999C14.2186 43.581 13.9297 44.2783 13.352 44.5688C13.1786 44.6269 13.0053 44.685 12.832 44.685Z" fill="#0F145B"/>
<path d="M19.7647 52.4133C19.1292 52.4133 18.6093 51.9484 18.6093 51.3092L18.4937 48.3457C18.4937 47.7646 18.0893 47.1835 17.5694 46.9511L12.3698 44.5106C11.792 44.22 11.561 43.5227 11.792 42.9416C12.0809 42.3606 12.7164 42.1281 13.3519 42.3606L18.5515 44.8011C19.8803 45.4403 20.7469 46.7187 20.8046 48.2295L20.9202 51.193C20.978 51.8903 20.458 52.4133 19.7647 52.4133C19.8225 52.4133 19.8225 52.4133 19.7647 52.4133Z" fill="#0F145B"/>
<path d="M2.54839 47.3579L1.27738 52.7039C0.98851 54.0403 2.37507 55.4349 3.70385 55.1444L9.01897 53.866L2.54839 47.3579Z" fill="#FFCDBD"/>
<path d="M3.29942 56.3648C2.37505 56.3648 1.39291 55.9 0.757411 55.0864C0.179681 54.331 -0.0514151 53.3432 0.121904 52.4716L1.39292 47.1256C1.50846 46.7189 1.79733 46.3702 2.20174 46.254C2.60615 46.1378 3.01056 46.254 3.3572 46.5445L9.82778 53.0527C10.1166 53.3432 10.2322 53.8081 10.1166 54.2148C10.0011 54.6216 9.65446 54.9121 9.25005 55.0283L3.93493 56.3067C3.70384 56.3067 3.53051 56.3648 3.29942 56.3648ZM3.18388 49.6824L2.37506 53.0527C2.31728 53.227 2.37506 53.4594 2.54838 53.6918C2.77947 53.9824 3.12611 54.1567 3.3572 54.0986L6.70804 53.2851L3.18388 49.6824Z" fill="#0F145B"/>
<path d="M35.999 66.1855H26.4664C25.8309 66.1855 25.3109 65.6625 25.3109 65.0233C25.3109 64.3841 25.8309 63.8611 26.4664 63.8611H35.999C37.6744 63.8611 39.1765 62.9314 39.1765 61.8855C39.1765 60.8395 37.6744 59.9098 35.999 59.9098H10.0588C9.42334 59.9098 8.90338 59.3868 8.90338 58.7476C8.90338 58.1084 9.42334 57.5854 10.0588 57.5854H35.999C39.0609 57.5854 41.4874 59.503 41.4874 61.8855C41.4874 64.326 39.0609 66.1855 35.999 66.1855Z" fill="#0F145B"/>
</svg>
