<svg width="87" height="62" viewBox="0 0 87 62" fill="none" xmlns="http://www.w3.org/2000/svg">
<path d="M72.3319 35.5041L72.5052 35.5622L60.1418 15.7473L59.3908 16.0378C52.6313 17.6649 49.6849 13.6554 45.4097 11.8541C41.1345 10.0527 36.0504 14.8757 36.0504 14.8757L32.1219 17.4324C32.1219 17.4324 29.2332 16.5027 26.6334 15.2824L16.2343 33.5865L30.3887 50.3797L32.584 52.0068C32.8151 52.1811 33.0462 52.3554 33.2773 52.4716L46.6229 59.9095C48.876 61.1878 51.7069 60.3743 52.9779 58.1081C54.2489 55.8419 53.4401 52.9946 51.187 51.7162L55.6355 54.2149C57.6576 55.3189 60.1996 54.6216 61.355 52.5878C62.4527 50.6122 61.7594 48.1135 59.8529 46.9514L62.9149 48.6365C64.937 49.7405 67.479 49.0432 68.6344 47.0095C69.6744 45.0919 69.0966 42.7095 67.3634 41.4892C69.2699 42.4189 71.5231 41.6635 72.563 39.8041C73.3718 38.4095 73.2563 36.7243 72.3319 35.5041Z" fill="#FFCDBD"/>
<path d="M48.9338 61.6527C47.9517 61.6527 46.9695 61.4203 46.1029 60.8973L32.7573 53.4595C32.4685 53.2852 32.1796 53.1108 31.8907 52.8784L29.6954 51.2514C29.6376 51.1933 29.5798 51.1351 29.522 51.077L15.3676 34.2838C15.0788 33.9352 15.021 33.3541 15.2521 32.9473L25.6512 14.6433C25.9401 14.1203 26.5756 13.8879 27.1533 14.1784C29.0021 15.05 31.0819 15.8054 32.0063 16.096L35.4149 13.8879C36.0504 13.3068 39.5746 10.2271 43.3876 10.2271C44.2542 10.2271 45.1208 10.4014 45.8718 10.75C47.1428 11.273 48.2405 11.9703 49.3382 12.6676C51.4758 14.0041 53.4979 15.2243 56.3865 15.2243C57.1954 15.2243 58.1197 15.1081 59.0441 14.8757L59.7374 14.5852C60.2573 14.3527 60.8351 14.5852 61.1239 15.05L73.3718 34.7487C73.5451 34.923 73.6029 35.1554 73.6607 35.446C74.4695 36.9568 74.4117 38.8162 73.6029 40.3852C72.8519 41.7797 71.4653 42.7095 69.9632 43C70.5409 44.4527 70.4832 46.1379 69.6743 47.5906C68.75 49.2757 66.959 50.3797 64.9947 50.3797C64.3592 50.3797 63.6659 50.2635 63.0882 50.0311C63.2038 51.077 62.9727 52.1811 62.4527 53.227C61.5283 54.9122 59.7374 56.0162 57.7731 56.0162C56.8487 56.0162 55.9821 55.7838 55.1733 55.3189L54.7689 55.0865C54.9422 56.3068 54.7111 57.5852 54.0756 58.7473C53.0357 60.4906 51.0714 61.6527 48.9338 61.6527ZM31.1975 49.5081L33.3351 51.077C33.3351 51.077 33.3929 51.077 33.3929 51.1352C33.5662 51.3095 33.7395 51.4257 33.9128 51.4838L47.2584 58.9216C47.7784 59.2122 48.3561 59.3865 48.9338 59.3865C50.2048 59.3865 51.418 58.6892 51.9958 57.5852C52.9201 55.9 52.3424 53.75 50.667 52.8203C50.0893 52.5297 49.9159 51.7743 50.2048 51.2514C50.4937 50.6703 51.2447 50.496 51.7647 50.7865L56.2132 53.2851C56.6754 53.5176 57.1954 53.6919 57.6575 53.6919C58.7552 53.6919 59.7951 53.1108 60.3151 52.123C61.1239 50.6703 60.6617 48.8689 59.2174 48.0554C58.6974 47.7068 58.5241 47.0095 58.813 46.4865C59.1019 45.9635 59.7951 45.7311 60.3729 46.0797L63.4349 47.7649C63.897 47.9973 64.417 48.1716 64.8792 48.1716C65.9769 48.1716 67.0168 47.5906 67.5367 46.6027C68.2878 45.2081 67.8834 43.523 66.6124 42.6514C66.0924 42.3027 65.9769 41.6635 66.2657 41.1406C66.5546 40.6176 67.1901 40.4433 67.7678 40.6757C68.1722 40.85 68.5766 40.9662 68.9811 40.9662C70.021 40.9662 70.9454 40.3852 71.4653 39.5135C71.9853 38.5257 71.9275 37.3054 71.292 36.4338C71.1764 36.2595 71.0609 36.027 71.0609 35.8527L59.564 17.3743C58.4086 17.6649 57.3687 17.7811 56.3288 17.7811C52.8046 17.7811 50.3781 16.2703 48.0672 14.8757C47.0273 14.2365 45.9874 13.5973 44.8897 13.1325C44.4275 12.9 43.8498 12.8419 43.272 12.8419C40.6145 12.8419 37.6681 15.1081 36.8015 15.9798C36.7437 16.0379 36.6859 16.096 36.6281 16.096L32.6996 18.6527C32.4107 18.827 32.0641 18.8852 31.7174 18.7689C31.6019 18.7108 29.4065 18.0135 27.0956 17.0257L17.6786 33.4122L31.1975 49.5081Z" fill="#0F145B"/>
<path d="M1.1554 5.22973V23.3595C1.1554 25.9162 2.48418 28.2987 4.67956 29.577L8.31926 31.727L9.01254 30.4487L12.4789 32.5987C14.1544 33.6446 16.3497 33.0635 17.3319 31.3784L25.0735 17.7811C26.0556 16.096 25.4201 13.8878 23.6869 12.9581L20.7405 11.3892L21.5493 9.9946L7.22157 1.62703C4.50624 0.174328 1.1554 2.09189 1.1554 5.22973Z" fill="#D7F1FF"/>
<path d="M14.27 34.3419C13.4034 34.3419 12.5368 34.1095 11.8435 33.6446L9.41703 32.1338L9.30148 32.3662C9.12816 32.6568 8.89706 32.8311 8.60819 32.8892C8.31933 32.9473 7.97269 32.9473 7.74159 32.773L4.10189 30.623C1.55988 29.1122 0 26.323 0 23.4176V5.22973C0 2.32432 2.31092 0 5.19958 0C6.12395 0 6.99055 0.232433 7.79937 0.697298L22.1271 9.06487C22.416 9.23919 22.5893 9.47162 22.6471 9.76216C22.7048 10.0527 22.6471 10.4014 22.5315 10.6338L22.3582 10.9824L24.2069 11.9703C25.3046 12.5514 26.1135 13.5392 26.4601 14.7595C26.8067 15.9797 26.6334 17.2581 26.0557 18.3622L18.3141 31.9595C17.5053 33.4703 15.9454 34.3419 14.27 34.3419ZM9.01261 29.3446C9.2437 29.3446 9.41703 29.4027 9.64812 29.5189L13.1145 31.6689C13.4611 31.9014 13.9233 32.0176 14.3277 32.0176C15.1366 32.0176 15.9454 31.5527 16.3498 30.8554L24.0336 17.2581C24.3225 16.7351 24.438 16.0959 24.2647 15.4568C24.0914 14.8176 23.687 14.3527 23.1092 14.0622L20.1628 12.4932C19.8739 12.3189 19.7006 12.0865 19.5851 11.7959C19.5273 11.5054 19.5273 11.1568 19.7006 10.8662L19.9317 10.5176L6.58613 2.73108C6.12395 2.44054 5.66176 2.32432 5.1418 2.32432C3.75525 2.32432 2.25315 3.42838 2.25315 5.22973V23.3595C2.25315 25.5095 3.40861 27.4851 5.19958 28.5892L7.79937 30.1581L7.91492 29.9257C8.08824 29.6351 8.31933 29.4608 8.60819 29.4027C8.78151 29.3446 8.89706 29.3446 9.01261 29.3446Z" fill="#0F145B"/>
<path d="M13.5189 24.7544C13.3456 24.7544 13.1145 24.6963 12.9412 24.5801C12.4212 24.2314 12.1901 23.5341 12.5368 23.0111L20.5672 9.47195C20.9139 8.94898 21.6072 8.71655 22.1271 9.06519C22.6471 9.41384 22.8782 10.1111 22.5315 10.6341L14.5011 24.1152C14.27 24.5801 13.9233 24.7544 13.5189 24.7544Z" fill="#0F145B"/>
<path d="M8.26156 32.9473C8.08824 32.9473 7.85715 32.8892 7.68383 32.773C7.1061 32.4243 6.93278 31.727 7.27942 31.2041L10.3992 25.8C10.7458 25.2189 11.4391 25.0446 11.959 25.3932C12.5368 25.7419 12.7101 26.4392 12.3634 26.9622L9.24369 32.3662C9.07038 32.7149 8.66597 32.9473 8.26156 32.9473Z" fill="#0F145B"/>
<path d="M85.2731 5.22973V23.3595C85.2731 25.9162 83.9443 28.2987 81.749 29.577L78.1093 31.727L77.416 30.4487L73.9496 32.5987C72.2742 33.6446 70.0788 33.0635 69.0966 31.3784L61.355 17.7811C60.3729 16.096 61.0084 13.8878 62.7416 12.9581L65.688 11.3892L64.8792 9.9946L79.2069 1.62703C81.8645 0.174328 85.2731 2.09189 85.2731 5.22973Z" fill="#D7F1FF"/>
<path d="M72.1009 34.3419C70.4255 34.3419 68.9233 33.4703 68.1145 32.0176L60.3729 18.4203C59.7374 17.3162 59.5641 16.0378 59.9685 14.8176C60.3152 13.5973 61.124 12.6095 62.2217 12.0284L64.0704 11.0405L63.8971 10.6919C63.7238 10.4014 63.666 10.1108 63.7815 9.82027C63.8393 9.52973 64.0704 9.23919 64.3015 9.12297L78.6292 0.697298C79.4381 0.232433 80.3047 0 81.229 0C84.1177 0 86.4286 2.32432 86.4286 5.22973V23.3595C86.4286 26.323 84.8687 29.0541 82.3267 30.5649L78.687 32.7149C78.3981 32.8892 78.1093 32.9473 77.8204 32.8311C77.5316 32.773 77.2427 32.5405 77.1271 32.3081L77.0116 32.0757L74.5851 33.5865C73.8341 34.1095 72.9675 34.3419 72.1009 34.3419ZM66.4391 10.5176L66.6702 10.8662C66.8435 11.1568 66.9013 11.4473 66.7857 11.7959C66.728 12.0865 66.4969 12.377 66.208 12.4932L63.3194 14.0622C62.7416 14.3527 62.3372 14.8757 62.1639 15.4568C61.9906 16.0959 62.0484 16.7351 62.395 17.2581L70.1366 30.8554C70.541 31.5527 71.292 32.0176 72.1586 32.0176C72.5631 32.0176 73.0252 31.9014 73.3719 31.6689L76.8383 29.5189C77.1271 29.3446 77.416 29.2865 77.7049 29.4027C77.9937 29.4608 78.2826 29.6932 78.3981 29.9257L78.5137 30.1581L81.1135 28.5892C82.9622 27.4851 84.0599 25.5095 84.0599 23.3595V5.22973C84.0599 3.42838 82.5578 2.32432 81.1712 2.32432C80.6513 2.32432 80.1891 2.44054 79.7269 2.73108L66.4391 10.5176Z" fill="#0F145B"/>
<path d="M44.6009 50.6124C43.2721 48.3462 40.3835 47.5907 38.1303 48.8691L37.6681 49.1597C37.957 47.9975 37.7837 46.7772 37.1482 45.6732C35.9349 43.5813 33.3351 42.7678 31.1975 43.6975C31.8908 42.3029 31.833 40.6178 30.9087 39.2813C30.1576 38.1772 28.9444 37.4799 27.7311 37.3637C28.8288 35.7948 28.9444 33.761 27.9622 32.0178C26.5757 29.6353 23.5715 28.8218 21.2028 30.2164L16.6387 32.8894C14.27 34.284 13.4612 37.3056 14.8477 39.688C15.8299 41.4313 17.6786 42.3029 19.5274 42.1286C18.6608 43.5813 18.603 45.4407 19.6429 46.9516C20.9717 48.9272 23.5715 49.5083 25.5936 48.288C25.1314 49.5664 25.1891 51.0191 25.9402 52.2975C27.269 54.5637 30.1576 55.3191 32.4108 54.0407L33.7395 53.2853C33.4507 54.4475 33.624 55.6678 34.2595 56.7718C35.5883 59.038 38.4769 59.7934 40.7301 58.5151L42.9255 57.2367C45.1209 55.784 45.8719 52.8786 44.6009 50.6124Z" fill="#FFCDBD"/>
<path d="M38.3036 60.2583C36.2238 60.2583 34.2595 59.1542 33.2196 57.2948C32.8729 56.6556 32.5841 55.9583 32.5263 55.261C31.7752 55.6096 30.9086 55.8421 30.042 55.8421C27.9622 55.8421 25.9979 54.738 24.958 52.8785C24.4381 52.0069 24.207 51.0191 24.1492 50.0312C23.8603 50.0894 23.5715 50.0894 23.2826 50.0894C21.4339 50.0894 19.7007 49.1596 18.6607 47.5907C17.7941 46.2542 17.5053 44.6853 17.8519 43.1745C16.1765 42.8258 14.6744 41.7799 13.8078 40.2691C12.1324 37.3637 13.1145 33.5867 16.0032 31.8434L20.5672 29.1704C21.4916 28.6475 22.5315 28.3569 23.6292 28.3569C25.8246 28.3569 27.8467 29.5191 28.8866 31.4367C29.8109 33.0056 29.9265 34.9231 29.3488 36.6083C30.3309 37.015 31.1975 37.7123 31.833 38.6421C32.5263 39.688 32.8729 40.9664 32.7574 42.1867C34.9528 42.0704 37.0326 43.2326 38.1303 45.0921C38.5347 45.7894 38.7658 46.5448 38.8813 47.3002C39.4013 47.1258 39.9212 47.0677 40.499 47.0677C42.5788 47.0677 44.5431 48.1718 45.583 50.0312C46.3918 51.3677 46.5651 52.9948 46.1607 54.5056C45.7563 56.0164 44.7742 57.2948 43.4454 58.1083L41.25 59.3866C40.3256 59.9677 39.3435 60.2583 38.3036 60.2583ZM33.6818 52.065C33.9128 52.065 34.1439 52.1231 34.375 52.2975C34.7217 52.588 34.895 53.0529 34.8372 53.5177C34.6061 54.3894 34.7794 55.3191 35.2416 56.1326C35.8771 57.2367 37.0326 57.9339 38.3036 57.9339C38.9391 57.9339 39.5746 57.7596 40.0946 57.4691L42.2899 56.1907C43.0988 55.7258 43.6765 54.9123 43.9654 53.9826C44.2542 53.0529 44.0809 52.065 43.6187 51.2515C42.9832 50.1475 41.8278 49.4502 40.5568 49.4502C39.9212 49.4502 39.2857 49.6245 38.7658 49.915L38.3036 50.2056C37.8992 50.438 37.3792 50.438 37.0326 50.1475C36.6859 49.8569 36.5126 49.3921 36.5704 48.9272C36.8015 48.0556 36.6282 47.1258 36.166 46.3123C35.5305 45.2083 34.375 44.511 33.104 44.511C32.6418 44.511 32.1219 44.6272 31.7175 44.8015C31.2553 44.9758 30.7353 44.9177 30.4465 44.511C30.1576 44.1042 30.042 43.6394 30.2154 43.1745C30.7353 42.1285 30.6198 40.8502 29.9843 39.9204C29.4643 39.1069 28.5977 38.584 27.6156 38.4677C27.2112 38.4096 26.8645 38.1772 26.6912 37.7704C26.5179 37.4218 26.5756 36.9569 26.8067 36.6083C27.6733 35.388 27.7311 33.761 26.9801 32.4826C26.2868 31.3204 25.0158 30.565 23.687 30.565C22.9937 30.565 22.3582 30.7394 21.7805 31.088L17.2164 33.761C15.4254 34.8069 14.7899 37.1894 15.8298 38.9907C16.5809 40.2691 17.9675 41.0245 19.4118 40.8502C19.874 40.7921 20.2784 41.0245 20.5095 41.3731C20.7406 41.7218 20.7406 42.2448 20.5095 42.5934C19.8162 43.6975 19.874 45.0921 20.5672 46.138C21.145 47.0677 22.1849 47.5907 23.2826 47.5907C23.8603 47.5907 24.4381 47.4164 24.958 47.1258C25.3624 46.8934 25.8824 46.8934 26.2868 47.2421C26.6912 47.5326 26.8067 48.0556 26.6334 48.5204C26.2868 49.5083 26.3446 50.6123 26.9223 51.5421C27.5578 52.6461 28.7133 53.3434 29.9843 53.3434C30.6198 53.3434 31.2553 53.1691 31.7752 52.8785L33.104 52.1231C33.2773 52.1231 33.5084 52.065 33.6818 52.065Z" fill="#0F145B"/>
<path d="M72.9097 24.7538C72.5053 24.7538 72.1587 24.5795 71.9276 24.1727L63.8971 10.6917C63.5505 10.1687 63.7238 9.41328 64.3015 9.12273C64.8215 8.77409 65.5725 8.94841 65.8614 9.52949L73.8919 23.0106C74.2385 23.5335 74.0652 24.2889 73.4875 24.5795C73.3141 24.6957 73.083 24.7538 72.9097 24.7538Z" fill="#0F145B"/>
<path d="M78.1092 32.9474C77.7048 32.9474 77.3004 32.7149 77.1271 32.3663L74.0074 26.9622C73.6607 26.3812 73.8918 25.6839 74.4118 25.3933C74.9895 25.0447 75.6828 25.2771 75.9716 25.8001L79.0914 31.2041C79.438 31.7852 79.2069 32.4825 78.687 32.7731C78.5136 32.8893 78.3403 32.9474 78.1092 32.9474Z" fill="#0F145B"/>
<path d="M55.1156 55.0284C54.9422 55.0284 54.7112 54.9703 54.5378 54.9122L50.2626 52.5297C49.6849 52.2392 49.5116 51.5419 49.8004 50.9608C50.0893 50.3797 50.7826 50.2054 51.3603 50.4959L55.6355 52.8784C56.2133 53.1689 56.3866 53.8662 56.0977 54.4473C55.9244 54.7959 55.52 55.0284 55.1156 55.0284Z" fill="#0F145B"/>
<path d="M60.1418 48.1715C59.9685 48.1715 59.7374 48.1134 59.5641 48.0553L52.8046 44.3364C52.2269 44.0458 52.0536 43.3485 52.3424 42.7674C52.6313 42.1864 53.3246 42.012 53.9023 42.3026L60.6617 46.0215C61.2395 46.312 61.4128 47.0093 61.1239 47.5904C60.8928 47.9391 60.5462 48.1715 60.1418 48.1715Z" fill="#0F145B"/>
<path d="M67.5368 42.7092C67.3635 42.7092 67.1901 42.6511 66.9591 42.593L56.5021 36.8984C55.9244 36.6078 55.7511 35.9105 56.0399 35.3294C56.3288 34.7484 57.0221 34.574 57.5998 34.8646L68.0568 40.5592C68.6345 40.8497 68.8078 41.547 68.5189 42.1281C68.3456 42.5349 67.999 42.7092 67.5368 42.7092Z" fill="#0F145B"/>
<path d="M72.2742 36.5502C72.1009 36.5502 71.9276 36.4921 71.6965 36.434L53.729 26.6137C53.1513 26.3232 52.978 25.6259 53.2669 25.0448C53.5557 24.4637 54.249 24.2894 54.8267 24.5799L72.7942 34.4002C73.3719 34.6907 73.5452 35.388 73.2564 35.9691C73.083 36.3177 72.6786 36.5502 72.2742 36.5502Z" fill="#0F145B"/>
<path d="M48.0673 23.3595C47.894 23.3595 47.7206 23.3014 47.4895 23.2432L41.4811 19.9892C40.9034 19.6986 40.7301 19.0013 41.0189 18.4203C41.3078 17.8392 42.0011 17.6649 42.5788 17.9554L48.5872 21.2095C49.165 21.5 49.3383 22.1973 49.0494 22.7784C48.8761 23.127 48.4717 23.3595 48.0673 23.3595Z" fill="#0F145B"/>
<path d="M19.5273 43.2906C19.1229 43.2906 18.7185 43.0582 18.5452 42.7095C18.1986 42.1284 18.4297 41.4311 18.9496 41.1406L27.1534 36.3757C27.7311 36.0271 28.4244 36.2595 28.7133 36.7825C29.0599 37.3636 28.8288 38.0609 28.3088 38.3514L20.1051 43.1163C19.9318 43.2906 19.7007 43.2906 19.5273 43.2906Z" fill="#0F145B"/>
<path d="M25.5358 49.4497C25.1891 49.4497 24.8425 49.2753 24.6114 48.9848C24.207 48.4618 24.3225 47.7645 24.7847 47.3578L30.4465 42.8253C30.9664 42.4186 31.6597 42.5348 32.0641 42.9997C32.4685 43.5226 32.353 44.2199 31.8908 44.6267L26.229 49.1591C26.0557 49.3334 25.8246 49.4497 25.5358 49.4497Z" fill="#0F145B"/>
<path d="M33.6817 54.3894C33.3929 54.3894 33.104 54.2732 32.8729 54.0408C32.4107 53.5759 32.4107 52.8786 32.8729 52.4138L36.8592 48.3462C37.3214 47.8813 38.0147 47.8813 38.4769 48.3462C38.9391 48.8111 38.9391 49.5084 38.4769 49.9732L34.4905 54.0408C34.2594 54.2732 33.9706 54.3894 33.6817 54.3894Z" fill="#0F145B"/>
<path d="M42.0588 18.9432L37.0903 22.3135C35.4727 23.4176 33.2773 23.0108 32.1796 21.3838C31.0819 19.7568 31.4863 17.5486 33.104 16.4446L40.5567 11.3892C41.8277 10.5176 44.6586 11.0986 45.8141 12.0284" fill="#FFCDBD"/>
<path d="M35.1838 24.0568C34.895 24.0568 34.6061 24.0568 34.3172 23.9987C33.104 23.7662 32.0063 23.0689 31.313 22.023C30.6198 20.9771 30.3309 19.6987 30.562 18.4784C30.7931 17.2581 31.4864 16.1541 32.5263 15.4568L39.979 10.4014C41.8277 9.123 45.1786 9.93652 46.6229 11.0406C47.1429 11.4473 47.2006 12.1446 46.854 12.6676C46.4496 13.1906 45.7563 13.2487 45.2364 12.9C44.3698 12.2027 42.1166 11.796 41.3078 12.3189L33.8551 17.3744C33.3351 17.723 32.9885 18.246 32.8729 18.8852C32.7574 19.5244 32.8729 20.1635 33.2196 20.6865C33.5662 21.2095 34.0862 21.5581 34.7217 21.6744C35.3572 21.7906 35.9927 21.6744 36.5126 21.3257L41.4811 17.9554C42.0011 17.6068 42.7521 17.723 43.0988 18.246C43.4454 18.7689 43.3298 19.5244 42.8099 19.873L37.8414 23.2433C36.9748 23.7662 36.1082 24.0568 35.1838 24.0568Z" fill="#0F145B"/>
</svg>
