<svg width="53" height="64" viewBox="0 0 53 64" fill="none" xmlns="http://www.w3.org/2000/svg">
<g filter="url(#filter0_d)">
<path d="M26.342 20.4685C26.106 21.1094 25.3813 21.4438 24.7401 21.2076C24.0989 20.9715 23.7641 20.247 24.0001 19.6061L26.2165 13.5873C23.6518 13.244 21.1184 14.6211 20.0658 17.0498C19.4485 18.468 19.4271 20.0739 20.0027 21.5199C20.5783 22.966 21.6805 24.0997 23.1273 24.7274C26.0768 26.0034 29.5213 24.6454 30.807 21.6697C31.455 20.1679 31.4515 18.4579 30.7644 16.9708C30.4928 16.3328 30.7596 15.6083 31.408 15.3091C32.0461 15.0378 32.771 15.3048 33.0705 15.953C33.9764 17.9637 34.0285 20.2296 33.2794 22.2637C33.2281 22.4031 33.1768 22.5424 33.1255 22.6817C31.312 26.9186 26.3829 28.8691 22.1436 27.0549C20.0937 26.1734 18.5086 24.5455 17.6892 22.4717C16.8699 20.3979 16.8838 18.1247 17.7649 16.0759C19.335 12.4139 23.2694 10.4135 27.099 11.1909L28.4021 7.65203C22.618 6.24987 16.5904 9.378 14.4869 15.0903L8.09419 32.4502C5.82648 38.6084 8.99049 45.4061 15.1241 47.6647C21.2855 49.9336 28.0849 46.7733 30.3423 40.643L36.7453 23.2552C38.8796 17.4593 36.2189 11.1001 30.7543 8.48656L26.342 20.4685Z" fill="#FFCDBD"/>
</g>
<defs>
<filter id="filter0_d" x="0" y="0" width="52.8189" height="63.7611" filterUnits="userSpaceOnUse" color-interpolation-filters="sRGB">
<feFlood flood-opacity="0" result="BackgroundImageFix"/>
<feColorMatrix in="SourceAlpha" type="matrix" values="0 0 0 0 0 0 0 0 0 0 0 0 0 0 0 0 0 0 127 0"/>
<feOffset dx="4" dy="4"/>
<feGaussianBlur stdDeviation="4"/>
<feColorMatrix type="matrix" values="0 0 0 0 0 0 0 0 0 0 0 0 0 0 0 0 0 0 0.25 0"/>
<feBlend mode="normal" in2="BackgroundImageFix" result="effect1_dropShadow"/>
<feBlend mode="normal" in="SourceGraphic" in2="effect1_dropShadow" result="shape"/>
</filter>
</defs>
</svg>
