<svg width="104" height="130" viewBox="0 0 104 130" fill="none" xmlns="http://www.w3.org/2000/svg">
<g filter="url(#filter0_d)">
<path d="M57.1246 43.1584C56.5634 44.6823 54.8403 45.4774 53.3155 44.9159C51.7908 44.3544 50.9948 42.6317 51.556 41.1078L56.8262 26.7963C50.7277 25.9802 44.7039 29.2546 42.201 35.0294C40.7333 38.4015 40.6823 42.2201 42.0509 45.6585C43.4196 49.0969 46.0405 51.7926 49.4808 53.2852C56.494 56.3192 64.6843 53.0902 67.7415 46.0146C69.2823 42.4437 69.274 38.3776 67.6401 34.8415C66.9942 33.3246 67.6286 31.6019 69.1703 30.8905C70.6877 30.2454 72.4113 30.8801 73.1235 32.4215C75.2776 37.2025 75.4014 42.5903 73.6203 47.4271C73.4983 47.7584 73.3763 48.0896 73.2543 48.4209C68.9422 58.4955 57.2218 63.1333 47.1417 58.8194C42.2674 56.7235 38.4984 52.8526 36.5501 47.9216C34.6018 42.9906 34.6349 37.5854 36.73 32.7138C40.4635 24.0062 49.8185 19.2498 58.9244 21.0982L62.0231 12.6835C48.2697 9.3495 33.9373 16.7875 28.9356 30.3702L13.7351 71.6484C8.34299 86.2912 15.8663 102.455 30.4507 107.825C45.1013 113.22 61.2687 105.706 66.6364 91.129L81.8613 49.7846C86.9362 36.0031 80.6098 20.8823 67.6161 14.6679L57.1246 43.1584Z" fill="#FFCDBD"/>
</g>
<defs>
<filter id="filter0_d" x="0" y="-9.15527e-05" width="103.548" height="129.566" filterUnits="userSpaceOnUse" color-interpolation-filters="sRGB">
<feFlood flood-opacity="0" result="BackgroundImageFix"/>
<feColorMatrix in="SourceAlpha" type="matrix" values="0 0 0 0 0 0 0 0 0 0 0 0 0 0 0 0 0 0 127 0"/>
<feOffset dx="4" dy="4"/>
<feGaussianBlur stdDeviation="4"/>
<feColorMatrix type="matrix" values="0 0 0 0 0 0 0 0 0 0 0 0 0 0 0 0 0 0 0.25 0"/>
<feBlend mode="normal" in2="BackgroundImageFix" result="effect1_dropShadow"/>
<feBlend mode="normal" in="SourceGraphic" in2="effect1_dropShadow" result="shape"/>
</filter>
</defs>
</svg>
