<svg width="236" height="179" viewBox="0 0 236 179" fill="none" xmlns="http://www.w3.org/2000/svg">
<g filter="url(#filter0_d)">
<path d="M148.996 101.427C145.965 100.502 144.225 97.233 145.151 94.2002C146.076 91.1673 149.344 89.4258 152.375 90.3506L180.843 99.0349C181.758 87.0626 174.711 75.6884 163.183 71.4509C156.45 68.9646 149.005 69.2877 142.457 72.3349C135.909 75.3821 130.947 80.7868 128.42 87.6549C123.285 101.655 130.482 117.255 144.606 122.429C151.734 125.036 159.656 124.569 166.364 120.995C169.248 119.568 172.675 120.614 174.232 123.539C175.657 126.424 174.611 129.852 171.686 131.41C162.61 136.136 152.126 136.974 142.505 134.039C141.846 133.838 141.187 133.637 140.528 133.436C120.422 126.149 110.089 103.827 117.378 83.71C120.923 73.9811 128.047 66.2094 137.439 61.8677C146.831 57.5261 157.366 56.9924 167.089 60.5352C184.468 66.8457 194.77 84.5462 192.177 102.492L208.914 107.599C213.888 80.4331 197.81 53.3316 170.793 45.0896L88.6859 20.0418C59.5598 11.1565 28.9002 27.6034 20.0503 56.6132C11.1603 85.7549 27.5909 116.423 56.5852 125.268L138.824 150.356C166.237 158.719 194.997 144.719 205.667 118.715L148.996 101.427Z" fill="#FFCDBD"/>
</g>
<defs>
<filter id="filter0_d" x="0" y="0" width="235.246" height="178.318" filterUnits="userSpaceOnUse" color-interpolation-filters="sRGB">
<feFlood flood-opacity="0" result="BackgroundImageFix"/>
<feColorMatrix in="SourceAlpha" type="matrix" values="0 0 0 0 0 0 0 0 0 0 0 0 0 0 0 0 0 0 127 0"/>
<feOffset dx="4" dy="4"/>
<feGaussianBlur stdDeviation="4"/>
<feColorMatrix type="matrix" values="0 0 0 0 0 0 0 0 0 0 0 0 0 0 0 0 0 0 0.25 0"/>
<feBlend mode="normal" in2="BackgroundImageFix" result="effect1_dropShadow"/>
<feBlend mode="normal" in="SourceGraphic" in2="effect1_dropShadow" result="shape"/>
</filter>
</defs>
</svg>
