<svg width="103" height="91" viewBox="0 0 103 91" fill="none" xmlns="http://www.w3.org/2000/svg">
<path d="M6.59556 43.9244H44.892C47.3913 43.9244 49.4875 46.0207 49.4875 48.52V73.1909C49.4875 75.6903 47.3913 77.7865 44.892 77.7865H28.2834L19.576 87.2195C18.2054 88.6707 15.7061 88.0257 15.303 86.0908L13.5292 77.8671H6.59556C4.09622 77.8671 2 75.7709 2 73.2716V48.52C2 46.0207 4.0156 43.9244 6.59556 43.9244Z" fill="#FFCDBD" stroke="#0F145B" stroke-width="4" stroke-miterlimit="10" stroke-linecap="round" stroke-linejoin="round"/>
<path d="M89.3964 2H29.4928C23.5266 2 18.6891 6.83744 18.6891 12.8036V49.2456C18.6891 55.2118 23.5266 60.0493 29.4928 60.0493H53.7606C54.5668 60.0493 55.3731 60.3717 55.9374 61.0167L66.1767 72.1429C70.1272 76.4159 77.2222 74.4809 78.4315 68.8373L79.8021 62.468C80.1246 61.0974 81.334 60.1299 82.7046 60.1299H89.3964C95.3626 60.1299 100.2 55.2924 100.2 49.3263V12.8036C100.2 6.83744 95.3626 2 89.3964 2Z" fill="#D7F1FF" stroke="#0F145B" stroke-width="4" stroke-miterlimit="10" stroke-linecap="round" stroke-linejoin="round"/>
<path d="M32.4759 24.0101H64.8867" stroke="#0F145B" stroke-width="4" stroke-miterlimit="10" stroke-linecap="round" stroke-linejoin="round"/>
<path d="M32.4759 40.4578H86.0102" stroke="#0F145B" stroke-width="4" stroke-miterlimit="10" stroke-linecap="round" stroke-linejoin="round"/>
</svg>
