<svg width="89" height="89" viewBox="0 0 89 89" fill="none" xmlns="http://www.w3.org/2000/svg">
<path d="M46.0086 86.2499C45.5805 86.2499 45.1524 86.1643 44.8099 86.0787C43.1831 85.6506 41.8988 84.4519 41.3851 82.9107C40.272 79.914 38.8165 76.8317 36.9328 73.7494L36.4191 72.8932L35.7342 73.5782C34.878 74.4344 33.6793 74.8625 32.395 74.8625C31.1107 74.8625 29.912 74.3488 28.9702 73.4926L15.5279 60.0502C13.6442 58.1666 13.6442 55.2555 15.4423 53.3719L16.1272 52.6869L15.271 52.1732C12.5312 50.4608 9.44887 48.9197 6.02408 47.721C4.48292 47.1217 3.28424 45.7517 2.94176 44.2962C2.51366 42.6694 2.94177 40.957 4.05483 39.6727L11.4181 30.7683C14.5861 27.001 19.2095 24.8605 24.1755 24.8605C26.0591 24.8605 27.8571 25.1174 29.5695 25.7167L29.9976 25.8879L43.2687 12.6169C48.834 7.05157 56.1973 3.7124 63.9887 3.11306L78.4585 2C78.6297 2 78.8866 2 79.0578 2C81.1983 2 83.1676 2.77058 84.6231 4.31174C86.2499 5.93851 87.0204 8.16463 86.8492 10.562L85.8218 25.1174C85.1368 32.9944 81.7976 40.3577 76.2323 45.8374L62.9613 59.1084L63.1325 59.5365C65.273 65.958 63.3037 73.3213 58.1666 77.7736L49.2621 85.1369C48.4059 85.8218 47.2072 86.2499 46.0086 86.2499Z" fill="#D7F1FF" stroke="#0F145B" stroke-width="4" stroke-miterlimit="10" stroke-linecap="round" stroke-linejoin="round"/>
<path d="M57.1392 42.4124C62.9082 42.4124 67.5848 37.7357 67.5848 31.9667C67.5848 26.1978 62.9082 21.5211 57.1392 21.5211C51.3703 21.5211 46.6936 26.1978 46.6936 31.9667C46.6936 37.7357 51.3703 42.4124 57.1392 42.4124Z" fill="#FFCDBD" stroke="#0F145B" stroke-width="4" stroke-miterlimit="10" stroke-linecap="round" stroke-linejoin="round"/>
<path d="M17.2404 71.8658L6.02417 83.082" stroke="#0F145B" stroke-width="4" stroke-miterlimit="10" stroke-linecap="round" stroke-linejoin="round"/>
<path d="M24.1755 78.8011L16.4697 86.4213" stroke="#0F145B" stroke-width="4" stroke-miterlimit="10" stroke-linecap="round" stroke-linejoin="round"/>
<path d="M9.70579 64.3311L2 71.9512" stroke="#0F145B" stroke-width="4" stroke-miterlimit="10" stroke-linecap="round" stroke-linejoin="round"/>
</svg>
