<svg width="44" height="19" viewBox="0 0 44 19" fill="none" xmlns="http://www.w3.org/2000/svg">
<path d="M3.60985 7.24535C3.60985 6.76556 4.00238 6.59109 4.65664 6.59109C5.5726 6.59109 6.75028 6.85279 7.66624 7.3762V4.54108C6.66304 4.14852 5.65984 3.97406 4.65664 3.97406C2.21408 3.97406 0.556641 5.23895 0.556641 7.3762C0.556641 10.6911 5.13645 10.1677 5.13645 11.6071C5.13645 12.1741 4.65665 12.3486 3.95878 12.3486C2.95558 12.3486 1.69067 11.956 0.643854 11.389V14.2677C1.7779 14.7475 2.91196 14.9656 3.95878 14.9656C6.48858 14.9656 8.18965 13.7007 8.18965 11.5634C8.18965 7.94322 3.60985 8.59748 3.60985 7.24535ZM11.7662 1.53149L8.80028 2.14213V11.8252C8.80028 13.6135 10.1524 14.922 11.9407 14.922C12.9439 14.922 13.6418 14.7475 14.0343 14.5294V12.0869C13.6418 12.2613 11.7226 12.7847 11.7226 10.9964V6.72194H14.0343V4.14853H11.7226L11.7662 1.53149ZM17.7854 5.06449L17.611 4.19214H14.9939V14.7475H18.0035V7.55067C18.7014 6.63471 19.9227 6.80917 20.3152 6.94003V4.14853C19.9227 4.01767 18.4833 3.75597 17.7854 5.06449ZM21.0567 4.14853H24.0663V14.7475H21.0567V4.14853ZM21.0567 3.23256L24.0663 2.57831V0.135742L21.0567 0.79V3.23256ZM30.3472 3.97406C29.1695 3.97406 28.3844 4.54108 27.9918 4.93363L27.8174 4.19214H25.1567V18.2369L28.1663 17.5826V14.1805C28.6025 14.4858 29.2567 14.922 30.3036 14.922C32.4844 14.922 34.4472 13.1773 34.4472 9.33897C34.4908 5.8496 32.4844 3.97406 30.3472 3.97406ZM29.6493 12.2613C28.9514 12.2613 28.5153 11.9996 28.2099 11.6943V7.20173C28.5153 6.85279 28.9514 6.59109 29.6493 6.59109C30.7397 6.59109 31.5249 7.81237 31.5249 9.38259C31.5249 11.0837 30.7397 12.2613 29.6493 12.2613ZM43.9994 9.46982C43.9994 6.373 42.5164 3.93044 39.6376 3.93044C36.7589 3.93044 35.0142 6.373 35.0142 9.42621C35.0142 13.0464 37.0642 14.8784 40.0302 14.8784C41.4696 14.8784 42.56 14.573 43.3887 14.0932V11.6943C42.56 12.0869 41.644 12.3486 40.4228 12.3486C39.2451 12.3486 38.1983 11.956 38.0674 10.5166H43.9558C43.9558 10.4294 43.9994 9.77515 43.9994 9.46982ZM38.0238 8.33578C38.0238 6.98364 38.8525 6.41662 39.6376 6.41662C40.3791 6.41662 41.1643 6.98364 41.1643 8.33578H38.0238Z" fill="white"/>
</svg>
