<svg width="75" height="68" viewBox="0 0 75 68" fill="none" xmlns="http://www.w3.org/2000/svg">
<path d="M20.5116 62.5944H1.41463C0.707339 62.5944 0.11792 62.0049 0.11792 61.2977C0.11792 60.5904 0.707339 60.001 1.41463 60.001H20.5116C21.2189 60.001 21.8083 60.5904 21.8083 61.2977C21.8083 62.0049 21.2189 62.5944 20.5116 62.5944Z" fill="#0F145B"/>
<path d="M73.2048 62.5944H40.0799C39.3726 62.5944 38.7832 62.0049 38.7832 61.2977C38.7832 60.5904 39.3726 60.001 40.0799 60.001H73.2048C73.9121 60.001 74.5015 60.5904 74.5015 61.2977C74.5015 62.0049 73.9121 62.5944 73.2048 62.5944Z" fill="#0F145B"/>
<path d="M65.1889 49.7473H9.19476C4.83312 49.7473 1.29663 46.2108 1.29663 41.8492V9.31366C1.29663 4.95201 4.83312 1.41553 9.19476 1.41553H65.1889C69.5505 1.41553 73.087 4.95201 73.087 9.31366V41.8492C73.2049 46.0929 69.6684 49.7473 65.1889 49.7473Z" fill="#D7F1FF"/>
<path d="M65.189 50.9252H9.19485C4.1259 50.9252 0 46.7993 0 41.7304V9.19485C0 4.1259 4.1259 0 9.19485 0H65.189C70.2579 0 74.3838 4.1259 74.3838 9.19485V41.7304C74.5017 46.7993 70.3758 50.9252 65.189 50.9252ZM9.31274 2.59343C5.65838 2.59343 2.59343 5.5405 2.59343 9.31274V41.8482C2.59343 45.5026 5.5405 48.5676 9.31274 48.5676H65.3069C68.9612 48.5676 72.0261 45.6205 72.0261 41.8482V9.31274C72.0261 5.65838 69.0791 2.59343 65.3069 2.59343C65.189 2.59343 9.31274 2.59343 9.31274 2.59343Z" fill="#0F145B"/>
<path d="M44.9131 23.8111C46.2098 24.5184 46.2098 26.4045 44.9131 27.1118L38.1939 31.0019L31.4746 34.892C30.1778 35.5993 28.6454 34.6563 28.6454 33.2417V25.4614V17.7991C28.6454 16.3845 30.1778 15.4414 31.4746 16.1487L38.1939 20.0388L44.9131 23.8111Z" fill="#FFCDBD"/>
<path d="M30.5315 36.4249C28.7632 36.4249 27.3486 35.0103 27.3486 33.2421V17.7995C27.3486 16.0313 28.7632 14.6167 30.5315 14.6167C31.1209 14.6167 31.5924 14.7346 32.0639 15.0882L45.3846 22.7506C46.4456 23.34 46.9171 24.283 46.9171 25.4619C46.9171 26.6407 46.3277 27.5838 45.3846 28.1732L32.0639 35.8355C31.7103 36.1892 31.1209 36.4249 30.5315 36.4249ZM30.5315 17.0922C30.1778 17.0922 29.9421 17.328 29.9421 17.6816V33.2421C29.9421 33.7136 30.5315 33.9494 30.8851 33.8315L44.2058 26.1692C44.4416 25.9334 44.5595 25.6976 44.5595 25.5797C44.5595 25.4619 44.5594 25.2261 44.2058 24.9903L30.8851 17.328C30.7672 17.0922 30.6494 17.0922 30.5315 17.0922Z" fill="#0F145B"/>
<path d="M30.0599 66.3674C32.8594 66.3674 35.1289 64.0979 35.1289 61.2984C35.1289 58.4989 32.8594 56.2295 30.0599 56.2295C27.2604 56.2295 24.991 58.4989 24.991 61.2984C24.991 64.0979 27.2604 66.3674 30.0599 66.3674Z" fill="#FFCDBD"/>
<path d="M30.06 67.6644C26.5235 67.6644 23.6943 64.8352 23.6943 61.2987C23.6943 57.7623 26.5235 54.9331 30.06 54.9331C33.5964 54.9331 36.4257 57.7623 36.4257 61.2987C36.4257 64.8352 33.5964 67.6644 30.06 67.6644ZM30.06 57.5265C27.9381 57.5265 26.2878 59.2947 26.2878 61.2987C26.2878 63.3027 28.056 65.071 30.06 65.071C32.1819 65.071 33.8322 63.3027 33.8322 61.2987C33.8322 59.2947 32.1819 57.5265 30.06 57.5265Z" fill="#0F145B"/>
</svg>
