<svg width="51" height="17" viewBox="0 0 51 17" fill="none" xmlns="http://www.w3.org/2000/svg">
<path d="M15.5543 1.2674L11.3315 11.6731L9.6739 2.81472C9.47658 1.80896 8.68726 1.2674 7.81902 1.2674H0.951977L0.873047 1.69291C2.29381 2.00238 3.87244 2.46657 4.85908 3.00813C5.45107 3.31759 5.60894 3.58837 5.80627 4.36203L9.04246 16.5858H13.3048L19.8166 1.2674H15.5543ZM21.5531 1.2674L18.1985 16.5471H22.224L25.5786 1.22872H21.5531V1.2674ZM44.7195 5.40647L45.9429 11.1702H42.5883L44.7195 5.40647ZM44.1275 1.2674C43.3382 1.2674 42.7067 1.69291 42.391 2.38921L36.3528 16.5471H40.5756L41.4044 14.2648H46.6138L47.0874 16.5471H50.8367L47.561 1.2674H44.1275ZM26.6836 6.0254C26.6442 8.23032 28.6964 9.46817 30.2356 10.2031C31.8142 10.9381 32.3272 11.441 32.3272 12.0986C32.3272 13.143 31.0643 13.5686 29.9198 13.6072C27.9071 13.6459 26.7231 13.0657 25.7759 12.6402L25.0261 16.0056C25.9733 16.4311 27.7098 16.8179 29.5252 16.8179C33.7875 16.8179 36.5501 14.7677 36.5501 11.5957C36.5501 7.57271 30.867 7.34061 30.9065 5.52252C30.9065 4.98096 31.459 4.40072 32.6035 4.24598C33.1955 4.16862 34.7741 4.12994 36.5896 4.94228L37.2999 1.69291C36.3133 1.34477 35.0899 0.996622 33.5112 0.996622C29.5252 0.957939 26.7231 3.04681 26.6836 6.0254Z" fill="white"/>
</svg>
