<svg width="74" height="75" viewBox="0 0 74 75" fill="none" xmlns="http://www.w3.org/2000/svg">
<path d="M63.8926 73.677H9.31305C4.9514 73.677 1.41492 70.1406 1.41492 65.7789V16.5041C1.41492 12.1424 4.9514 8.60596 9.31305 8.60596H63.8926C68.2542 8.60596 71.7907 12.1424 71.7907 16.5041V65.7789C71.7907 70.1406 68.2542 73.677 63.8926 73.677Z" fill="#D7F1FF"/>
<path d="M63.8926 74.974H9.31305C4.2441 74.974 0.118164 70.8482 0.118164 65.7792V16.5044C0.118164 11.4355 4.2441 7.30957 9.31305 7.30957H63.8926C68.9615 7.30957 73.0874 11.4355 73.0874 16.5044V65.7792C73.0874 70.8482 68.9615 74.974 63.8926 74.974ZM9.31305 9.78511C5.65869 9.78511 2.59374 12.7322 2.59374 16.5044V65.7792C2.59374 69.4336 5.54081 72.4985 9.31305 72.4985H63.8926C67.5469 72.4985 70.6119 69.5515 70.6119 65.7792V16.5044C70.6119 12.8501 67.6648 9.78511 63.8926 9.78511H9.31305Z" fill="#0F145B"/>
<path d="M71.7903 23.5772H1.29663V16.3864C1.29663 12.0248 4.83312 8.48828 9.19476 8.48828H63.7743C68.1359 8.48828 71.6724 12.0248 71.6724 16.3864V23.5772H71.7903Z" fill="#FFCDBD"/>
<path d="M71.7904 24.8742H1.29668C0.589383 24.8742 0 24.2849 0 23.5776V16.3867C0 11.3178 4.12587 7.19189 9.19481 7.19189H63.7743C68.8433 7.19189 72.9692 11.3178 72.9692 16.3867V23.5776C73.0871 24.2849 72.4977 24.8742 71.7904 24.8742ZM2.59343 22.3987H70.4936V16.5046C70.4936 12.8503 67.5466 9.78532 63.7743 9.78532H9.19481C5.54046 9.78532 2.4755 12.7324 2.4755 16.5046V22.3987H2.59343Z" fill="#0F145B"/>
<path d="M14.7351 15.4424C12.7311 14.4993 11.9059 12.2596 12.7311 10.2556L15.796 3.41841C16.7391 1.41441 18.9788 0.589223 20.9828 1.4144C22.9868 2.35746 23.812 4.59722 22.9868 6.60122L19.9219 13.4384C18.9789 15.4424 16.6212 16.3855 14.7351 15.4424Z" fill="#D7F1FF"/>
<path d="M16.2677 17.0934C15.5604 17.0934 14.8531 16.9755 14.1458 16.6219C12.8491 16.0325 11.906 15.0894 11.4345 13.7927C10.963 12.496 10.963 11.0814 11.5524 9.9026L14.6174 3.0654C15.4425 1.17928 17.3286 0.000488281 19.3326 0.000488281C20.0399 0.000488281 20.7472 0.118363 21.4545 0.472011C24.0479 1.65083 25.2268 4.71576 24.0479 7.30917L20.983 14.1464C20.1578 15.9146 18.2717 17.0934 16.2677 17.0934ZM19.3326 2.47599C18.2717 2.47599 17.3286 3.06542 16.975 4.00848L13.91 10.8456C13.5564 11.4351 13.5564 12.1424 13.7922 12.8497C14.0279 13.4391 14.4995 14.0285 15.2068 14.2642C15.5604 14.3821 15.914 14.5 16.2677 14.5C17.3286 14.5 18.2717 13.9106 18.6253 12.9675L21.6903 6.13035C22.2797 4.83364 21.6903 3.30117 20.3935 2.59388C20.0399 2.59388 19.6863 2.47599 19.3326 2.47599Z" fill="#0F145B"/>
<path d="M33.4786 15.4419C31.4746 14.4988 30.6494 12.2591 31.4746 10.2551L34.5395 3.41793C35.4826 1.41393 37.7223 0.588735 39.7263 1.41391C41.7303 2.35697 42.5555 4.59673 41.7304 6.60073L38.6654 13.4379C37.7223 15.4419 35.3647 16.385 33.4786 15.4419Z" fill="#D7F1FF"/>
<path d="M35.0111 17.0929C34.3038 17.0929 33.5965 16.975 32.8892 16.6214C31.5925 16.032 30.6494 15.0889 30.1779 13.7922C29.7064 12.4955 29.7064 11.0809 30.2958 9.90211L33.3607 3.06491C34.1859 1.17879 36.072 0 38.076 0C38.7833 0 39.4906 0.117875 40.1979 0.471522C42.7913 1.65035 43.9701 4.71527 42.7913 7.30869L39.7264 14.1459C38.9012 15.9141 37.0151 17.0929 35.0111 17.0929ZM38.076 2.4755C37.0151 2.4755 36.072 3.06493 35.7184 4.00799L32.6535 10.8452C32.2998 11.4346 32.2998 12.1419 32.5355 12.8492C32.7713 13.4386 33.2428 14.028 33.9501 14.2637C34.3038 14.3816 34.6575 14.4995 35.0111 14.4995C36.0721 14.4995 37.0151 13.9101 37.3688 12.9671L40.4337 6.12986C41.0231 4.83316 40.4337 3.30068 39.137 2.59339C38.7833 2.59339 38.4297 2.4755 38.076 2.4755Z" fill="#0F145B"/>
<path d="M52.2219 15.4419C50.2179 14.4988 49.3927 12.2591 50.2179 10.2551L53.2829 3.41793C54.2259 1.41393 56.4656 0.588735 58.4696 1.41391C60.4736 2.35697 61.2988 4.59673 60.4736 6.60073L57.4087 13.4379C56.4657 15.4419 54.2259 16.385 52.2219 15.4419Z" fill="#D7F1FF"/>
<path d="M53.7542 17.0929C53.0469 17.0929 52.3397 16.975 51.6324 16.6214C50.3357 16.032 49.3926 15.0889 48.9211 13.7922C48.4496 12.4955 48.4495 11.0809 49.0389 9.90211L52.1039 3.06491C52.9291 1.17879 54.8152 0 56.8192 0C57.5265 0 58.2338 0.117875 58.9411 0.471522C61.5345 1.65035 62.7133 4.71527 61.5345 7.30869L58.4695 14.1459C57.6444 15.9141 55.8761 17.0929 53.7542 17.0929ZM56.8192 2.4755C55.7583 2.4755 54.8152 3.06493 54.4616 4.00799L51.3966 10.8452C51.0429 11.4346 51.043 12.1419 51.2787 12.8492C51.5145 13.4386 51.986 14.028 52.6933 14.2637C53.047 14.3816 53.4006 14.4995 53.7542 14.4995C54.8152 14.4995 55.7582 13.9101 56.1119 12.9671L59.1769 6.12986C59.7663 4.83316 59.1768 3.30068 57.8801 2.59339C57.5265 2.59339 57.1729 2.4755 56.8192 2.4755Z" fill="#0F145B"/>
<path d="M71.7904 49.9821H1.29668C0.589383 49.9821 0 49.3927 0 48.6854C0 47.9781 0.589383 47.3887 1.29668 47.3887H71.7904C72.4977 47.3887 73.0871 47.9781 73.0871 48.6854C73.0871 49.3927 72.4977 49.9821 71.7904 49.9821Z" fill="#0F145B"/>
<path d="M24.1657 74.9737C23.4584 74.9737 22.869 74.3843 22.869 73.677V23.577C22.869 22.8697 23.4584 22.2803 24.1657 22.2803C24.873 22.2803 25.4624 22.8697 25.4624 23.577V73.677C25.4624 74.3843 24.873 74.9737 24.1657 74.9737Z" fill="#0F145B"/>
<path d="M47.1528 74.9737C46.4455 74.9737 45.8561 74.3843 45.8561 73.677V23.577C45.8561 22.8697 46.4455 22.2803 47.1528 22.2803C47.8601 22.2803 48.4494 22.8697 48.4494 23.577V73.677C48.3316 74.3843 47.8601 74.9737 47.1528 74.9737Z" fill="#0F145B"/>
<path d="M12.3777 43.3815C11.6704 43.3815 11.0811 42.792 11.0811 42.0847V31.2396C11.0811 30.5323 11.6704 29.9429 12.3777 29.9429C13.085 29.9429 13.6744 30.5323 13.6744 31.2396V42.0847C13.5565 42.792 12.9671 43.3815 12.3777 43.3815Z" fill="#0F145B"/>
<path d="M17.6824 37.9586H6.8372C6.12991 37.9586 5.54053 37.3692 5.54053 36.6619C5.54053 35.9546 6.12991 35.3652 6.8372 35.3652H17.6824C18.3897 35.3652 18.9791 35.9546 18.9791 36.6619C18.9791 37.3692 18.3897 37.9586 17.6824 37.9586Z" fill="#0F145B"/>
</svg>
