<svg width="303" height="208" viewBox="0 0 303 208" fill="none" xmlns="http://www.w3.org/2000/svg">
<path d="M151.053 207.474C234.478 207.474 302.106 195.353 302.106 180.401C302.106 165.45 234.478 153.329 151.053 153.329C67.6289 153.329 0 165.45 0 180.401C0 195.353 67.6289 207.474 151.053 207.474Z" fill="#003DA6"/>
<path d="M119.31 178.485V183.276C119.31 186.151 130.809 188.427 145.064 188.427C159.319 188.427 170.819 186.151 170.819 183.276V178.485H119.31Z" fill="#D7F1FF"/>
<path d="M145.064 189.625C143.986 189.625 118.112 189.505 118.112 183.276V178.485C118.112 177.766 118.591 177.287 119.31 177.287H170.819C171.537 177.287 172.017 177.766 172.017 178.485V183.276C172.017 189.625 146.142 189.625 145.064 189.625ZM120.508 179.683V183.276C120.987 184.594 129.612 187.229 145.064 187.229C160.517 187.229 169.142 184.714 169.621 183.276V179.683H120.508Z" fill="#0F145B"/>
<path d="M145.064 183.037C159.288 183.037 170.819 180.731 170.819 177.886C170.819 175.041 159.288 172.735 145.064 172.735C130.84 172.735 119.31 175.041 119.31 177.886C119.31 180.731 130.84 183.037 145.064 183.037Z" fill="#D7F1FF"/>
<path d="M145.064 184.115C143.986 184.115 118.112 183.995 118.112 177.766C118.112 171.537 143.986 171.417 145.064 171.417C146.142 171.417 172.017 171.537 172.017 177.766C172.017 184.115 146.142 184.115 145.064 184.115ZM145.064 173.933C129.612 173.933 120.987 176.448 120.508 177.886C120.987 179.204 129.612 181.719 145.064 181.719C160.517 181.719 169.142 179.203 169.621 177.766C169.142 176.448 160.517 173.933 145.064 173.933Z" fill="#0F145B"/>
<path d="M156.924 167.344C156.924 167.344 156.325 173.933 159.56 178.006H130.571C130.571 178.006 134.164 174.532 133.566 167.344H156.924Z" fill="white"/>
<path d="M159.559 179.323H130.57C130.091 179.323 129.612 179.084 129.492 178.605C129.253 178.125 129.372 177.646 129.732 177.287C129.852 177.167 132.846 174.053 132.367 167.584C132.367 167.225 132.487 166.865 132.727 166.626C132.966 166.386 133.326 166.266 133.565 166.266H156.924C157.283 166.266 157.643 166.386 157.762 166.626C157.882 166.865 158.122 167.225 158.122 167.584C158.122 167.704 157.523 173.573 160.398 177.287C160.637 177.526 160.757 177.766 160.757 178.125C160.757 178.724 160.278 179.323 159.559 179.323ZM132.966 176.928H157.403C155.846 173.933 155.726 170.459 155.726 168.662H134.883C134.883 172.495 133.925 175.25 132.966 176.928Z" fill="#0F145B"/>
<path d="M217.297 167.344H72.9517C63.0092 167.344 54.9834 159.199 54.9834 149.376V55.2224C54.9834 45.28 63.129 37.2542 72.9517 37.2542H217.297C227.239 37.2542 235.265 45.3998 235.265 55.2224V149.376C235.265 159.319 227.119 167.344 217.297 167.344Z" fill="white"/>
<path d="M217.297 168.542H72.9518C62.4104 168.542 53.7856 159.918 53.7856 149.376V55.2225C53.7856 44.6811 62.4104 36.0563 72.9518 36.0563H217.297C227.838 36.0563 236.463 44.6811 236.463 55.2225V149.376C236.463 160.037 227.838 168.542 217.297 168.542ZM72.832 38.5719C63.6083 38.5719 56.0617 46.1186 56.0617 55.3423V149.496C56.0617 158.72 63.6083 166.266 72.832 166.266H217.177C226.401 166.266 233.947 158.72 233.947 149.496V55.3423C233.947 46.1186 226.401 38.5719 217.177 38.5719H72.832Z" fill="#0F145B"/>
<path d="M54.8633 131.767V53.6653C54.8633 44.6811 62.1703 37.374 71.1545 37.374H218.734C227.718 37.374 235.025 44.6811 235.025 53.6653V131.767C235.025 140.751 227.718 148.059 218.734 148.059H71.1545C62.2901 148.059 54.8633 140.751 54.8633 131.767Z" fill="white"/>
<path d="M218.854 149.258H71.2744C61.5715 149.258 53.7852 141.352 53.7852 131.769V53.6669C53.7852 43.964 61.6913 36.1778 71.2744 36.1778H218.854C228.557 36.1778 236.343 44.0838 236.343 53.6669V131.769C236.463 141.472 228.557 149.258 218.854 149.258ZM71.2744 38.5736C62.8892 38.5736 56.1809 45.4015 56.1809 53.6669V131.769C56.1809 140.154 63.009 146.862 71.2744 146.862H218.854C227.239 146.862 233.947 140.034 233.947 131.769V53.6669C233.947 45.2817 227.119 38.5736 218.854 38.5736H71.2744Z" fill="#0F145B"/>
<path d="M61.9312 128.413V56.3006C61.9312 49.7122 67.3216 44.3217 73.91 44.3217H216.219C222.807 44.3217 228.198 49.7122 228.198 56.3006V128.293C228.198 134.882 222.807 140.272 216.219 140.272H73.91C67.3216 140.392 61.9312 135.002 61.9312 128.413Z" fill="#D7F1FF"/>
<path d="M216.218 141.59H73.9096C66.6025 141.59 60.7329 135.72 60.7329 128.413V56.3006C60.7329 48.9935 66.6025 43.1238 73.9096 43.1238H216.218C223.525 43.1238 229.395 48.9935 229.395 56.3006V128.293C229.395 135.601 223.525 141.59 216.218 141.59ZM73.9096 45.5196C67.9202 45.5196 63.1287 50.3111 63.1287 56.3006V128.293C63.1287 134.283 67.9202 139.074 73.9096 139.074H216.218C222.208 139.074 226.999 134.283 226.999 128.293V56.3006C226.999 50.3111 222.208 45.5196 216.218 45.5196H73.9096Z" fill="#0F145B"/>
<path d="M146.023 161.954C148.14 161.954 149.856 160.238 149.856 158.121C149.856 156.004 148.14 154.287 146.023 154.287C143.906 154.287 142.189 156.004 142.189 158.121C142.189 160.238 143.906 161.954 146.023 161.954Z" fill="#D7F1FF"/>
<path d="M146.022 163.152C143.267 163.152 140.991 160.876 140.991 158.121C140.991 155.366 143.267 153.09 146.022 153.09C148.777 153.09 151.053 155.366 151.053 158.121C151.053 160.876 148.777 163.152 146.022 163.152ZM146.022 155.485C144.585 155.485 143.387 156.683 143.387 158.121C143.387 159.558 144.585 160.756 146.022 160.756C147.46 160.756 148.658 159.558 148.658 158.121C148.658 156.683 147.46 155.485 146.022 155.485Z" fill="#0F145B"/>
<path d="M179.204 92.1173L159.079 84.0915H132.966L112.841 92.1173C112.841 92.1173 96.4302 98.8255 96.4302 114.757C96.4302 130.689 96.4302 140.392 96.4302 140.392H146.022H195.615C195.615 140.392 195.615 130.809 195.615 114.757C195.615 98.7057 179.204 92.1173 179.204 92.1173Z" fill="#FFCDBD"/>
<path d="M195.615 141.59H96.4298C95.7111 141.59 95.2319 141.111 95.2319 140.392V114.757C95.2319 98.1067 112.242 91.0392 112.362 90.9194L132.486 82.8936C132.606 82.8936 132.726 82.7738 132.965 82.7738H159.079C159.199 82.7738 159.438 82.7738 159.558 82.8936L179.683 90.9194C179.803 91.0392 196.812 98.1067 196.812 114.757V140.392C196.812 140.991 196.213 141.59 195.615 141.59ZM97.6277 139.194H194.417V114.757C194.417 99.7838 178.964 93.1954 178.724 93.1954L158.84 85.1696H133.205L113.32 93.1954C113.2 93.3152 97.6277 99.7838 97.6277 114.757V139.194Z" fill="#0F145B"/>
<path d="M117.153 141.59C116.435 141.59 115.956 141.111 115.956 140.392V109.007C115.956 108.289 116.435 107.81 117.153 107.81C117.872 107.81 118.351 108.289 118.351 109.007V140.272C118.351 140.991 117.752 141.59 117.153 141.59Z" fill="#0F145B"/>
<path d="M175.011 141.59C174.293 141.59 173.813 141.111 173.813 140.392V109.007C173.813 108.289 174.293 107.81 175.011 107.81C175.73 107.81 176.209 108.289 176.209 109.007V140.272C176.209 140.991 175.73 141.59 175.011 141.59Z" fill="#0F145B"/>
<path d="M150.214 94.2735H141.709C137.996 94.2735 135.001 91.2788 135.001 87.5654V70.1961H156.802V87.5654C156.922 91.2788 153.927 94.2735 150.214 94.2735Z" fill="white"/>
<path d="M150.214 95.4714H141.709C137.397 95.4714 133.803 91.8777 133.803 87.5653V70.196C133.803 69.4773 134.282 68.9981 135.001 68.9981H156.803C157.521 68.9981 158 69.4773 158 70.196V87.5653C158.12 91.9975 154.527 95.4714 150.214 95.4714ZM136.199 71.5137V87.6851C136.199 90.6798 138.715 93.1954 141.709 93.1954H150.214C153.209 93.1954 155.725 90.6798 155.725 87.6851V71.5137H136.199Z" fill="#0F145B"/>
<path d="M146.022 77.6229C131.648 77.6229 119.909 66.0034 119.909 51.509V33.0616C119.909 18.687 131.528 6.94775 146.022 6.94775C160.397 6.94775 172.136 18.5672 172.136 33.0616V51.509C172.017 66.0034 160.397 77.6229 146.022 77.6229Z" fill="white"/>
<path d="M146.022 78.8208C131.049 78.8208 118.71 66.6024 118.71 51.509V33.0616C118.71 18.088 130.929 5.74985 146.022 5.74985C161.115 5.74985 173.334 17.9683 173.334 33.0616V51.509C173.214 66.6024 160.996 78.8208 146.022 78.8208ZM146.022 8.2654C132.366 8.2654 121.106 19.4057 121.106 33.1814V51.6288C121.106 65.2847 132.246 76.5448 146.022 76.5448C159.798 76.5448 170.938 65.4045 170.938 51.6288V33.1814C170.818 19.5255 159.678 8.2654 146.022 8.2654Z" fill="#0F145B"/>
<path d="M109.606 54.2642H119.908V35.9366H109.606C108.528 35.9366 107.569 36.7751 107.569 37.973V52.2278C107.569 53.3059 108.528 54.2642 109.606 54.2642Z" fill="#FFCDBD"/>
<path d="M119.908 55.462H109.606C107.81 55.462 106.372 54.0246 106.372 52.2278V37.9729C106.372 36.1761 107.81 34.7386 109.606 34.7386H119.908C120.627 34.7386 121.106 35.2178 121.106 35.9365V54.1444C121.106 54.8631 120.507 55.462 119.908 55.462ZM109.606 37.1344C109.127 37.1344 108.768 37.4938 108.768 37.9729V52.2278C108.768 52.7069 109.127 53.0663 109.606 53.0663H118.71V37.1344H109.606Z" fill="#0F145B"/>
<path d="M182.318 35.9366H172.017V54.1444H182.318C183.396 54.1444 184.355 53.3059 184.355 52.108V37.8532C184.355 36.8949 183.396 35.9366 182.318 35.9366Z" fill="#FFCDBD"/>
<path d="M182.318 55.462H172.016C171.298 55.462 170.818 54.9829 170.818 54.2642V35.9365C170.818 35.2178 171.298 34.7386 172.016 34.7386H182.318C184.115 34.7386 185.552 36.1761 185.552 37.9729V52.2278C185.552 54.0246 184.115 55.462 182.318 55.462ZM173.214 53.0663H182.318C182.797 53.0663 183.156 52.7069 183.156 52.2278V37.9729C183.156 37.4938 182.797 37.1344 182.318 37.1344H173.214V53.0663Z" fill="#0F145B"/>
<path d="M179.323 68.6387H148.538C147.819 68.6387 147.34 68.1596 147.34 67.4409C147.34 66.7221 147.819 66.243 148.538 66.243H178.125V54.2641C178.125 53.5454 178.605 53.0663 179.323 53.0663C180.042 53.0663 180.521 53.5454 180.521 54.2641V67.4409C180.521 68.1596 179.922 68.6387 179.323 68.6387Z" fill="#0F145B"/>
<path d="M172.016 33.1814C172.016 18.3276 159.678 6.46855 144.704 7.18728C130.689 7.90601 119.908 19.8849 119.908 33.9001V38.5718H140.272C141.47 38.5718 142.668 38.2125 143.626 37.4938L153.449 30.0669C155.366 28.6294 158.001 29.1086 159.438 31.0252L163.272 36.4157C164.35 37.8531 166.027 38.6916 167.704 38.6916H172.016V33.1814Z" fill="#0F145B"/>
<path d="M179.683 36.0563C178.964 36.0563 178.485 35.5772 178.485 34.8584C178.485 17.01 163.87 2.39577 146.022 2.39577C128.174 2.39577 113.559 17.01 113.559 34.8584C113.559 35.5772 113.08 36.0563 112.361 36.0563C111.643 36.0563 111.164 35.5772 111.164 34.8584C111.164 15.6923 126.856 0 146.022 0C165.188 0 180.881 15.6923 180.881 34.8584C180.881 35.5772 180.282 36.0563 179.683 36.0563Z" fill="#0F145B"/>
<path d="M205.676 44.2019H238.618C240.774 44.2019 242.571 45.9987 242.571 48.1549V69.3575C242.571 71.5137 240.774 73.3105 238.618 73.3105H224.363L216.936 81.3363C215.738 82.654 213.582 82.055 213.223 80.378L211.666 73.3105H205.676C203.52 73.3105 201.723 71.5137 201.723 69.3575V48.1549C201.723 45.8789 203.52 44.2019 205.676 44.2019Z" fill="#FFCDBD"/>
<path d="M215.379 83.2529C213.822 83.2529 212.384 82.1748 212.145 80.6176L210.827 74.5084H205.796C202.921 74.5084 200.645 72.2324 200.645 69.3575V48.1549C200.645 45.28 202.921 43.004 205.796 43.004H238.738C241.613 43.004 243.889 45.28 243.889 48.1549V69.3575C243.889 72.2324 241.613 74.5084 238.738 74.5084H225.082L218.014 82.1748C217.176 82.7738 216.217 83.2529 215.379 83.2529ZM205.676 45.3998C204.119 45.3998 202.921 46.5977 202.921 48.1549V69.3575C202.921 70.9147 204.119 72.1126 205.676 72.1126H211.665C212.264 72.1126 212.744 72.472 212.863 73.0709L214.421 80.1384C214.54 80.6176 215.02 80.8572 215.379 80.8572C215.618 80.8572 215.858 80.8572 216.098 80.4978L223.525 72.472C223.525 72.472 223.525 72.472 223.644 72.3522C223.884 72.1126 224.123 71.9928 224.483 71.9928H238.738C240.295 71.9928 241.493 70.7949 241.493 69.2377V48.0351C241.493 46.4779 240.295 45.28 238.738 45.28H205.676V45.3998Z" fill="#0F145B"/>
<path d="M276.831 8.26535H225.441C220.291 8.26535 216.218 12.4579 216.218 17.4891V48.7538C216.218 53.9047 220.41 57.9775 225.441 57.9775H246.285C247.003 57.9775 247.722 58.2171 248.201 58.8161L257.066 68.3991C260.42 72.1126 266.529 70.4355 267.607 65.5242L268.805 60.0139C269.044 58.8161 270.123 57.9775 271.32 57.9775H277.07C282.221 57.9775 286.294 53.7849 286.294 48.7538V17.4891C286.054 12.3382 281.862 8.26535 276.831 8.26535Z" fill="#D7F1FF"/>
<path d="M261.378 71.5136C259.341 71.5136 257.425 70.6751 255.987 69.1179L247.123 59.5348C246.883 59.2952 246.524 59.0556 246.165 59.0556H225.441C219.691 59.0556 215.02 54.3839 215.02 48.6341V17.4891C215.02 11.7392 219.691 7.06747 225.441 7.06747H276.83C282.58 7.06747 287.252 11.7392 287.252 17.4891V48.7538C287.252 54.5037 282.58 59.1754 276.83 59.1754H271.08C270.481 59.1754 269.883 59.6546 269.763 60.2535L268.565 65.7638C267.846 69.2377 264.851 71.5136 261.378 71.5136ZM225.441 9.46324C221.009 9.46324 217.415 13.0569 217.415 17.4891V48.7538C217.415 53.186 221.009 56.7797 225.441 56.7797H246.284C247.362 56.7797 248.321 57.2588 249.039 57.9776L257.904 67.5606C258.862 68.6387 260.18 69.1179 261.497 69.1179C263.414 69.1179 265.81 67.92 266.409 65.1648L267.607 59.6546C267.966 57.9776 269.523 56.6599 271.2 56.6599H276.95C281.382 56.6599 284.976 53.0662 284.976 48.6341V17.4891C284.976 13.0569 281.382 9.46324 276.95 9.46324H225.441Z" fill="#0F145B"/>
<path d="M255.748 28.27H227.957C227.238 28.27 226.759 27.7909 226.759 27.0722C226.759 26.3534 227.238 25.8743 227.957 25.8743H255.748C256.466 25.8743 256.946 26.3534 256.946 27.0722C256.946 27.7909 256.466 28.27 255.748 28.27Z" fill="#0F145B"/>
<path d="M273.836 42.405H227.957C227.238 42.405 226.759 41.9259 226.759 41.2072C226.759 40.4884 227.238 40.0093 227.957 40.0093H273.836C274.554 40.0093 275.034 40.4884 275.034 41.2072C275.034 41.9259 274.554 42.405 273.836 42.405Z" fill="#0F145B"/>
<path d="M147.219 71.2741C149.336 71.2741 151.053 69.5579 151.053 67.4409C151.053 65.3239 149.336 63.6077 147.219 63.6077C145.102 63.6077 143.386 65.3239 143.386 67.4409C143.386 69.5579 145.102 71.2741 147.219 71.2741Z" fill="#0F145B"/>
</svg>
