<svg width="152" height="202" viewBox="0 0 152 202" fill="none" xmlns="http://www.w3.org/2000/svg">
<g filter="url(#filter0_d)">
<path d="M89.4935 64.0745C88.432 66.9573 85.1724 68.4612 82.2882 67.3991C79.4039 66.337 77.8982 63.0782 78.9597 60.1955L88.929 33.123C77.3929 31.5792 65.9979 37.7732 61.2631 48.6972C58.4869 55.0762 58.3903 62.2995 60.9794 68.8038C63.5685 75.3082 68.5262 80.4075 75.0341 83.231C88.3006 88.9703 103.794 82.8621 109.577 69.4775C112.492 62.7226 112.476 55.0309 109.385 48.3418C108.164 45.4723 109.364 42.2135 112.28 40.8679C115.15 39.6475 118.411 40.8482 119.758 43.7639C123.833 52.808 124.067 62.9999 120.698 72.1494C120.467 72.7761 120.236 73.4027 120.006 74.0294C111.848 93.087 89.6775 101.86 70.6094 93.6998C61.3888 89.7351 54.2591 82.4126 50.5736 73.0849C46.8882 63.7572 46.9508 53.5323 50.9139 44.3169C57.9764 27.8451 75.6729 18.8476 92.8983 22.3441L98.7599 6.42647C72.7432 0.119633 45.6312 14.1898 36.1696 39.8837L7.41552 117.968C-2.78456 145.667 11.4471 176.243 39.0356 186.402C66.7496 196.608 97.3328 182.392 107.487 154.818L136.287 76.609C145.887 50.5391 133.92 21.9358 109.34 10.1802L89.4935 64.0745Z" fill="#FFCDBD"/>
</g>
<defs>
<filter id="filter0_d" x="0.112793" y="0.928223" width="151.485" height="200.781" filterUnits="userSpaceOnUse" color-interpolation-filters="sRGB">
<feFlood flood-opacity="0" result="BackgroundImageFix"/>
<feColorMatrix in="SourceAlpha" type="matrix" values="0 0 0 0 0 0 0 0 0 0 0 0 0 0 0 0 0 0 127 0"/>
<feOffset dx="4" dy="4"/>
<feGaussianBlur stdDeviation="4"/>
<feColorMatrix type="matrix" values="0 0 0 0 0 0 0 0 0 0 0 0 0 0 0 0 0 0 0.25 0"/>
<feBlend mode="normal" in2="BackgroundImageFix" result="effect1_dropShadow"/>
<feBlend mode="normal" in="SourceGraphic" in2="effect1_dropShadow" result="shape"/>
</filter>
</defs>
</svg>
