<svg width="303" height="241" viewBox="0 0 303 241" fill="none" xmlns="http://www.w3.org/2000/svg">
<path d="M276.112 87.9247H210.468C205.796 87.9247 202.083 84.2113 202.083 79.5395V31.6241C202.083 26.9524 205.796 23.239 210.468 23.239H276.112C280.784 23.239 284.497 26.9524 284.497 31.6241V79.5395C284.497 84.2113 280.784 87.9247 276.112 87.9247Z" fill="#D7F1FF"/>
<path d="M276.112 89.1226H210.468C205.197 89.1226 200.885 84.8102 200.885 79.5395V31.6242C200.885 26.3535 205.197 22.0411 210.468 22.0411H276.112C281.383 22.0411 285.695 26.3535 285.695 31.6242V79.5395C285.695 84.8102 281.383 89.1226 276.112 89.1226ZM210.468 24.4368C206.515 24.4368 203.281 27.6711 203.281 31.6242V79.5395C203.281 83.4925 206.515 86.7268 210.468 86.7268H276.112C280.065 86.7268 283.299 83.4925 283.299 79.5395V31.6242C283.299 27.6711 280.065 24.4368 276.112 24.4368H210.468Z" fill="#0F145B"/>
<path d="M202.083 78.3416L231.551 57.3787C233.108 56.3006 235.264 56.1808 236.941 57.2589L247.483 64.0868C248.681 64.9253 250.358 64.8056 251.436 63.8472L266.529 51.7486C268.206 50.4309 270.482 50.3112 272.279 51.6288L284.617 60.3734V79.3C284.617 84.0915 280.784 87.9247 275.992 87.9247H202.203V78.3416H202.083Z" fill="#FFCDBD"/>
<path d="M275.872 89.1226H202.083C201.364 89.1226 200.885 88.6434 200.885 87.9247V78.3416C200.885 77.9823 201.124 77.6229 201.364 77.3833L230.832 56.4204C232.748 54.9829 235.504 54.9829 237.54 56.3006L248.081 63.1285C248.92 63.6077 249.998 63.6077 250.717 63.0087L265.69 50.9101C267.727 49.2331 270.721 49.2331 272.878 50.6705L285.216 59.4151C285.575 59.6547 285.695 60.014 285.695 60.3734V79.3C285.695 84.6904 281.263 89.1226 275.872 89.1226ZM203.281 86.7268H275.872C279.945 86.7268 283.299 83.3728 283.299 79.3V60.9723L271.44 52.5871C270.122 51.7486 268.326 51.7486 267.128 52.7069L252.034 64.8056C250.477 66.0034 248.321 66.1232 246.644 65.0451L236.103 58.2172C234.905 57.4985 233.228 57.4985 232.15 58.337L203.161 78.9406V86.7268H203.281Z" fill="#0F145B"/>
<path d="M246.045 51.9882C251.007 51.9882 255.029 47.9658 255.029 43.004C255.029 38.0422 251.007 34.0199 246.045 34.0199C241.083 34.0199 237.061 38.0422 237.061 43.004C237.061 47.9658 241.083 51.9882 246.045 51.9882Z" fill="#FFCDBD"/>
<path d="M246.045 53.1861C240.415 53.1861 235.863 48.6341 235.863 43.004C235.863 37.374 240.415 32.822 246.045 32.822C251.675 32.822 256.227 37.374 256.227 43.004C256.227 48.6341 251.675 53.1861 246.045 53.1861ZM246.045 35.2178C241.733 35.2178 238.259 38.6917 238.259 43.004C238.259 47.3164 241.733 50.7903 246.045 50.7903C250.357 50.7903 253.831 47.3164 253.831 43.004C253.831 38.6917 250.357 35.2178 246.045 35.2178Z" fill="#0F145B"/>
<path d="M151.053 240.775C234.478 240.775 302.106 228.654 302.106 213.703C302.106 198.751 234.478 186.63 151.053 186.63C67.6288 186.63 0 198.751 0 213.703C0 228.654 67.6288 240.775 151.053 240.775Z" fill="#003DA6"/>
<path d="M206.515 198.609H44.2017C34.2592 198.609 26.2334 190.464 26.2334 180.641V73.5501C26.2334 63.6076 34.379 55.5818 44.2017 55.5818H206.515C216.457 55.5818 224.483 63.7274 224.483 73.5501V180.641C224.483 190.464 216.457 198.609 206.515 198.609Z" fill="white"/>
<path d="M206.515 199.807H44.2018C33.6604 199.807 25.0356 191.182 25.0356 180.641V73.5501C25.0356 63.0087 33.6604 54.3839 44.2018 54.3839H206.515C217.056 54.3839 225.681 63.0087 225.681 73.5501V180.641C225.681 191.182 217.056 199.807 206.515 199.807ZM44.2018 56.7797C34.9781 56.7797 27.4314 64.3264 27.4314 73.5501V180.641C27.4314 189.865 34.9781 197.411 44.2018 197.411H206.515C215.739 197.411 223.285 189.865 223.285 180.641V73.5501C223.285 64.3264 215.739 56.7797 206.515 56.7797H44.2018Z" fill="#0F145B"/>
<path d="M26.2334 159.438V73.5501C26.2334 63.6076 34.379 55.5818 44.2017 55.5818H206.515C216.457 55.5818 224.483 63.7274 224.483 73.5501V159.438C224.483 169.381 216.457 177.407 206.515 177.407H44.2017C34.2592 177.407 26.2334 169.381 26.2334 159.438Z" fill="white"/>
<path d="M206.515 178.605H44.2018C33.6604 178.605 25.0356 169.98 25.0356 159.438V73.5501C25.0356 63.0087 33.6604 54.3839 44.2018 54.3839H206.515C217.056 54.3839 225.681 63.0087 225.681 73.5501V159.438C225.681 169.98 217.056 178.605 206.515 178.605ZM44.2018 56.7797C34.9781 56.7797 27.4314 64.3264 27.4314 73.5501V159.438C27.4314 168.662 34.9781 176.209 44.2018 176.209H206.515C215.739 176.209 223.285 168.662 223.285 159.438V73.5501C223.285 64.3264 215.739 56.7797 206.515 56.7797H44.2018Z" fill="#0F145B"/>
<path d="M33.9001 156.923V75.3469C33.9001 68.7585 39.2906 63.368 45.879 63.368H204.718C211.307 63.368 216.697 68.7585 216.697 75.3469V156.923C216.697 163.511 211.307 168.902 204.718 168.902H45.879C39.2906 168.902 33.9001 163.511 33.9001 156.923Z" fill="#D7F1FF"/>
<path d="M204.718 170.1H45.8786C38.5715 170.1 32.7019 164.23 32.7019 156.923V75.3469C32.7019 68.0398 38.5715 62.1702 45.8786 62.1702H204.718C212.025 62.1702 217.895 68.0398 217.895 75.3469V156.923C217.895 164.11 212.025 170.1 204.718 170.1ZM45.8786 64.5659C39.8892 64.5659 35.0977 69.3575 35.0977 75.3469V156.923C35.0977 162.912 39.8892 167.704 45.8786 167.704H204.718C210.707 167.704 215.499 162.912 215.499 156.923V75.3469C215.499 69.3575 210.707 64.5659 204.718 64.5659H45.8786Z" fill="#0F145B"/>
<path d="M126.377 192.62C128.692 192.62 130.569 190.743 130.569 188.427C130.569 186.112 128.692 184.235 126.377 184.235C124.061 184.235 122.184 186.112 122.184 188.427C122.184 190.743 124.061 192.62 126.377 192.62Z" fill="#D7F1FF"/>
<path d="M126.377 193.818C123.382 193.818 120.986 191.422 120.986 188.427C120.986 185.432 123.382 183.037 126.377 183.037C129.372 183.037 131.767 185.432 131.767 188.427C131.767 191.422 129.372 193.818 126.377 193.818ZM126.377 185.432C124.7 185.432 123.382 186.75 123.382 188.427C123.382 190.104 124.7 191.422 126.377 191.422C128.054 191.422 129.372 190.104 129.372 188.427C129.372 186.75 128.054 185.432 126.377 185.432Z" fill="#0F145B"/>
<path d="M97.0283 210.828V216.098C97.0283 219.213 109.726 221.728 125.298 221.728C140.871 221.728 153.568 219.213 153.568 216.098V210.828H97.0283Z" fill="#D7F1FF"/>
<path d="M125.299 222.926C114.398 222.926 95.8311 221.489 95.8311 216.098V210.828C95.8311 210.109 96.3102 209.63 97.0289 209.63H153.689C154.408 209.63 154.887 210.109 154.887 210.828V216.098C154.887 221.489 136.32 222.926 125.299 222.926ZM98.2268 212.025V216.098C98.5862 217.656 108.169 220.53 125.299 220.53C142.429 220.53 152.132 217.656 152.371 216.098V212.025H98.2268Z" fill="#0F145B"/>
<path d="M125.298 215.739C140.911 215.739 153.568 213.218 153.568 210.109C153.568 207 140.911 204.479 125.298 204.479C109.685 204.479 97.0283 207 97.0283 210.109C97.0283 213.218 109.685 215.739 125.298 215.739Z" fill="#D7F1FF"/>
<path d="M125.299 216.937C114.398 216.937 95.8311 215.499 95.8311 210.109C95.8311 204.718 114.398 203.281 125.299 203.281C136.2 203.281 154.767 204.718 154.767 210.109C154.767 215.499 136.32 216.937 125.299 216.937ZM125.299 205.677C108.169 205.677 98.4664 208.552 98.2268 210.109C98.5862 211.666 108.169 214.541 125.299 214.541C142.429 214.541 152.132 211.666 152.371 210.109C152.132 208.552 142.549 205.677 125.299 205.677Z" fill="#0F145B"/>
<path d="M138.356 198.609C138.356 198.609 137.637 205.916 141.231 210.348H109.367C109.367 210.348 113.32 206.515 112.601 198.609H138.356Z" fill="white"/>
<path d="M141.35 211.546C141.23 211.546 141.23 211.546 141.35 211.546H109.486C109.007 211.546 108.528 211.307 108.408 210.828C108.169 210.348 108.289 209.869 108.648 209.51C108.768 209.39 112.122 205.916 111.523 198.729C111.523 198.37 111.643 198.01 111.882 197.771C112.122 197.531 112.481 197.411 112.721 197.411H138.475C138.835 197.411 139.194 197.531 139.314 197.771C139.434 198.01 139.673 198.37 139.673 198.729C139.673 198.849 139.074 205.437 142.189 209.51C142.428 209.75 142.548 210.109 142.548 210.348C142.548 211.067 141.949 211.546 141.35 211.546ZM111.762 209.151H139.074C137.277 205.797 137.158 201.843 137.158 199.807H113.919C114.038 204.239 112.84 207.354 111.762 209.151Z" fill="#0F145B"/>
<path d="M142.429 137.757C143.028 130.45 145.663 123.502 150.095 117.512C152.611 114.158 154.048 110.085 154.407 105.653C154.407 105.174 154.407 104.695 154.407 104.216C154.407 91.6381 143.986 81.4561 131.288 81.9352C119.789 82.4144 110.325 91.7579 109.846 103.258C109.607 108.408 111.164 113.2 113.919 117.033C113.919 117.153 114.039 117.153 114.039 117.273C118.351 123.262 121.106 130.33 121.825 137.637H142.429V137.757Z" fill="#FFCDBD"/>
<path d="M142.428 138.955H121.825C121.226 138.955 120.627 138.475 120.627 137.876C120.028 130.929 117.512 124.101 113.08 118.111L112.96 117.872C109.966 113.559 108.408 108.528 108.648 103.258C109.127 91.1589 119.069 81.2165 131.168 80.7373C144.584 80.2582 155.605 90.9194 155.605 104.216C155.605 104.695 155.605 105.174 155.605 105.653C155.365 110.086 153.808 114.398 151.053 118.111C146.741 123.981 144.105 130.809 143.626 137.757C143.506 138.475 143.027 138.955 142.428 138.955ZM122.783 136.559H141.23C141.949 129.611 144.704 122.783 149.017 116.794C151.412 113.559 152.85 109.726 153.089 105.653C153.089 105.174 153.089 104.815 153.089 104.336C153.089 92.4766 143.147 82.7737 131.168 83.2529C120.267 83.6123 111.403 92.4766 110.924 103.377C110.684 108.049 112.002 112.601 114.757 116.434L114.877 116.674C119.309 122.783 122.064 129.611 122.783 136.559Z" fill="#0F145B"/>
<path d="M142.429 136.679H121.825V143.626H142.429V136.679Z" fill="white"/>
<path d="M142.428 144.824H121.825C121.106 144.824 120.627 144.345 120.627 143.626V136.679C120.627 135.96 121.106 135.481 121.825 135.481H142.428C143.147 135.481 143.626 135.96 143.626 136.679V143.626C143.626 144.345 143.027 144.824 142.428 144.824ZM123.022 142.428H141.23V137.876H123.022V142.428Z" fill="#0F145B"/>
<path d="M132.126 149.855C137.757 149.855 142.428 147.1 142.428 143.626H121.944C121.825 147.1 126.377 149.855 132.126 149.855Z" fill="#FFCDBD"/>
<path d="M132.126 151.053C125.658 151.053 120.627 147.819 120.627 143.626C120.627 142.908 121.106 142.428 121.825 142.428H142.308C143.027 142.428 143.506 142.908 143.506 143.626C143.506 147.819 138.475 151.053 132.126 151.053ZM123.262 144.824C124.22 146.98 127.934 148.657 132.007 148.657C136.079 148.657 139.793 146.98 140.751 144.824H123.262Z" fill="#0F145B"/>
<path d="M172.975 156.923H91.1592V75.1073H172.975V156.923ZM93.5549 154.527H170.579V77.5031H93.5549V154.527Z" fill="white"/>
<path d="M92.3569 80.1384C94.4739 80.1384 96.1901 78.4223 96.1901 76.3052C96.1901 74.1882 94.4739 72.472 92.3569 72.472C90.2399 72.472 88.5237 74.1882 88.5237 76.3052C88.5237 78.4223 90.2399 80.1384 92.3569 80.1384Z" fill="#0F145B"/>
<path d="M171.777 80.1384C173.894 80.1384 175.61 78.4223 175.61 76.3052C175.61 74.1882 173.894 72.472 171.777 72.472C169.66 72.472 167.943 74.1882 167.943 76.3052C167.943 78.4223 169.66 80.1384 171.777 80.1384Z" fill="#0F145B"/>
<path d="M171.777 119.788C173.894 119.788 175.61 118.072 175.61 115.955C175.61 113.838 173.894 112.122 171.777 112.122C169.66 112.122 167.943 113.838 167.943 115.955C167.943 118.072 169.66 119.788 171.777 119.788Z" fill="#0F145B"/>
<path d="M92.3569 119.788C94.4739 119.788 96.1901 118.072 96.1901 115.955C96.1901 113.838 94.4739 112.122 92.3569 112.122C90.2399 112.122 88.5237 113.838 88.5237 115.955C88.5237 118.072 90.2399 119.788 92.3569 119.788Z" fill="#0F145B"/>
<path d="M92.3569 159.558C94.4739 159.558 96.1901 157.842 96.1901 155.725C96.1901 153.608 94.4739 151.892 92.3569 151.892C90.2399 151.892 88.5237 153.608 88.5237 155.725C88.5237 157.842 90.2399 159.558 92.3569 159.558Z" fill="#0F145B"/>
<path d="M171.777 159.558C173.894 159.558 175.61 157.842 175.61 155.725C175.61 153.608 173.894 151.892 171.777 151.892C169.66 151.892 167.943 153.608 167.943 155.725C167.943 157.842 169.66 159.558 171.777 159.558Z" fill="#0F145B"/>
<path d="M116.075 109.726C115.595 109.726 115.116 109.367 114.877 108.888C112.241 100.982 117.632 94.7526 117.871 94.3933C118.351 93.9141 119.069 93.7943 119.548 94.2735C120.028 94.7526 120.147 95.4714 119.668 95.9505C119.668 95.9505 114.996 101.461 117.153 108.049C117.392 108.648 117.033 109.367 116.434 109.606C116.314 109.726 116.194 109.726 116.075 109.726Z" fill="#0F145B"/>
<path d="M84.0918 122.903L80.019 136.918C79.7794 137.637 79.3002 138.116 78.7013 138.475L70.7952 141.949C70.5557 142.069 70.3161 142.189 70.0765 142.428L65.1652 147.34C64.2069 148.298 62.7694 148.298 61.8111 147.34L56.78 142.309C55.8217 141.35 55.8217 139.913 56.78 138.955L61.6913 134.043C61.9309 133.804 62.0507 133.564 62.1705 133.325L65.6443 125.418C65.8839 124.82 66.4828 124.221 67.2016 124.101L81.2168 120.028C83.0137 119.429 84.6907 121.106 84.0918 122.903Z" fill="white"/>
<path d="M63.4881 149.256C62.5298 149.256 61.5714 148.897 60.9725 148.178L55.9414 143.147C55.2226 142.428 54.8633 141.59 54.8633 140.632C54.8633 139.673 55.2226 138.715 55.9414 138.116L60.8527 133.205C60.9725 133.085 61.0923 132.965 61.0923 132.845L64.5661 124.939C65.0453 123.981 65.8838 123.262 66.8421 122.903L80.8574 118.83C82.2948 118.471 83.8521 118.95 84.6906 120.148C85.4093 121.106 85.5291 122.184 85.2895 123.262L81.2167 137.278C80.9772 138.356 80.1386 139.194 79.1803 139.553L71.2743 143.027C71.1545 143.027 71.0347 143.147 70.9149 143.267L66.0036 148.178C65.2849 148.897 64.4464 149.256 63.4881 149.256ZM81.8157 120.986C81.6959 120.986 81.5761 120.986 81.4563 120.986L67.4411 125.059C67.0817 125.179 66.8421 125.418 66.7223 125.778L63.2485 133.684C63.0089 134.043 62.7693 134.522 62.5297 134.762L57.6184 139.673C57.3788 139.913 57.259 140.152 57.259 140.512C57.259 140.871 57.3788 141.111 57.6184 141.35L62.6495 146.381C63.1287 146.861 63.8474 146.861 64.3266 146.381L69.2379 141.47C69.5973 141.111 69.9566 140.871 70.316 140.751L78.222 137.278C78.5814 137.158 78.821 136.798 78.9408 136.559L83.0136 122.544C83.1333 122.064 83.0135 121.705 82.774 121.465C82.5344 121.226 82.175 120.986 81.8157 120.986Z" fill="#0F145B"/>
<path d="M76.5446 128.773C76.1852 128.773 75.9456 128.653 75.706 128.413C75.2269 127.934 75.2269 127.215 75.706 126.736L82.0549 120.387C82.534 119.908 83.2527 119.908 83.7319 120.387C84.211 120.867 84.211 121.585 83.7319 122.064L77.3831 128.413C77.1435 128.653 76.9039 128.773 76.5446 128.773Z" fill="#0F145B"/>
<path d="M70.3158 142.069L61.8108 133.564L56.6599 138.715C55.7016 139.673 55.7016 141.231 56.6599 142.189L61.5712 147.1C62.5295 148.058 64.0868 148.058 65.0451 147.1L70.3158 142.069Z" fill="#003DA6"/>
<path d="M63.4878 149.256C62.5295 149.256 61.5712 148.897 60.8525 148.178L55.9411 143.267C54.5037 141.83 54.5037 139.554 55.9411 138.116L61.9306 132.127L72.1126 142.309L66.1231 148.298C65.4044 148.777 64.4461 149.256 63.4878 149.256ZM61.9306 135.361L57.6182 139.673C57.139 140.152 57.139 140.991 57.6182 141.47L62.5295 146.381C62.7691 146.621 63.1285 146.741 63.4878 146.741C63.8472 146.741 64.2065 146.621 64.4461 146.381L68.7585 142.069L61.9306 135.361Z" fill="#0F145B"/>
<path d="M239.337 222.327H208.791C203.76 222.327 199.687 218.254 199.687 213.223V171.058H248.321V213.223C248.441 218.254 244.368 222.327 239.337 222.327Z" fill="#D7F1FF"/>
<path d="M239.337 223.525H208.791C203.161 223.525 198.489 218.973 198.489 213.223V171.058C198.489 170.339 198.968 169.86 199.687 169.86H248.321C249.04 169.86 249.519 170.339 249.519 171.058V213.223C249.639 218.853 244.967 223.525 239.337 223.525ZM200.885 172.136V213.104C200.885 217.416 204.359 221.01 208.791 221.01H239.337C243.649 221.01 247.243 217.536 247.243 213.104V172.136H200.885Z" fill="#0F145B"/>
<path d="M214.421 165.787L229.514 169.62L243.29 116.195C243.649 114.637 242.691 112.96 241.134 112.601L231.91 110.205C230.353 109.846 228.676 110.804 228.316 112.362L214.421 165.787Z" fill="#FFCDBD"/>
<path d="M229.514 170.818C229.395 170.818 229.275 170.818 229.275 170.818L214.182 166.985C213.583 166.865 213.103 166.147 213.343 165.548L227.119 112.122C227.598 110.325 229.275 109.007 231.192 109.007C231.551 109.007 231.91 109.007 232.27 109.127L241.493 111.523C242.571 111.763 243.53 112.481 244.009 113.44C244.488 114.398 244.728 115.476 244.488 116.674L230.712 170.1C230.593 170.459 230.473 170.699 230.113 170.818C229.874 170.818 229.754 170.818 229.514 170.818ZM215.859 164.949L228.676 168.183L242.092 115.955C242.212 115.476 242.092 114.997 241.853 114.638C241.613 114.278 241.254 113.919 240.775 113.799L231.551 111.403C230.593 111.164 229.634 111.763 229.395 112.721L215.859 164.949Z" fill="#0F145B"/>
<path d="M242.092 121.705C241.972 121.705 241.853 121.705 241.853 121.705L232.389 119.309C231.79 119.189 231.311 118.471 231.551 117.872C231.671 117.273 232.389 116.794 232.988 117.033L242.452 119.429C243.05 119.549 243.53 120.268 243.29 120.867C243.17 121.346 242.691 121.705 242.092 121.705Z" fill="#0F145B"/>
<path d="M240.415 128.174C240.296 128.174 240.176 128.174 240.176 128.174L234.546 126.736C233.947 126.616 233.468 125.898 233.707 125.299C233.827 124.7 234.546 124.221 235.145 124.46L240.775 125.898C241.374 126.017 241.853 126.736 241.613 127.335C241.494 127.814 241.014 128.174 240.415 128.174Z" fill="#0F145B"/>
<path d="M238.978 134.043C238.858 134.043 238.738 134.043 238.738 134.043L233.108 132.606C232.509 132.486 232.03 131.767 232.27 131.168C232.389 130.569 233.108 130.09 233.707 130.33L239.337 131.767C239.936 131.887 240.415 132.606 240.176 133.205C239.936 133.684 239.457 134.043 238.978 134.043Z" fill="#0F145B"/>
<path d="M237.181 140.751C237.061 140.751 236.942 140.751 236.942 140.751L227.478 138.356C226.879 138.236 226.4 137.517 226.64 136.918C226.76 136.319 227.478 135.84 228.077 136.08L237.541 138.475C238.14 138.595 238.619 139.314 238.379 139.913C238.259 140.392 237.78 140.751 237.181 140.751Z" fill="#0F145B"/>
<path d="M235.504 147.22C235.384 147.22 235.264 147.22 235.264 147.22L229.634 145.783C229.035 145.663 228.556 144.944 228.796 144.345C228.915 143.746 229.634 143.267 230.233 143.507L235.863 144.944C236.462 145.064 236.941 145.783 236.702 146.381C236.582 146.861 236.103 147.22 235.504 147.22Z" fill="#0F145B"/>
<path d="M234.066 153.09C233.947 153.09 233.827 153.09 233.827 153.09L228.197 151.652C227.598 151.532 227.119 150.814 227.358 150.215C227.478 149.616 228.197 149.137 228.796 149.376L234.426 150.814C235.025 150.933 235.504 151.652 235.264 152.251C235.144 152.73 234.545 153.09 234.066 153.09Z" fill="#0F145B"/>
<path d="M232.509 159.079C232.389 159.079 232.269 159.079 232.269 159.079L222.806 156.683C222.207 156.563 221.728 155.845 221.968 155.246C222.087 154.647 222.806 154.168 223.405 154.407L232.868 156.803C233.467 156.923 233.946 157.642 233.707 158.24C233.587 158.72 233.108 159.079 232.509 159.079Z" fill="#0F145B"/>
<path d="M230.832 165.548C230.713 165.548 230.593 165.548 230.593 165.548L224.963 164.11C224.364 163.99 223.885 163.272 224.124 162.673C224.244 162.074 224.963 161.595 225.562 161.834L231.192 163.272C231.791 163.391 232.27 164.11 232.03 164.709C231.911 165.188 231.431 165.548 230.832 165.548Z" fill="#0F145B"/>
<path d="M249.275 139.931L242.907 138.24L235.097 167.647L241.464 169.338L249.275 139.931Z" fill="white"/>
<path d="M241.493 170.698C241.374 170.698 241.254 170.698 241.134 170.698L234.785 169.021C234.186 168.902 233.707 168.183 233.947 167.584L241.733 138.116C241.853 137.757 241.973 137.517 242.332 137.397C242.572 137.278 242.931 137.158 243.29 137.278L249.639 138.955C250.238 139.074 250.717 139.793 250.478 140.392L242.691 169.86C242.572 170.219 242.452 170.459 242.092 170.579C241.853 170.579 241.733 170.698 241.493 170.698ZM236.582 166.865L240.655 167.943L247.842 140.751L243.769 139.673L236.582 166.865Z" fill="#0F145B"/>
<path d="M205.201 127.08L198.731 128.324L206.013 166.201L212.483 164.958L205.201 127.08Z" fill="#FFCDBD"/>
<path d="M205.916 167.344C205.677 167.344 205.437 167.225 205.198 167.105C204.958 166.985 204.719 166.626 204.719 166.386L197.412 128.533C197.292 127.934 197.771 127.215 198.37 127.095L204.838 125.898C205.198 125.898 205.437 125.898 205.797 126.137C206.036 126.257 206.276 126.616 206.276 126.856L213.583 164.709C213.703 165.308 213.224 166.027 212.625 166.147L206.156 167.344C206.156 167.344 206.036 167.344 205.916 167.344ZM200.047 129.252L206.875 164.709L211.067 163.871L204.24 128.413L200.047 129.252Z" fill="#0F145B"/>
<path d="M201.724 121.585L199.927 121.945C198.609 122.184 197.771 123.502 198.011 124.7L199.089 130.33L205.557 129.132L204.479 123.502C204.24 122.184 203.042 121.346 201.724 121.585Z" fill="white"/>
<path d="M199.088 131.528C198.489 131.528 198.01 131.168 197.89 130.569L196.812 124.939C196.453 123.023 197.77 121.106 199.687 120.747L201.484 120.387C203.52 120.028 205.317 121.346 205.676 123.262L206.755 128.892C206.874 129.252 206.754 129.491 206.515 129.731C206.395 129.97 206.036 130.21 205.796 130.21L199.328 131.408C199.208 131.528 199.208 131.528 199.088 131.528ZM202.203 122.663C202.083 122.663 202.083 122.663 201.963 122.663L200.166 123.023C199.567 123.143 199.088 123.741 199.208 124.46L200.046 128.892L204.239 128.054L203.4 123.622C203.281 123.143 202.682 122.663 202.203 122.663Z" fill="#0F145B"/>
<path d="M248.681 170.818H199.567C197.89 170.818 196.573 169.501 196.573 167.824V165.188C196.573 163.511 197.89 162.194 199.567 162.194H248.681C250.358 162.194 251.675 163.511 251.675 165.188V167.824C251.675 169.501 250.358 170.818 248.681 170.818Z" fill="white"/>
<path d="M248.681 172.016H199.568C197.292 172.016 195.375 170.1 195.375 167.824V165.188C195.375 162.912 197.292 160.996 199.568 160.996H248.681C250.957 160.996 252.874 162.912 252.874 165.188V167.824C252.874 170.219 250.957 172.016 248.681 172.016ZM199.568 163.511C198.61 163.511 197.771 164.35 197.771 165.308V167.943C197.771 168.902 198.61 169.74 199.568 169.74H248.681C249.639 169.74 250.478 168.902 250.478 167.943V165.308C250.478 164.35 249.639 163.511 248.681 163.511H199.568Z" fill="#0F145B"/>
<path d="M246.405 133.444C247.004 132.606 248.441 132.965 248.561 134.043L248.681 135.481L249.16 140.033L245.926 139.194L242.691 138.356L245.447 134.642L246.405 133.444Z" fill="#D7F1FF"/>
<path d="M249.28 141.231C249.16 141.231 249.04 141.231 248.921 141.231L242.572 139.553C242.212 139.434 241.853 139.194 241.733 138.835C241.613 138.475 241.613 137.996 241.853 137.757L245.447 132.845C245.926 132.246 246.645 131.887 247.363 131.887C248.561 131.887 249.639 132.845 249.759 134.043L250.358 139.793C250.358 139.913 250.358 140.033 250.358 140.152C250.478 140.632 249.999 141.231 249.28 141.231ZM244.848 137.637L247.842 138.475L247.363 134.163L244.848 137.637Z" fill="#0F145B"/>
<path d="M206.515 189.505C205.796 189.505 205.317 189.026 205.317 188.307V170.818C205.317 170.1 205.796 169.62 206.515 169.62C207.234 169.62 207.713 170.1 207.713 170.818V188.307C207.713 189.026 207.234 189.505 206.515 189.505Z" fill="#0F145B"/>
<path d="M242.212 206.875C241.493 206.875 241.014 206.395 241.014 205.677V184.235C241.014 183.516 241.493 183.037 242.212 183.037C242.931 183.037 243.41 183.516 243.41 184.235V205.677C243.41 206.395 242.811 206.875 242.212 206.875Z" fill="#0F145B"/>
<path d="M163.751 19.765H176.688C178.724 19.765 180.281 21.3223 180.281 23.3587V36.0563C180.281 38.0927 178.724 39.6499 176.688 39.6499H163.751C161.714 39.6499 160.157 38.0927 160.157 36.0563V23.3587C160.157 21.4421 161.834 19.765 163.751 19.765Z" fill="#D7F1FF"/>
<path d="M176.688 40.8478H163.751C161.115 40.8478 158.959 38.6917 158.959 36.0563V23.3587C158.959 20.7234 161.115 18.5672 163.751 18.5672H176.688C179.323 18.5672 181.479 20.7234 181.479 23.3587V36.0563C181.479 38.8114 179.323 40.8478 176.688 40.8478ZM163.751 20.963C162.433 20.963 161.355 22.0411 161.355 23.3587V36.0563C161.355 37.374 162.433 38.4521 163.751 38.4521H176.688C178.006 38.4521 179.084 37.374 179.084 36.0563V23.3587C179.084 22.0411 178.006 20.963 176.688 20.963H163.751Z" fill="#0F145B"/>
<path d="M168.782 27.192C168.063 27.9107 168.063 29.1086 168.782 29.9471L169.141 30.3065C169.86 31.0252 171.058 31.0252 171.896 30.3065C172.256 29.9471 172.735 29.7075 173.214 29.7075H173.693C174.172 29.7075 174.651 29.468 175.011 29.1086L185.792 18.3276C186.51 17.6089 186.51 16.411 185.792 15.5725L183.396 13.1767C182.677 12.458 181.479 12.458 180.641 13.1767L169.86 23.9577C169.5 24.3171 169.261 24.7962 169.261 25.2754V25.7545C169.381 26.3535 169.141 26.8326 168.782 27.192Z" fill="white"/>
<path d="M170.459 31.9836C169.62 31.9836 168.902 31.6242 168.303 31.0253L167.943 30.6659C166.745 29.468 166.745 27.4316 167.943 26.2337C168.063 26.1139 168.183 25.8744 168.183 25.7546V25.2754C168.183 24.4369 168.542 23.7182 169.141 23.1192L179.922 12.3383C181.12 11.1404 183.156 11.1404 184.354 12.3383L186.75 14.734C187.349 15.333 187.708 16.0517 187.708 16.8902C187.708 17.7287 187.349 18.4475 186.75 19.0464L175.969 29.8274C175.37 30.4263 174.651 30.7857 173.813 30.7857H173.334C173.094 30.7857 172.974 30.9055 172.855 31.0253C172.136 31.744 171.297 31.9836 170.459 31.9836ZM182.078 13.7757C181.839 13.7757 181.719 13.8955 181.599 14.0153L170.818 24.7963C170.698 24.916 170.579 25.1556 170.579 25.2754V25.7546C170.579 26.5931 170.219 27.3118 169.62 27.9108C169.381 28.1503 169.381 28.6295 169.62 28.8691L169.98 29.2284C170.219 29.468 170.698 29.468 170.938 29.2284C171.537 28.6295 172.256 28.2701 173.094 28.2701H173.573C173.813 28.2701 173.933 28.1503 174.053 28.0305L184.834 17.2496C184.953 17.1298 185.073 16.8902 185.073 16.7704C185.073 16.6506 184.953 16.4111 184.834 16.2913L182.438 13.8955C182.438 13.8955 182.318 13.7757 182.078 13.7757Z" fill="#0F145B"/>
<path d="M196.573 2.51551C194.776 0.71868 191.901 0.718682 190.224 2.39572L181.839 10.7809L180.521 9.46323L178.245 11.7392L187.229 20.7233L189.506 18.4474L188.188 17.1297L196.573 8.74451C198.37 7.06747 198.37 4.19254 196.573 2.51551Z" fill="#D7F1FF"/>
<path d="M187.229 22.0411C186.87 22.0411 186.63 21.9213 186.391 21.6817L177.407 12.6976C177.167 12.458 177.047 12.2184 177.047 11.8591C177.047 11.4997 177.167 11.2601 177.407 11.0205L179.683 8.74455C180.162 8.2654 180.881 8.2654 181.36 8.74455L181.839 9.22371L189.386 1.67704C190.464 0.598939 191.901 0 193.458 0C195.016 0 196.453 0.598939 197.531 1.67704C199.807 3.95302 199.807 7.54667 197.651 9.82265L190.104 17.3693L190.583 17.8485C191.063 18.3276 191.063 19.0464 190.583 19.5255L188.308 21.8015C187.828 21.9213 187.469 22.0411 187.229 22.0411ZM179.922 11.8591L187.229 19.1661L187.828 18.5672L187.349 18.088C186.87 17.6089 186.87 16.8902 187.349 16.411L195.734 8.02583C197.052 6.70815 197.052 4.67175 195.734 3.35407C194.417 2.0364 192.261 2.0364 191.063 3.23429L182.677 11.6195C182.198 12.0986 181.48 12.0986 181 11.6195L180.521 11.1403L179.922 11.8591Z" fill="#0F145B"/>
</svg>
