<svg width="70" height="65" viewBox="0 0 70 65" fill="none" xmlns="http://www.w3.org/2000/svg">
<path d="M1.21222 35.3585V26.0313C1.21222 24.0805 2.182 22.2516 3.8185 21.1543L31.639 2.25588C33.6391 0.914706 36.2454 0.914706 38.2456 2.25588L66.0661 21.1543C67.7026 22.2516 68.6724 24.0805 68.6724 26.0313V34.8099C68.6724 38.0409 66.0661 40.6623 62.8537 40.7232L7.21272 41.2719C3.87911 41.3329 1.21222 38.6505 1.21222 35.3585Z" fill="#D7F1FF"/>
<path d="M7.0915 42.4909C3.21239 42.4909 0 39.3208 0 35.3583V26.031C0 23.6535 1.15161 21.4588 3.09116 20.1176L30.9116 1.21925C32.0633 0.426738 33.4573 0 34.8514 0C36.2454 0 37.6395 0.426738 38.7911 1.21925L66.6116 20.1176C68.5511 21.4588 69.7027 23.6535 69.7027 26.031V34.8096C69.7027 38.7112 66.551 41.8813 62.6718 41.9422L7.03088 42.4909C7.15211 42.4909 7.0915 42.4909 7.0915 42.4909ZM34.912 2.4385C34.0028 2.4385 33.0936 2.74331 32.3057 3.23101L4.42461 22.1904C3.15178 23.0438 2.36383 24.5069 2.36383 26.092V35.4192C2.36383 37.9797 4.48522 40.1133 7.03088 40.1133V41.3326L7.0915 40.1133L62.7325 39.5647C65.2781 39.5647 67.3389 37.431 67.3389 34.8706V26.031C67.3389 24.446 66.551 23.0438 65.2781 22.1294L37.4576 3.23101C36.7303 2.74331 35.8211 2.4385 34.912 2.4385Z" fill="#0F145B"/>
<path d="M50.7921 9.02197H18.6682C14.4861 9.02197 11.0919 12.4359 11.0919 16.6423V49.7449C11.0919 53.9514 14.4861 57.3653 18.6682 57.3653H50.7921C54.9743 57.3653 58.3685 53.9514 58.3685 49.7449V16.6423C58.3685 12.4359 54.9743 9.02197 50.7921 9.02197Z" fill="#FFCDBD"/>
<path d="M50.7921 58.5845H18.6682C13.8194 58.5845 9.87964 54.622 9.87964 49.745V16.6423C9.87964 11.7653 13.8194 7.80273 18.6682 7.80273H50.7921C55.641 7.80273 59.5807 11.7653 59.5807 16.6423V49.745C59.5807 54.622 55.641 58.5845 50.7921 58.5845ZM18.6682 10.2412C15.1528 10.2412 12.3041 13.1065 12.3041 16.6423V49.745C12.3041 53.2808 15.1528 56.146 18.6682 56.146H50.7921C54.3076 56.146 57.1563 53.2808 57.1563 49.745V16.6423C57.1563 13.1065 54.3076 10.2412 50.7921 10.2412H18.6682Z" fill="#0F145B"/>
<path d="M1.21222 55.2319V25.2993L34.3665 52.3667V62.9132H8.7886C4.60644 62.8522 1.21222 59.4383 1.21222 55.2319Z" fill="#D7F1FF"/>
<path d="M34.3059 64.0715H8.78861C3.93972 64.0715 0 60.1089 0 55.2319V25.2993C0 24.8116 0.242443 24.3849 0.666721 24.202C1.091 24.0191 1.57589 24.0801 1.93955 24.3849L35.0938 51.4522C35.3969 51.6961 35.5181 52.0619 35.5181 52.4276V62.9742C35.5181 63.5228 34.9726 64.0715 34.3059 64.0715ZM2.42444 27.8597V55.2319C2.42444 58.7677 5.27316 61.633 8.78861 61.633H33.1543V52.9153L2.42444 27.8597Z" fill="#0F145B"/>
<path d="M68.6723 55.2309V25.2983L35.5181 52.3047V62.8513H61.0959C65.2781 62.8513 68.6723 59.4374 68.6723 55.2309Z" fill="#D7F1FF"/>
<path d="M61.0959 64.0709H35.5181C34.8513 64.0709 34.3058 63.5223 34.3058 62.8517V52.3052C34.3058 51.9394 34.4877 51.5736 34.7301 51.3298L67.8844 24.3234C68.248 24.0185 68.7329 23.9576 69.1572 24.1405C69.5815 24.3234 69.8239 24.7501 69.8239 25.2378V55.1704C69.8845 60.1084 65.8842 64.0709 61.0959 64.0709ZM36.7303 61.6324H61.0959C64.6114 61.6324 67.4601 58.7672 67.4601 55.2314V27.8592L36.7303 52.9148V61.6324Z" fill="#0F145B"/>
<path d="M31.4571 37.1263C33.336 35.5412 36.1242 35.5412 38.0031 37.1263L51.5194 48.5872L63.4598 58.707C65.0963 60.1091 64.1265 62.7915 61.9445 62.7915H34.7301H7.51572C5.33372 62.7915 4.36395 60.1091 6.00045 58.707L17.9408 48.5872L31.4571 37.1263Z" fill="#D7F1FF"/>
<path d="M62.0051 64.072H7.51575C6.00048 64.072 4.72765 63.1576 4.18215 61.7554C3.69726 60.3533 4.06092 58.8292 5.21253 57.8538L30.6692 36.2121C31.8208 35.2367 33.2148 34.749 34.7301 34.749C36.2454 34.749 37.6395 35.2977 38.7911 36.2121L64.2477 57.8538C65.3993 58.8292 65.8236 60.3533 65.2781 61.7554C64.7932 63.1576 63.4598 64.072 62.0051 64.072ZM34.7301 37.1266C33.821 37.1266 32.9118 37.4314 32.2451 38.041L6.78842 59.6827C6.24292 60.1704 6.42476 60.7191 6.48537 60.9019C6.54598 61.0848 6.78842 61.6335 7.51575 61.6335H62.0051C62.7324 61.6335 62.9749 61.0848 63.0355 60.9019C63.0961 60.7191 63.2779 60.1094 62.7324 59.6827L37.2758 38.041C36.5485 37.4314 35.6393 37.1266 34.7301 37.1266Z" fill="#0F145B"/>
<path d="M46.0644 21.0318H23.0322C22.3654 21.0318 21.8199 20.4831 21.8199 19.8125C21.8199 19.1419 22.3654 18.5933 23.0322 18.5933H46.125C46.7917 18.5933 47.3372 19.1419 47.3372 19.8125C47.3372 20.4831 46.7311 21.0318 46.0644 21.0318Z" fill="#0F145B"/>
<path d="M46.0644 28.896H23.0322C22.3654 28.896 21.8199 28.3474 21.8199 27.6768C21.8199 27.0062 22.3654 26.4575 23.0322 26.4575H46.125C46.7917 26.4575 47.3372 27.0062 47.3372 27.6768C47.3372 28.3474 46.7311 28.896 46.0644 28.896Z" fill="#0F145B"/>
</svg>
