<svg width="74" height="68" viewBox="0 0 74 68" fill="none" xmlns="http://www.w3.org/2000/svg">
<path d="M63.8922 66.3674H9.19475C4.8331 66.3674 1.29663 62.831 1.29663 58.4693V9.19448C1.29663 4.83284 4.8331 1.29639 9.19475 1.29639H63.8922C68.2538 1.29639 71.7903 4.83284 71.7903 9.19448V58.4693C71.7903 62.831 68.2538 66.3674 63.8922 66.3674Z" fill="#D7F1FF"/>
<path d="M63.8923 67.6645H9.19483C4.12589 67.6645 0 63.5386 0 58.4697V9.19481C0 4.12587 4.12589 0 9.19483 0H63.8923C68.9612 0 73.0871 4.12587 73.0871 9.19481V58.4697C73.0871 63.5386 68.9612 67.6645 63.8923 67.6645ZM9.19483 2.47554C5.54048 2.47554 2.47554 5.42257 2.47554 9.19481V58.4697C2.47554 62.124 5.42259 65.1889 9.19483 65.1889H63.8923C67.5466 65.1889 70.6115 62.2419 70.6115 58.4697V9.19481C70.6115 5.54046 67.6645 2.47554 63.8923 2.47554H9.19483Z" fill="#0F145B"/>
<path d="M71.7903 16.3853H1.29663V9.19448C1.29663 4.83284 4.8331 1.29639 9.19475 1.29639H63.7743C68.1359 1.29639 71.6724 4.83284 71.6724 9.19448V16.3853H71.7903Z" fill="#FFCDBD"/>
<path d="M71.7904 17.6824H1.29671C0.589419 17.6824 0 17.0929 0 16.3856V9.19481C0 4.12587 4.12589 0 9.19483 0H63.7744C68.8433 0 72.9692 4.12587 72.9692 9.19481V16.3856C72.9692 17.0929 72.4977 17.6824 71.7904 17.6824ZM2.47554 15.0889H70.4937V9.19481C70.4937 5.54046 67.5466 2.47554 63.7744 2.47554H9.19483C5.54048 2.47554 2.47554 5.42257 2.47554 9.19481V15.0889Z" fill="#0F145B"/>
<path d="M12.4955 11.9053C14.1882 11.9053 15.5604 10.5331 15.5604 8.84034C15.5604 7.14762 14.1882 5.77539 12.4955 5.77539C10.8028 5.77539 9.43054 7.14762 9.43054 8.84034C9.43054 10.5331 10.8028 11.9053 12.4955 11.9053Z" fill="#0F145B"/>
<path d="M21.926 11.9053C23.6188 11.9053 24.991 10.5331 24.991 8.84034C24.991 7.14762 23.6188 5.77539 21.926 5.77539C20.2333 5.77539 18.8611 7.14762 18.8611 8.84034C18.8611 10.5331 20.2333 11.9053 21.926 11.9053Z" fill="#0F145B"/>
<path d="M31.2389 11.9053C32.9316 11.9053 34.3038 10.5331 34.3038 8.84034C34.3038 7.14762 32.9316 5.77539 31.2389 5.77539C29.5462 5.77539 28.174 7.14762 28.174 8.84034C28.174 10.5331 29.5462 11.9053 31.2389 11.9053Z" fill="#0F145B"/>
<path d="M45.5024 23.5768H27.5843C26.877 23.5768 26.2876 22.9874 26.2876 22.2801C26.2876 21.5728 26.877 20.9834 27.5843 20.9834H45.5024C46.2097 20.9834 46.7991 21.5728 46.7991 22.2801C46.7991 22.9874 46.2097 23.5768 45.5024 23.5768Z" fill="#0F145B"/>
<path d="M53.047 29.1174H20.1578C19.4505 29.1174 18.8611 28.5279 18.8611 27.8206C18.8611 27.1133 19.4505 26.5239 20.1578 26.5239H53.047C53.7543 26.5239 54.3437 27.1133 54.3437 27.8206C54.2258 28.5279 53.7543 29.1174 53.047 29.1174Z" fill="#0F145B"/>
<path d="M49.9819 44.3238C52.521 44.3238 54.5793 42.2654 54.5793 39.7263C54.5793 37.1873 52.521 35.1289 49.9819 35.1289C47.4429 35.1289 45.3845 37.1873 45.3845 39.7263C45.3845 42.2654 47.4429 44.3238 49.9819 44.3238Z" fill="#FFCDBD"/>
<path d="M49.982 45.6207C48.4495 45.6207 46.917 45.0313 45.7382 43.8525C44.5594 42.6736 43.97 41.259 43.97 39.6087C43.97 38.0762 44.5594 36.5437 45.7382 35.3649C46.917 34.1861 48.3316 33.5967 49.982 33.5967C51.6323 33.5967 53.0469 34.1861 54.2257 35.3649C55.4046 36.5437 55.994 37.9583 55.994 39.6087C55.994 41.1412 55.4046 42.6736 54.2257 43.8525C53.0469 45.0313 51.6323 45.6207 49.982 45.6207ZM49.982 36.4258C49.0389 36.4258 48.2137 36.7795 47.6243 37.4868C47.0349 38.0762 46.5634 38.9014 46.5634 39.8444C46.5634 40.7875 46.917 41.6127 47.6243 42.2021C48.2137 42.7915 49.0389 43.263 49.982 43.263C50.925 43.263 51.7502 42.9094 52.3396 42.2021C52.929 41.6127 53.4006 40.7875 53.4006 39.8444C53.4006 38.9014 53.0469 38.0762 52.3396 37.4868C51.7502 36.6616 50.925 36.4258 49.982 36.4258Z" fill="#0F145B"/>
<path d="M35.2468 65.7777L22.5155 37.9575L10.2557 65.7777H35.2468Z" fill="#FFCDBD"/>
<path d="M35.2467 67.0746H10.2556C9.78412 67.0746 9.43046 66.8388 9.1947 66.4851C8.95893 66.1315 8.95894 65.66 9.07683 65.3063L21.4545 37.4861C21.6902 37.0145 22.0439 36.7788 22.6333 36.7788C23.1048 36.7788 23.5764 37.1324 23.8121 37.4861L36.4255 65.3063C36.6613 65.66 36.5434 66.1315 36.3076 66.4851C36.0719 66.8388 35.6004 67.0746 35.2467 67.0746ZM12.1418 64.4812H33.2427L22.6333 41.0225L12.1418 64.4812Z" fill="#0F145B"/>
<path d="M62.8312 65.7779L52.5754 50.689L41.8481 65.7779H62.8312Z" fill="#FFCDBD"/>
<path d="M62.8312 67.0747H41.7302C41.2587 67.0747 40.7872 66.8389 40.5514 66.3674C40.3156 65.8959 40.3156 65.4244 40.6693 65.0707L51.3966 49.9818C51.6323 49.6281 51.986 49.5103 52.4575 49.5103C52.929 49.5103 53.2827 49.746 53.5185 50.0997L63.7742 65.1886C64.01 65.5422 64.1279 66.1317 63.8921 66.4853C63.7742 66.7211 63.3027 67.0747 62.8312 67.0747ZM44.2057 64.4813H60.4735L52.5754 52.9288L44.2057 64.4813Z" fill="#0F145B"/>
<path d="M48.6852 65.7783L38.3116 42.6733L27.3485 65.7783H48.6852Z" fill="#FFCDBD"/>
<path d="M48.6854 67.0741H27.3487C26.8771 67.0741 26.5235 66.8383 26.2877 66.4847C26.0519 66.131 26.052 65.6595 26.1698 65.3059L37.1329 42.2009C37.3687 41.7294 37.7223 41.4937 38.3117 41.4937C38.7832 41.4937 39.2548 41.8473 39.4905 42.2009L49.8642 65.3059C50.1 65.6595 49.9821 66.131 49.7463 66.4847C49.5106 66.8383 49.1569 67.0741 48.6854 67.0741ZM29.3527 64.4807H46.6814L38.3117 45.7374L29.3527 64.4807Z" fill="#0F145B"/>
</svg>
