<svg width="33" height="26" viewBox="0 0 33 26" fill="none" xmlns="http://www.w3.org/2000/svg">
<path d="M32.2227 25.3016V25.3737H32.2948H32.3308C32.3308 25.3737 32.3308 25.3737 32.3308 25.3377V25.3016H32.2948H32.2227ZM32.2948 25.2656C32.3308 25.2656 32.3308 25.2656 32.3668 25.3016C32.3668 25.3016 32.4029 25.3377 32.4029 25.3737C32.4029 25.4098 32.4029 25.4098 32.3668 25.4098C32.3668 25.4098 32.3308 25.4458 32.2948 25.4458L32.3668 25.5539H32.2948L32.2227 25.4458V25.5539H32.1866V25.2656H32.2948ZM32.2587 25.59C32.2948 25.59 32.3308 25.59 32.3308 25.59C32.3668 25.59 32.3668 25.5539 32.4029 25.5539C32.4389 25.5179 32.4389 25.5179 32.4389 25.4818C32.475 25.4458 32.475 25.3737 32.4389 25.3016C32.4389 25.2656 32.4029 25.2656 32.4029 25.2296C32.3668 25.1935 32.3668 25.1935 32.3308 25.1935C32.2948 25.1935 32.2948 25.1935 32.2587 25.1935C32.2227 25.1935 32.1866 25.1935 32.1866 25.1935C32.1506 25.1935 32.1506 25.2296 32.1145 25.2296C32.0425 25.3016 32.0425 25.3737 32.0785 25.4458C32.0785 25.4818 32.1145 25.4818 32.1145 25.5179C32.1506 25.5539 32.1506 25.5539 32.1866 25.5539C32.2227 25.59 32.2587 25.59 32.2587 25.59ZM32.2587 25.1214C32.3308 25.1214 32.4029 25.1575 32.4389 25.1935C32.475 25.2296 32.475 25.2296 32.511 25.2656C32.5471 25.3377 32.5471 25.4098 32.511 25.4818C32.511 25.5179 32.475 25.5539 32.4389 25.5539C32.4029 25.59 32.3668 25.59 32.3668 25.626C32.3308 25.626 32.2948 25.6621 32.2587 25.6621C32.2227 25.6621 32.1866 25.6621 32.1506 25.626C32.1145 25.626 32.0785 25.59 32.0785 25.5539C32.0425 25.5179 32.0425 25.4818 32.0064 25.4818C31.9704 25.4098 31.9704 25.3377 32.0064 25.2656C32.0064 25.2296 32.0425 25.1935 32.0785 25.1935C32.1145 25.1575 32.1506 25.1575 32.1506 25.1214C32.1866 25.1214 32.2227 25.1214 32.2587 25.1214ZM7.10084 24.1843C7.10084 23.7158 7.42523 23.3193 7.92983 23.3193C8.39838 23.3193 8.75881 23.6797 8.75881 24.1843C8.75881 24.6889 8.43443 25.0493 7.92983 25.0493C7.38919 25.0493 7.10084 24.6529 7.10084 24.1843ZM9.26341 24.1843V22.8507H8.68673V23.1751C8.50651 22.9228 8.21817 22.7786 7.8217 22.7786C7.0648 22.7786 6.48812 23.3553 6.48812 24.1843C6.48812 25.0133 7.0648 25.59 7.8217 25.59C8.21817 25.59 8.47047 25.4458 8.68673 25.1935V25.5179H9.26341V24.1843ZM29.123 24.1843C29.123 23.7158 29.4474 23.3193 29.952 23.3193C30.4205 23.3193 30.781 23.6797 30.781 24.1843C30.781 24.6889 30.4566 25.0493 29.952 25.0493C29.4113 25.0493 29.123 24.6529 29.123 24.1843ZM31.2856 24.1843V21.7334H30.7089V23.1391C30.5287 22.8868 30.2403 22.7426 29.8438 22.7426C29.0869 22.7426 28.5103 23.3193 28.5103 24.1483C28.5103 24.9773 29.0869 25.5539 29.8438 25.5539C30.2403 25.5539 30.4926 25.4098 30.7089 25.1575V25.4818H31.2856V24.1843ZM16.5801 23.2832C16.9405 23.2832 17.1928 23.5355 17.2649 23.932H15.8592C15.8953 23.5355 16.1476 23.2832 16.5801 23.2832ZM16.5801 22.7426C15.7872 22.7426 15.2465 23.3193 15.2465 24.1483C15.2465 25.0133 15.8232 25.5539 16.6161 25.5539C17.0126 25.5539 17.4091 25.4458 17.7335 25.1935L17.4451 24.761C17.2289 24.9412 16.9405 25.0493 16.6522 25.0493C16.2918 25.0493 15.9313 24.8691 15.8592 24.4006H17.8776C17.8776 24.3285 17.8776 24.2564 17.8776 24.1843C17.8416 23.3193 17.337 22.7426 16.5801 22.7426ZM23.6445 24.1843C23.6445 23.7158 23.9689 23.3193 24.4735 23.3193C24.942 23.3193 25.3025 23.6797 25.3025 24.1843C25.3025 24.6889 24.9781 25.0493 24.4735 25.0493C23.9689 25.0133 23.6445 24.6529 23.6445 24.1843ZM25.8431 24.1843V22.8507H25.2664V23.1751C25.0862 22.9228 24.7979 22.7786 24.4014 22.7786C23.6445 22.7786 23.0678 23.3553 23.0678 24.1843C23.0678 25.0133 23.6445 25.59 24.4014 25.59C24.7979 25.59 25.0502 25.4458 25.2664 25.1935V25.5179H25.8431V24.1843ZM20.3285 24.1843C20.3285 25.0133 20.9052 25.59 21.7703 25.59C22.1667 25.59 22.4551 25.4818 22.7434 25.2656L22.4551 24.797C22.2388 24.9412 21.9865 25.0493 21.7342 25.0493C21.2657 25.0493 20.9052 24.6889 20.9052 24.1843C20.9052 23.6797 21.2657 23.3193 21.7342 23.3193C21.9865 23.3193 22.2028 23.3914 22.4551 23.5716L22.7434 23.103C22.4551 22.8507 22.2028 22.7426 21.7703 22.7426C20.9052 22.7426 20.3285 23.3553 20.3285 24.1843ZM27.8975 22.7426C27.5732 22.7426 27.3209 22.8868 27.1767 23.1391V22.8147H26.6V25.5179H27.1767V24.0041C27.1767 23.5716 27.3569 23.3193 27.7534 23.3193C27.8615 23.3193 28.0057 23.3553 28.1138 23.3914L28.294 22.8507C28.1859 22.7786 28.0417 22.7426 27.8975 22.7426ZM12.1829 23.0309C11.8945 22.8507 11.4981 22.7426 11.0656 22.7426C10.3807 22.7426 9.94823 23.067 9.94823 23.6076C9.94823 24.0401 10.2726 24.3285 10.8853 24.4006L11.1737 24.4366C11.4981 24.4727 11.6422 24.5808 11.6422 24.725C11.6422 24.9412 11.426 25.0493 11.0295 25.0493C10.633 25.0493 10.3447 24.9052 10.1284 24.761L9.8401 25.2296C10.1645 25.4819 10.561 25.59 10.9935 25.59C11.7864 25.59 12.2189 25.2296 12.2189 24.725C12.2189 24.2564 11.8585 24.0041 11.2818 23.932L10.9935 23.896C10.7412 23.8599 10.5249 23.8239 10.5249 23.6437C10.5249 23.4635 10.7051 23.3193 11.0295 23.3193C11.3899 23.3193 11.7143 23.4635 11.8585 23.5355L12.1829 23.0309ZM19.7519 22.7426C19.4275 22.7426 19.1752 22.8868 19.031 23.1391V22.8147H18.4543V25.5179H19.031V24.0041C19.031 23.5716 19.2112 23.3193 19.6077 23.3193C19.7158 23.3193 19.86 23.3553 19.9681 23.3914L20.1483 22.8507C20.0402 22.7786 19.86 22.7426 19.7519 22.7426ZM14.7419 22.8147H13.7688V21.9857H13.1921V22.8147H12.6514V23.3553H13.1921V24.5808C13.1921 25.1935 13.4444 25.59 14.1292 25.59C14.3815 25.59 14.6698 25.5179 14.85 25.3737L14.6698 24.8691C14.4896 24.9773 14.3094 25.0133 14.1652 25.0133C13.8769 25.0133 13.7688 24.8331 13.7688 24.5447V23.3193H14.7419V22.8147ZM5.98352 25.5179V23.8239C5.98352 23.1751 5.58705 22.7426 4.93828 22.7426C4.57785 22.7426 4.25346 22.8507 4.00116 23.2112C3.82095 22.9228 3.53261 22.7426 3.10009 22.7426C2.81175 22.7426 2.52341 22.8147 2.30715 23.1391V22.8147H1.73047V25.5179H2.30715V24.0041C2.30715 23.5355 2.55945 23.2832 2.95592 23.2832C3.35239 23.2832 3.53261 23.5355 3.53261 24.0041V25.5179H4.10929V24.0041C4.10929 23.5355 4.39763 23.2832 4.75806 23.2832C5.15453 23.2832 5.33475 23.5355 5.33475 24.0041V25.5179H5.98352Z" fill="white"/>
<path d="M32.5818 16.5449V16.1484H32.4737L32.3656 16.4368L32.2574 16.1484H32.1493V16.5449H32.2214V16.2566L32.3295 16.5089H32.4016L32.5097 16.2566V16.5449H32.5818ZM31.897 16.5449V16.2205H32.0412V16.1484H31.7168V16.2205H31.861V16.5449H31.897Z" fill="white"/>
<path d="M10.2722 20.5444C15.9454 20.5444 20.5444 15.9454 20.5444 10.2722C20.5444 4.59902 15.9454 0 10.2722 0C4.59902 0 0 4.59902 0 10.2722C0 15.9454 4.59902 20.5444 10.2722 20.5444Z" fill="white"/>
<path d="M22.5984 20.5444C28.2715 20.5444 32.8706 15.9454 32.8706 10.2722C32.8706 4.59902 28.2715 0 22.5984 0C16.9252 0 12.3262 4.59902 12.3262 10.2722C12.3262 15.9454 16.9252 20.5444 22.5984 20.5444Z" fill="white"/>
<path d="M12.3281 10.2724C12.3281 13.6244 13.95 16.616 16.437 18.4902C18.924 16.616 20.5459 13.6244 20.5459 10.2724C20.5459 6.92046 18.924 3.92891 16.437 2.05469C13.95 3.92891 12.3281 6.92046 12.3281 10.2724Z" fill="white"/>
<path d="M16.4363 18.8507L16.2561 18.7065C13.5889 16.6881 12.0391 13.6245 12.0391 10.2725C12.0391 6.92054 13.5889 3.8569 16.2561 1.83851L16.4363 1.69434L16.6165 1.83851C19.2837 3.8569 20.8335 6.92054 20.8335 10.2725C20.8335 13.6245 19.2837 16.6881 16.6165 18.7065L16.4363 18.8507ZM16.4363 2.41519C14.0214 4.32546 12.6157 7.17284 12.6157 10.2725C12.6157 13.3722 14.0214 16.2196 16.4363 18.1298C18.8872 16.2196 20.2568 13.3722 20.2568 10.2725C20.2568 7.17284 18.8872 4.32546 16.4363 2.41519Z" fill="#003DA6"/>
</svg>
