<svg width="303" height="205" viewBox="0 0 303 205" fill="none" xmlns="http://www.w3.org/2000/svg">
<path d="M151.053 204.891C234.478 204.891 302.106 192.77 302.106 177.819C302.106 162.867 234.478 150.747 151.053 150.747C67.6288 150.747 0 162.867 0 177.819C0 192.77 67.6288 204.891 151.053 204.891Z" fill="#003DA6"/>
<path d="M193.938 172.908V178.178C193.938 181.293 206.635 183.808 222.208 183.808C237.78 183.808 250.478 181.293 250.478 178.178V172.908H193.938Z" fill="#D7F1FF"/>
<path d="M222.327 185.006C211.427 185.006 192.859 183.569 192.859 178.178V172.908C192.859 172.189 193.339 171.71 194.057 171.71H250.717C251.436 171.71 251.915 172.189 251.915 172.908V178.178C251.795 183.569 233.228 185.006 222.327 185.006ZM195.135 174.106V178.178C195.495 179.736 205.078 182.611 222.208 182.611C239.337 182.611 249.04 179.736 249.28 178.178V174.106H195.135Z" fill="#0F145B"/>
<path d="M222.327 177.819C237.94 177.819 250.597 175.298 250.597 172.189C250.597 169.08 237.94 166.559 222.327 166.559C206.714 166.559 194.057 169.08 194.057 172.189C194.057 175.298 206.714 177.819 222.327 177.819Z" fill="#D7F1FF"/>
<path d="M222.327 179.017C211.427 179.017 192.859 177.579 192.859 172.189C192.859 166.798 211.427 165.361 222.327 165.361C233.228 165.361 251.795 166.798 251.795 172.189C251.795 177.579 233.228 179.017 222.327 179.017ZM222.327 167.757C205.078 167.757 195.495 170.632 195.255 172.189C195.615 173.746 205.198 176.621 222.327 176.621C239.457 176.621 249.16 173.746 249.4 172.189C249.04 170.632 239.457 167.757 222.327 167.757Z" fill="#0F145B"/>
<path d="M193.938 166.918V172.189C193.938 175.303 206.635 177.819 222.208 177.819C237.78 177.819 250.478 175.303 250.478 172.189V166.918H193.938Z" fill="#D7F1FF"/>
<path d="M222.327 179.017C211.427 179.017 192.859 177.579 192.859 172.189V166.918C192.859 166.199 193.339 165.72 194.057 165.72H250.717C251.436 165.72 251.915 166.199 251.915 166.918V172.189C251.795 177.579 233.228 179.017 222.327 179.017ZM195.135 168.116V172.189C195.495 173.746 205.078 176.621 222.208 176.621C239.337 176.621 249.04 173.746 249.28 172.189V168.116H195.135Z" fill="#0F145B"/>
<path d="M222.327 171.71C237.94 171.71 250.597 169.189 250.597 166.08C250.597 162.97 237.94 160.45 222.327 160.45C206.714 160.45 194.057 162.97 194.057 166.08C194.057 169.189 206.714 171.71 222.327 171.71Z" fill="#D7F1FF"/>
<path d="M222.327 172.908C211.427 172.908 192.859 171.47 192.859 166.08C192.859 160.689 211.427 159.252 222.327 159.252C233.228 159.252 251.795 160.689 251.795 166.08C251.795 171.47 233.228 172.908 222.327 172.908ZM222.327 161.767C205.198 161.767 195.495 164.642 195.255 166.199C195.615 167.757 205.198 170.632 222.327 170.632C239.457 170.632 249.16 167.757 249.4 166.199C249.04 164.642 239.457 161.767 222.327 161.767Z" fill="#0F145B"/>
<path d="M193.938 160.809V166.08C193.938 169.194 206.635 171.71 222.208 171.71C237.78 171.71 250.478 169.194 250.478 166.08V160.809H193.938Z" fill="#D7F1FF"/>
<path d="M222.327 172.908C211.427 172.908 192.859 171.47 192.859 166.08V160.809C192.859 160.09 193.339 159.611 194.057 159.611H250.717C251.436 159.611 251.915 160.09 251.915 160.809V166.08C251.795 171.47 233.228 172.908 222.327 172.908ZM195.135 162.007V166.08C195.495 167.637 205.078 170.512 222.208 170.512C239.337 170.512 249.04 167.637 249.28 166.08V162.007H195.135Z" fill="#0F145B"/>
<path d="M222.327 165.72C237.94 165.72 250.597 163.2 250.597 160.09C250.597 156.981 237.94 154.46 222.327 154.46C206.714 154.46 194.057 156.981 194.057 160.09C194.057 163.2 206.714 165.72 222.327 165.72Z" fill="#D7F1FF"/>
<path d="M222.327 166.918C211.427 166.918 192.859 165.481 192.859 160.09C192.859 154.7 211.427 153.262 222.327 153.262C233.228 153.262 251.795 154.7 251.795 160.09C251.795 165.481 233.228 166.918 222.327 166.918ZM222.327 155.658C205.198 155.658 195.495 158.533 195.255 160.09C195.615 161.648 205.198 164.522 222.327 164.522C239.457 164.522 249.16 161.648 249.4 160.09C249.04 158.533 239.457 155.658 222.327 155.658Z" fill="#0F145B"/>
<path d="M193.938 154.82V160.09C193.938 163.205 206.635 165.72 222.208 165.72C237.78 165.72 250.478 163.205 250.478 160.09V154.82H193.938Z" fill="#D7F1FF"/>
<path d="M222.327 166.918C211.427 166.918 192.859 165.481 192.859 160.09V154.82C192.859 154.101 193.339 153.622 194.057 153.622H250.717C251.436 153.622 251.915 154.101 251.915 154.82V160.09C251.795 165.481 233.228 166.918 222.327 166.918ZM195.135 156.017V160.09C195.495 161.648 205.078 164.522 222.208 164.522C239.337 164.522 249.04 161.648 249.28 160.09V156.017H195.135Z" fill="#0F145B"/>
<path d="M222.327 159.611C237.94 159.611 250.597 157.09 250.597 153.981C250.597 150.872 237.94 148.351 222.327 148.351C206.714 148.351 194.057 150.872 194.057 153.981C194.057 157.09 206.714 159.611 222.327 159.611Z" fill="#D7F1FF"/>
<path d="M222.327 160.809C211.427 160.809 192.859 159.372 192.859 153.981C192.859 148.591 211.427 147.153 222.327 147.153C233.228 147.153 251.795 148.591 251.795 153.981C251.795 159.372 233.228 160.809 222.327 160.809ZM222.327 149.669C205.198 149.669 195.495 152.544 195.255 154.101C195.615 155.658 205.198 158.533 222.327 158.533C239.457 158.533 249.16 155.658 249.4 154.101C249.04 152.544 239.457 149.669 222.327 149.669Z" fill="#0F145B"/>
<path d="M193.938 148.71V153.981C193.938 157.096 206.635 159.611 222.208 159.611C237.78 159.611 250.478 157.096 250.478 153.981V148.71H193.938Z" fill="#D7F1FF"/>
<path d="M222.327 160.809C211.427 160.809 192.859 159.372 192.859 153.981V148.71C192.859 147.992 193.339 147.513 194.057 147.513H250.717C251.436 147.513 251.915 147.992 251.915 148.71V153.981C251.795 159.372 233.228 160.809 222.327 160.809ZM195.135 149.908V153.981C195.495 155.538 205.078 158.413 222.208 158.413C239.337 158.413 249.04 155.538 249.28 153.981V149.908H195.135Z" fill="#0F145B"/>
<path d="M222.327 153.622C237.94 153.622 250.597 151.101 250.597 147.992C250.597 144.882 237.94 142.362 222.327 142.362C206.714 142.362 194.057 144.882 194.057 147.992C194.057 151.101 206.714 153.622 222.327 153.622Z" fill="#D7F1FF"/>
<path d="M222.327 154.82C211.427 154.82 192.859 153.382 192.859 147.992C192.859 142.601 211.427 141.164 222.327 141.164C233.228 141.164 251.795 142.601 251.795 147.992C251.795 153.382 233.228 154.82 222.327 154.82ZM222.327 143.559C205.198 143.559 195.495 146.434 195.255 147.992C195.615 149.549 205.198 152.424 222.327 152.424C239.457 152.424 249.16 149.549 249.4 147.992C249.04 146.434 239.457 143.559 222.327 143.559Z" fill="#0F145B"/>
<path d="M193.938 142.721V147.992C193.938 151.106 206.635 153.622 222.208 153.622C237.78 153.622 250.478 151.106 250.478 147.992V142.721H193.938Z" fill="#D7F1FF"/>
<path d="M222.327 154.82C211.427 154.82 192.859 153.382 192.859 147.992V142.721C192.859 142.002 193.339 141.523 194.057 141.523H250.717C251.436 141.523 251.915 142.002 251.915 142.721V147.992C251.795 153.382 233.228 154.82 222.327 154.82ZM195.135 143.919V147.992C195.495 149.549 205.078 152.424 222.208 152.424C239.337 152.424 249.04 149.549 249.28 147.992V143.919H195.135Z" fill="#0F145B"/>
<path d="M222.327 147.513C237.94 147.513 250.597 144.992 250.597 141.882C250.597 138.773 237.94 136.252 222.327 136.252C206.714 136.252 194.057 138.773 194.057 141.882C194.057 144.992 206.714 147.513 222.327 147.513Z" fill="#D7F1FF"/>
<path d="M222.327 148.71C211.427 148.71 192.859 147.273 192.859 141.882C192.859 136.492 211.427 135.054 222.327 135.054C233.228 135.054 251.795 136.492 251.795 141.882C251.795 147.273 233.228 148.71 222.327 148.71ZM222.327 137.57C205.198 137.57 195.495 140.445 195.255 142.002C195.615 143.559 205.198 146.434 222.327 146.434C239.457 146.434 249.16 143.559 249.4 142.002C249.04 140.445 239.457 137.57 222.327 137.57Z" fill="#0F145B"/>
<path d="M193.938 136.612V141.882C193.938 144.997 206.635 147.513 222.208 147.513C237.78 147.513 250.478 144.997 250.478 141.882V136.612H193.938Z" fill="#D7F1FF"/>
<path d="M222.327 148.71C211.427 148.71 192.859 147.273 192.859 141.882V136.612C192.859 135.893 193.339 135.414 194.057 135.414H250.717C251.436 135.414 251.915 135.893 251.915 136.612V141.882C251.795 147.273 233.228 148.71 222.327 148.71ZM195.135 137.81V141.882C195.495 143.44 205.078 146.315 222.208 146.315C239.337 146.315 249.04 143.44 249.28 141.882V137.81H195.135Z" fill="#0F145B"/>
<path d="M222.327 141.523C237.94 141.523 250.597 139.002 250.597 135.893C250.597 132.784 237.94 130.263 222.327 130.263C206.714 130.263 194.057 132.784 194.057 135.893C194.057 139.002 206.714 141.523 222.327 141.523Z" fill="#D7F1FF"/>
<path d="M222.327 142.721C211.427 142.721 192.859 141.283 192.859 135.893C192.859 130.503 211.427 129.065 222.327 129.065C233.228 129.065 251.795 130.503 251.795 135.893C251.795 141.283 233.228 142.721 222.327 142.721ZM222.327 131.461C205.198 131.461 195.495 134.336 195.255 135.893C195.615 137.45 205.198 140.325 222.327 140.325C239.457 140.325 249.16 137.45 249.4 135.893C249.04 134.336 239.457 131.461 222.327 131.461Z" fill="#0F145B"/>
<path d="M193.938 130.622V135.893C193.938 139.008 206.635 141.523 222.208 141.523C237.78 141.523 250.478 139.008 250.478 135.893V130.622H193.938Z" fill="#D7F1FF"/>
<path d="M222.327 142.721C211.427 142.721 192.859 141.284 192.859 135.893V130.622C192.859 129.904 193.339 129.424 194.057 129.424H250.717C251.436 129.424 251.915 129.904 251.915 130.622V135.893C251.795 141.284 233.228 142.721 222.327 142.721ZM195.135 131.82V135.893C195.495 137.45 205.078 140.325 222.208 140.325C239.337 140.325 249.04 137.45 249.28 135.893V131.82H195.135Z" fill="#0F145B"/>
<path d="M222.327 135.534C237.94 135.534 250.597 133.013 250.597 129.904C250.597 126.794 237.94 124.274 222.327 124.274C206.714 124.274 194.057 126.794 194.057 129.904C194.057 133.013 206.714 135.534 222.327 135.534Z" fill="#D7F1FF"/>
<path d="M222.327 136.612C211.427 136.612 192.859 135.174 192.859 129.784C192.859 124.393 211.427 122.956 222.327 122.956C233.228 122.956 251.795 124.393 251.795 129.784C251.795 135.174 233.228 136.612 222.327 136.612ZM222.327 125.471C205.198 125.471 195.495 128.346 195.255 129.904C195.615 131.461 205.198 134.336 222.327 134.336C239.457 134.336 249.16 131.461 249.4 129.904C249.04 128.346 239.457 125.471 222.327 125.471Z" fill="#0F145B"/>
<path d="M193.938 124.513V129.784C193.938 132.898 206.635 135.414 222.208 135.414C237.78 135.414 250.478 132.898 250.478 129.784V124.513H193.938Z" fill="#D7F1FF"/>
<path d="M222.327 136.612C211.427 136.612 192.859 135.174 192.859 129.784V124.513C192.859 123.794 193.339 123.315 194.057 123.315H250.717C251.436 123.315 251.915 123.794 251.915 124.513V129.784C251.795 135.174 233.228 136.612 222.327 136.612ZM195.135 125.711V129.784C195.495 131.341 205.078 134.216 222.208 134.216C239.337 134.216 249.04 131.341 249.28 129.784V125.711H195.135Z" fill="#0F145B"/>
<path d="M222.327 129.424C237.94 129.424 250.597 126.904 250.597 123.794C250.597 120.685 237.94 118.164 222.327 118.164C206.714 118.164 194.057 120.685 194.057 123.794C194.057 126.904 206.714 129.424 222.327 129.424Z" fill="#D7F1FF"/>
<path d="M222.327 130.622C211.427 130.622 192.859 129.185 192.859 123.794C192.859 118.404 211.427 116.966 222.327 116.966C233.228 116.966 251.795 118.404 251.795 123.794C251.795 129.185 233.228 130.622 222.327 130.622ZM222.327 119.362C205.198 119.362 195.495 122.237 195.255 123.794C195.615 125.352 205.198 128.227 222.327 128.227C239.457 128.227 249.16 125.352 249.4 123.794C249.04 122.237 239.457 119.362 222.327 119.362Z" fill="#0F145B"/>
<path d="M193.938 118.524V123.794C193.938 126.909 206.635 129.424 222.208 129.424C237.78 129.424 250.478 126.909 250.478 123.794V118.524H193.938Z" fill="#D7F1FF"/>
<path d="M222.327 130.622C211.427 130.622 192.859 129.185 192.859 123.794V118.524C192.859 117.805 193.339 117.326 194.057 117.326H250.717C251.436 117.326 251.915 117.805 251.915 118.524V123.794C251.795 129.185 233.228 130.622 222.327 130.622ZM195.135 119.722V123.794C195.495 125.352 205.078 128.227 222.208 128.227C239.337 128.227 249.04 125.352 249.28 123.794V119.722H195.135Z" fill="#0F145B"/>
<path d="M222.327 123.435C237.94 123.435 250.597 120.914 250.597 117.805C250.597 114.696 237.94 112.175 222.327 112.175C206.714 112.175 194.057 114.696 194.057 117.805C194.057 120.914 206.714 123.435 222.327 123.435Z" fill="#D7F1FF"/>
<path d="M222.327 124.513C211.427 124.513 192.859 123.076 192.859 117.685C192.859 112.295 211.427 110.857 222.327 110.857C233.228 110.857 251.795 112.295 251.795 117.685C251.795 123.076 233.228 124.513 222.327 124.513ZM222.327 113.373C205.198 113.373 195.495 116.248 195.255 117.805C195.615 119.362 205.198 122.237 222.327 122.237C239.457 122.237 249.16 119.362 249.4 117.805C249.04 116.248 239.457 113.373 222.327 113.373Z" fill="#0F145B"/>
<path d="M193.938 112.414V117.685C193.938 120.8 206.635 123.315 222.208 123.315C237.78 123.315 250.478 120.8 250.478 117.685V112.414H193.938Z" fill="#D7F1FF"/>
<path d="M222.327 124.513C211.427 124.513 192.859 123.076 192.859 117.685V112.414C192.859 111.696 193.339 111.217 194.057 111.217H250.717C251.436 111.217 251.915 111.696 251.915 112.414V117.685C251.795 123.076 233.228 124.513 222.327 124.513ZM195.135 113.612V117.685C195.495 119.242 205.078 122.117 222.208 122.117C239.337 122.117 249.04 119.242 249.28 117.685V113.612H195.135Z" fill="#0F145B"/>
<path d="M222.327 117.326C237.94 117.326 250.597 114.805 250.597 111.696C250.597 108.586 237.94 106.066 222.327 106.066C206.714 106.066 194.057 108.586 194.057 111.696C194.057 114.805 206.714 117.326 222.327 117.326Z" fill="#D7F1FF"/>
<path d="M222.327 118.524C211.427 118.524 192.859 117.086 192.859 111.696C192.859 106.305 211.427 104.868 222.327 104.868C233.228 104.868 251.795 106.305 251.795 111.696C251.795 117.086 233.228 118.524 222.327 118.524ZM222.327 107.264C205.078 107.264 195.495 110.138 195.255 111.696C195.615 113.253 205.198 116.128 222.327 116.128C239.457 116.128 249.16 113.253 249.4 111.696C249.04 110.138 239.457 107.264 222.327 107.264Z" fill="#0F145B"/>
<path d="M193.938 106.425V111.696C193.938 114.81 206.635 117.326 222.208 117.326C237.78 117.326 250.478 114.81 250.478 111.696V106.425H193.938Z" fill="#D7F1FF"/>
<path d="M222.327 118.524C211.427 118.524 192.859 117.086 192.859 111.696V106.425C192.859 105.706 193.339 105.227 194.057 105.227H250.717C251.436 105.227 251.915 105.706 251.915 106.425V111.696C251.795 117.086 233.228 118.524 222.327 118.524ZM195.135 107.623V111.696C195.495 113.253 205.078 116.128 222.208 116.128C239.337 116.128 249.04 113.253 249.28 111.696V107.623H195.135Z" fill="#0F145B"/>
<path d="M222.327 111.336C237.94 111.336 250.597 108.816 250.597 105.706C250.597 102.597 237.94 100.076 222.327 100.076C206.714 100.076 194.057 102.597 194.057 105.706C194.057 108.816 206.714 111.336 222.327 111.336Z" fill="#D7F1FF"/>
<path d="M222.327 112.414C211.427 112.414 192.859 110.977 192.859 105.587C192.859 100.196 211.427 98.7586 222.327 98.7586C233.228 98.7586 251.795 100.196 251.795 105.587C251.795 110.977 233.228 112.414 222.327 112.414ZM222.327 101.274C205.078 101.274 195.495 104.149 195.255 105.706C195.615 107.264 205.198 110.139 222.327 110.139C239.457 110.139 249.16 107.264 249.4 105.706C249.04 104.149 239.457 101.274 222.327 101.274Z" fill="#0F145B"/>
<path d="M193.938 100.316V105.587C193.938 108.701 206.635 111.217 222.208 111.217C237.78 111.217 250.478 108.701 250.478 105.587V100.316H193.938Z" fill="#D7F1FF"/>
<path d="M222.327 112.414C211.427 112.414 192.859 110.977 192.859 105.587V100.316C192.859 99.5971 193.339 99.118 194.057 99.118H250.717C251.436 99.118 251.915 99.5971 251.915 100.316V105.587C251.795 110.977 233.228 112.414 222.327 112.414ZM195.135 101.514V105.587C195.495 107.144 205.078 110.019 222.208 110.019C239.337 110.019 249.04 107.144 249.28 105.587V101.514H195.135Z" fill="#0F145B"/>
<path d="M222.327 105.227C237.94 105.227 250.597 102.707 250.597 99.5972C250.597 96.4878 237.94 93.9671 222.327 93.9671C206.714 93.9671 194.057 96.4878 194.057 99.5972C194.057 102.707 206.714 105.227 222.327 105.227Z" fill="#D7F1FF"/>
<path d="M222.327 106.425C211.427 106.425 192.859 104.988 192.859 99.5971C192.859 94.2067 211.427 92.7692 222.327 92.7692C233.228 92.7692 251.795 94.2067 251.795 99.5971C251.795 104.988 233.228 106.425 222.327 106.425ZM222.327 95.165C205.078 95.165 195.495 98.0399 195.255 99.5971C195.615 101.154 205.198 104.029 222.327 104.029C239.457 104.029 249.16 101.154 249.4 99.5971C249.04 98.0399 239.457 95.165 222.327 95.165Z" fill="#0F145B"/>
<path d="M193.938 94.3264V99.5971C193.938 102.712 206.635 105.227 222.208 105.227C237.78 105.227 250.478 102.712 250.478 99.5971V94.3264H193.938Z" fill="#D7F1FF"/>
<path d="M222.327 106.425C211.427 106.425 192.859 104.988 192.859 99.5971V94.3264C192.859 93.6077 193.339 93.1285 194.057 93.1285H250.717C251.436 93.1285 251.915 93.6077 251.915 94.3264V99.5971C251.795 104.988 233.228 106.425 222.327 106.425ZM195.135 95.5243V99.5971C195.495 101.154 205.078 104.029 222.208 104.029C239.337 104.029 249.04 101.154 249.28 99.5971V95.5243H195.135Z" fill="#0F145B"/>
<path d="M222.327 99.2378C237.94 99.2378 250.597 96.7171 250.597 93.6077C250.597 90.4983 237.94 87.9777 222.327 87.9777C206.714 87.9777 194.057 90.4983 194.057 93.6077C194.057 96.7171 206.714 99.2378 222.327 99.2378Z" fill="#D7F1FF"/>
<path d="M222.327 100.316C211.427 100.316 192.859 98.8784 192.859 93.4879C192.859 88.0974 211.427 86.66 222.327 86.66C233.228 86.66 251.795 88.0974 251.795 93.4879C251.795 98.8784 233.228 100.316 222.327 100.316ZM222.327 89.1755C205.198 89.1755 195.495 92.0505 195.255 93.6077C195.615 95.165 205.198 98.0399 222.327 98.0399C239.457 98.0399 249.16 95.165 249.4 93.6077C249.04 92.0505 239.457 89.1755 222.327 89.1755Z" fill="#0F145B"/>
<path d="M193.938 88.2172V93.4879C193.938 96.6024 206.635 99.118 222.208 99.118C237.78 99.118 250.478 96.6024 250.478 93.4879V88.2172H193.938Z" fill="#D7F1FF"/>
<path d="M222.327 100.316C211.427 100.316 192.859 98.8784 192.859 93.4879V88.2172C192.859 87.4985 193.339 87.0193 194.057 87.0193H250.717C251.436 87.0193 251.915 87.4985 251.915 88.2172V93.4879C251.795 98.8784 233.228 100.316 222.327 100.316ZM195.135 89.4151V93.4879C195.495 95.0452 205.078 97.9201 222.208 97.9201C239.337 97.9201 249.04 95.0452 249.28 93.4879V89.4151H195.135Z" fill="#0F145B"/>
<path d="M222.328 93.1285C237.941 93.1285 250.598 90.6079 250.598 87.4985C250.598 84.3891 237.941 81.8684 222.328 81.8684C206.715 81.8684 194.058 84.3891 194.058 87.4985C194.058 90.6079 206.715 93.1285 222.328 93.1285Z" fill="#D7F1FF"/>
<path d="M222.328 94.3264C211.428 94.3264 192.86 92.8889 192.86 87.4985C192.86 82.108 211.428 80.6705 222.328 80.6705C233.229 80.6705 251.796 82.108 251.796 87.4985C251.796 92.8889 233.229 94.3264 222.328 94.3264ZM222.328 83.0663C205.199 83.0663 195.496 85.9412 195.256 87.4985C195.615 89.0557 205.199 91.9306 222.328 91.9306C239.458 91.9306 249.161 89.0557 249.4 87.4985C249.041 85.9412 239.458 83.0663 222.328 83.0663Z" fill="#0F145B"/>
<path d="M137.397 161.049V166.319C137.397 169.434 150.095 171.949 165.667 171.949C181.24 171.949 193.937 169.434 193.937 166.319V161.049H137.397Z" fill="#D7F1FF"/>
<path d="M165.667 173.147C154.766 173.147 136.199 171.71 136.199 166.319V161.049C136.199 160.33 136.678 159.851 137.397 159.851H194.057C194.776 159.851 195.255 160.33 195.255 161.049V166.319C195.135 171.71 176.688 173.147 165.667 173.147ZM138.595 162.246V166.319C138.954 167.876 148.537 170.751 165.667 170.751C182.797 170.751 192.5 167.876 192.739 166.319V162.246H138.595Z" fill="#0F145B"/>
<path d="M165.667 165.96C181.28 165.96 193.937 163.439 193.937 160.33C193.937 157.22 181.28 154.7 165.667 154.7C150.054 154.7 137.397 157.22 137.397 160.33C137.397 163.439 150.054 165.96 165.667 165.96Z" fill="#D7F1FF"/>
<path d="M165.667 167.038C154.766 167.038 136.199 165.6 136.199 160.21C136.199 154.82 154.766 153.382 165.667 153.382C176.568 153.382 195.135 154.82 195.135 160.21C195.135 165.6 176.688 167.038 165.667 167.038ZM165.667 155.898C148.537 155.898 138.835 158.773 138.595 160.33C138.954 161.887 148.537 164.762 165.667 164.762C182.797 164.762 192.5 161.887 192.739 160.33C192.5 158.773 182.917 155.898 165.667 155.898Z" fill="#0F145B"/>
<path d="M137.397 154.939V160.21C137.397 163.325 150.095 165.84 165.667 165.84C181.24 165.84 193.937 163.325 193.937 160.21V154.939H137.397Z" fill="#D7F1FF"/>
<path d="M165.667 167.038C154.766 167.038 136.199 165.6 136.199 160.21V154.939C136.199 154.221 136.678 153.741 137.397 153.741H194.057C194.776 153.741 195.255 154.221 195.255 154.939V160.21C195.135 165.72 176.688 167.038 165.667 167.038ZM138.595 156.137V160.21C138.954 161.767 148.537 164.642 165.667 164.642C182.797 164.642 192.5 161.767 192.739 160.21V156.137H138.595Z" fill="#0F145B"/>
<path d="M165.667 159.851C181.28 159.851 193.937 157.33 193.937 154.221C193.937 151.111 181.28 148.591 165.667 148.591C150.054 148.591 137.397 151.111 137.397 154.221C137.397 157.33 150.054 159.851 165.667 159.851Z" fill="#D7F1FF"/>
<path d="M165.667 161.049C154.766 161.049 136.199 159.611 136.199 154.221C136.199 148.83 154.766 147.393 165.667 147.393C176.568 147.393 195.135 148.83 195.135 154.221C195.135 159.611 176.688 161.049 165.667 161.049ZM165.667 149.788C148.537 149.788 138.835 152.663 138.595 154.221C138.954 155.778 148.537 158.653 165.667 158.653C182.797 158.653 192.5 155.778 192.739 154.221C192.5 152.663 182.917 149.788 165.667 149.788Z" fill="#0F145B"/>
<path d="M137.397 148.95V154.221C137.397 157.335 150.095 159.851 165.667 159.851C181.24 159.851 193.937 157.335 193.937 154.221V148.95H137.397Z" fill="#D7F1FF"/>
<path d="M165.667 161.049C154.766 161.049 136.199 159.611 136.199 154.221V148.95C136.199 148.231 136.678 147.752 137.397 147.752H194.057C194.776 147.752 195.255 148.231 195.255 148.95V154.221C195.135 159.611 176.688 161.049 165.667 161.049ZM138.595 150.148V154.221C138.954 155.778 148.537 158.653 165.667 158.653C182.797 158.653 192.5 155.778 192.739 154.221V150.148H138.595Z" fill="#0F145B"/>
<path d="M165.667 153.861C181.28 153.861 193.937 151.341 193.937 148.231C193.937 145.122 181.28 142.601 165.667 142.601C150.054 142.601 137.397 145.122 137.397 148.231C137.397 151.341 150.054 153.861 165.667 153.861Z" fill="#D7F1FF"/>
<path d="M165.667 155.059C154.766 155.059 136.199 153.622 136.199 148.231C136.199 142.841 154.766 141.403 165.667 141.403C176.568 141.403 195.135 142.841 195.135 148.231C195.135 153.622 176.688 155.059 165.667 155.059ZM165.667 143.799C148.537 143.799 138.835 146.674 138.595 148.231C138.954 149.788 148.537 152.663 165.667 152.663C182.797 152.663 192.5 149.788 192.739 148.231C192.5 146.674 182.917 143.799 165.667 143.799Z" fill="#0F145B"/>
<path d="M137.397 142.96V148.231C137.397 151.346 150.095 153.861 165.667 153.861C181.24 153.861 193.937 151.346 193.937 148.231V142.96H137.397Z" fill="#D7F1FF"/>
<path d="M165.667 155.059C154.766 155.059 136.199 153.622 136.199 148.231V142.96C136.199 142.242 136.678 141.763 137.397 141.763H194.057C194.776 141.763 195.255 142.242 195.255 142.96V148.231C195.135 153.622 176.688 155.059 165.667 155.059ZM138.595 144.158V148.231C138.954 149.788 148.537 152.663 165.667 152.663C182.797 152.663 192.5 149.788 192.739 148.231V144.158H138.595Z" fill="#0F145B"/>
<path d="M165.667 147.752C181.28 147.752 193.937 145.231 193.937 142.122C193.937 139.013 181.28 136.492 165.667 136.492C150.054 136.492 137.397 139.013 137.397 142.122C137.397 145.231 150.054 147.752 165.667 147.752Z" fill="#D7F1FF"/>
<path d="M165.667 148.95C154.766 148.95 136.199 147.512 136.199 142.122C136.199 136.731 154.766 135.294 165.667 135.294C176.568 135.294 195.135 136.731 195.135 142.122C195.135 147.512 176.688 148.95 165.667 148.95ZM165.667 137.69C148.418 137.69 138.835 140.565 138.595 142.122C138.954 143.679 148.537 146.554 165.667 146.554C182.797 146.554 192.5 143.679 192.739 142.122C192.5 140.565 182.917 137.69 165.667 137.69Z" fill="#0F145B"/>
<path d="M137.397 136.851V142.122C137.397 145.236 150.095 147.752 165.667 147.752C181.24 147.752 193.937 145.236 193.937 142.122V136.851H137.397Z" fill="#D7F1FF"/>
<path d="M165.667 148.95C154.766 148.95 136.199 147.512 136.199 142.122V136.851C136.199 136.133 136.678 135.653 137.397 135.653H194.057C194.776 135.653 195.255 136.133 195.255 136.851V142.122C195.135 147.512 176.688 148.95 165.667 148.95ZM138.595 138.049V142.122C138.954 143.679 148.537 146.554 165.667 146.554C182.797 146.554 192.5 143.679 192.739 142.122V138.049H138.595Z" fill="#0F145B"/>
<path d="M165.667 141.763C181.28 141.763 193.937 139.242 193.937 136.133C193.937 133.023 181.28 130.502 165.667 130.502C150.054 130.502 137.397 133.023 137.397 136.133C137.397 139.242 150.054 141.763 165.667 141.763Z" fill="#D7F1FF"/>
<path d="M165.667 142.96C154.766 142.96 136.199 141.523 136.199 136.133C136.199 130.742 154.766 129.305 165.667 129.305C176.568 129.305 195.135 130.742 195.135 136.133C195.135 141.523 176.688 142.96 165.667 142.96ZM165.667 131.7C148.418 131.7 138.835 134.575 138.595 136.133C138.954 137.69 148.537 140.565 165.667 140.565C182.797 140.565 192.5 137.69 192.739 136.133C192.5 134.575 182.917 131.7 165.667 131.7Z" fill="#0F145B"/>
<path d="M137.397 130.862V136.133C137.397 139.247 150.095 141.763 165.667 141.763C181.24 141.763 193.937 139.247 193.937 136.133V130.862H137.397Z" fill="#D7F1FF"/>
<path d="M165.667 142.96C154.766 142.96 136.199 141.523 136.199 136.133V130.862C136.199 130.143 136.678 129.664 137.397 129.664H194.057C194.776 129.664 195.255 130.143 195.255 130.862V136.133C195.135 141.523 176.688 142.96 165.667 142.96ZM138.595 132.06V136.133C138.954 137.69 148.537 140.565 165.667 140.565C182.797 140.565 192.5 137.69 192.739 136.133V132.06H138.595Z" fill="#0F145B"/>
<path d="M165.667 135.653C181.28 135.653 193.937 133.133 193.937 130.023C193.937 126.914 181.28 124.393 165.667 124.393C150.054 124.393 137.397 126.914 137.397 130.023C137.397 133.133 150.054 135.653 165.667 135.653Z" fill="#D7F1FF"/>
<path d="M165.667 136.851C154.766 136.851 136.199 135.414 136.199 130.023C136.199 124.633 154.766 123.195 165.667 123.195C176.568 123.195 195.135 124.633 195.135 130.023C195.135 135.414 176.688 136.851 165.667 136.851ZM165.667 125.591C148.418 125.591 138.835 128.466 138.595 130.023C138.954 131.581 148.537 134.455 165.667 134.455C182.797 134.455 192.5 131.581 192.739 130.023C192.5 128.466 182.917 125.591 165.667 125.591Z" fill="#0F145B"/>
<path d="M137.397 124.753V130.023C137.397 133.138 150.095 135.653 165.667 135.653C181.24 135.653 193.937 133.138 193.937 130.023V124.753H137.397Z" fill="#D7F1FF"/>
<path d="M165.667 136.851C154.766 136.851 136.199 135.414 136.199 130.023V124.753C136.199 124.034 136.678 123.555 137.397 123.555H194.057C194.776 123.555 195.255 124.034 195.255 124.753V130.023C195.135 135.414 176.688 136.851 165.667 136.851ZM138.595 125.951V130.023C138.954 131.581 148.537 134.455 165.667 134.455C182.797 134.455 192.5 131.581 192.739 130.023V125.951H138.595Z" fill="#0F145B"/>
<path d="M165.667 129.664C181.28 129.664 193.937 127.143 193.937 124.034C193.937 120.924 181.28 118.404 165.667 118.404C150.054 118.404 137.397 120.924 137.397 124.034C137.397 127.143 150.054 129.664 165.667 129.664Z" fill="#D7F1FF"/>
<path d="M165.667 130.862C154.766 130.862 136.199 129.424 136.199 124.034C136.199 118.643 154.766 117.206 165.667 117.206C176.568 117.206 195.135 118.643 195.135 124.034C195.135 129.424 176.688 130.862 165.667 130.862ZM165.667 119.602C148.537 119.602 138.835 122.477 138.595 124.034C138.954 125.591 148.537 128.466 165.667 128.466C182.797 128.466 192.5 125.591 192.739 124.034C192.5 122.477 182.917 119.602 165.667 119.602Z" fill="#0F145B"/>
<path d="M137.397 118.763V124.034C137.397 127.148 150.095 129.664 165.667 129.664C181.24 129.664 193.937 127.148 193.937 124.034V118.763H137.397Z" fill="#D7F1FF"/>
<path d="M165.667 130.862C154.766 130.862 136.199 129.424 136.199 124.034V118.763C136.199 118.044 136.678 117.565 137.397 117.565H194.057C194.776 117.565 195.255 118.044 195.255 118.763V124.034C195.135 129.424 176.688 130.862 165.667 130.862ZM138.595 119.961V124.034C138.954 125.591 148.537 128.466 165.667 128.466C182.797 128.466 192.5 125.591 192.739 124.034V119.961H138.595Z" fill="#0F145B"/>
<path d="M165.667 123.555C181.28 123.555 193.937 121.034 193.937 117.925C193.937 114.815 181.28 112.295 165.667 112.295C150.054 112.295 137.397 114.815 137.397 117.925C137.397 121.034 150.054 123.555 165.667 123.555Z" fill="#D7F1FF"/>
<path d="M165.667 124.753C154.766 124.753 136.199 123.315 136.199 117.925C136.199 112.534 154.766 111.097 165.667 111.097C176.568 111.097 195.135 112.534 195.135 117.925C195.135 123.315 176.688 124.753 165.667 124.753ZM165.667 113.493C148.537 113.493 138.835 116.367 138.595 117.925C138.954 119.482 148.537 122.357 165.667 122.357C182.797 122.357 192.5 119.482 192.739 117.925C192.5 116.367 182.917 113.493 165.667 113.493Z" fill="#0F145B"/>
<path d="M137.397 112.654V117.925C137.397 121.039 150.095 123.555 165.667 123.555C181.24 123.555 193.937 121.039 193.937 117.925V112.654H137.397Z" fill="#D7F1FF"/>
<path d="M165.667 124.753C154.766 124.753 136.199 123.315 136.199 117.925V112.654C136.199 111.935 136.678 111.456 137.397 111.456H194.057C194.776 111.456 195.255 111.935 195.255 112.654V117.925C195.135 123.315 176.688 124.753 165.667 124.753ZM138.595 113.852V117.925C138.954 119.482 148.537 122.357 165.667 122.357C182.797 122.357 192.5 119.482 192.739 117.925V113.852H138.595Z" fill="#0F145B"/>
<path d="M165.667 117.565C181.28 117.565 193.937 115.045 193.937 111.935C193.937 108.826 181.28 106.305 165.667 106.305C150.054 106.305 137.397 108.826 137.397 111.935C137.397 115.045 150.054 117.565 165.667 117.565Z" fill="#D7F1FF"/>
<path d="M165.667 118.763C154.766 118.763 136.199 117.326 136.199 111.935C136.199 106.545 154.766 105.107 165.667 105.107C176.568 105.107 195.135 106.545 195.135 111.935C195.135 117.326 176.688 118.763 165.667 118.763ZM165.667 107.503C148.537 107.503 138.835 110.378 138.595 111.935C138.954 113.493 148.537 116.367 165.667 116.367C182.797 116.367 192.5 113.493 192.739 111.935C192.5 110.378 182.917 107.503 165.667 107.503Z" fill="#0F145B"/>
<path d="M137.397 106.665V111.935C137.397 115.05 150.095 117.565 165.667 117.565C181.24 117.565 193.937 115.05 193.937 111.935V106.665H137.397Z" fill="#D7F1FF"/>
<path d="M165.667 118.763C154.766 118.763 136.199 117.326 136.199 111.935V106.665C136.199 105.946 136.678 105.467 137.397 105.467H194.057C194.776 105.467 195.255 105.946 195.255 106.665V111.935C195.135 117.326 176.688 118.763 165.667 118.763ZM138.595 107.862V111.935C138.954 113.493 148.537 116.367 165.667 116.367C182.797 116.367 192.5 113.493 192.739 111.935V107.862H138.595Z" fill="#0F145B"/>
<path d="M165.667 111.456C181.28 111.456 193.937 108.935 193.937 105.826C193.937 102.717 181.28 100.196 165.667 100.196C150.054 100.196 137.397 102.717 137.397 105.826C137.397 108.935 150.054 111.456 165.667 111.456Z" fill="#D7F1FF"/>
<path d="M165.667 112.654C154.766 112.654 136.199 111.217 136.199 105.826C136.199 100.436 154.766 98.9981 165.667 98.9981C176.568 98.9981 195.135 100.436 195.135 105.826C195.135 111.217 176.688 112.654 165.667 112.654ZM165.667 101.514C148.537 101.514 138.835 104.389 138.595 105.946C138.954 107.503 148.537 110.378 165.667 110.378C182.797 110.378 192.5 107.503 192.739 105.946C192.5 104.389 182.917 101.514 165.667 101.514Z" fill="#0F145B"/>
<path d="M149.376 182.73H60.3729C53.7845 182.73 48.394 177.34 48.394 170.751V43.2965C48.394 36.7081 53.7845 31.3177 60.3729 31.3177H149.376C155.964 31.3177 161.355 36.7081 161.355 43.2965V170.751C161.355 177.46 155.964 182.73 149.376 182.73Z" fill="white"/>
<path d="M149.376 184.048H60.373C53.0659 184.048 47.1963 178.178 47.1963 170.871V43.2965C47.1963 35.9894 53.0659 30.1198 60.373 30.1198H149.376C156.683 30.1198 162.553 35.9894 162.553 43.2965V170.751C162.553 178.058 156.563 184.048 149.376 184.048ZM60.2533 32.3958C54.2638 32.3958 49.4723 37.3071 49.4723 43.1767V170.632C49.4723 176.621 54.3836 181.413 60.2533 181.413H149.256C155.245 181.413 160.037 176.501 160.037 170.632V43.2965C160.037 37.3071 155.126 32.5156 149.256 32.5156H60.2533V32.3958Z" fill="#0F145B"/>
<path d="M145.782 39.4633H63.8466C59.1749 39.4633 55.4614 43.1767 55.4614 47.8484V75.5196H154.167V47.8484C154.167 43.1767 150.454 39.4633 145.782 39.4633Z" fill="white"/>
<path d="M154.167 76.7175H55.4616C54.7428 76.7175 54.2637 76.2383 54.2637 75.5196V47.8485C54.2637 42.5778 58.5761 38.2654 63.8467 38.2654H145.782C151.053 38.2654 155.365 42.5778 155.365 47.8485V75.5196C155.365 76.2383 154.886 76.7175 154.167 76.7175ZM56.6594 74.3217H152.969V47.8485C152.969 43.8954 149.735 40.6611 145.782 40.6611H63.8467C59.8937 40.6611 56.6594 43.8954 56.6594 47.8485V74.3217Z" fill="#0F145B"/>
<path d="M88.4032 75.6394H55.4614V108.581H88.4032V75.6394Z" fill="#D7F1FF"/>
<path d="M88.4034 109.779H55.4616C54.7428 109.779 54.2637 109.3 54.2637 108.581V75.6394C54.2637 74.9207 54.7428 74.4415 55.4616 74.4415H88.4034C89.1221 74.4415 89.6013 74.9207 89.6013 75.6394V108.581C89.6013 109.18 89.0023 109.779 88.4034 109.779ZM56.6594 107.383H87.2055V76.8373H56.6594V107.383Z" fill="#0F145B"/>
<path d="M121.346 75.6394H88.4038V108.581H121.346V75.6394Z" fill="#FFCDBD"/>
<path d="M121.226 109.779H88.4035C87.6847 109.779 87.2056 109.3 87.2056 108.581V75.6394C87.2056 74.9207 87.6847 74.4415 88.4035 74.4415H121.345C122.064 74.4415 122.543 74.9207 122.543 75.6394V108.581C122.423 109.18 121.944 109.779 121.226 109.779ZM89.6013 107.383H120.147V76.8373H89.6013V107.383Z" fill="#0F145B"/>
<path d="M154.167 75.6394H121.226V108.581H154.167V75.6394Z" fill="#D7F1FF"/>
<path d="M154.168 109.779H121.226C120.507 109.779 120.028 109.3 120.028 108.581V75.6394C120.028 74.9207 120.507 74.4415 121.226 74.4415H154.168C154.886 74.4415 155.365 74.9207 155.365 75.6394V108.581C155.365 109.18 154.886 109.779 154.168 109.779ZM122.424 107.383H152.97V76.8373H122.424V107.383Z" fill="#0F145B"/>
<path d="M88.4032 108.581H55.4614V141.523H88.4032V108.581Z" fill="#FFCDBD"/>
<path d="M88.4034 142.601H55.4616C54.7428 142.601 54.2637 142.122 54.2637 141.403V108.461C54.2637 107.743 54.7428 107.263 55.4616 107.263H88.4034C89.1221 107.263 89.6013 107.743 89.6013 108.461V141.403C89.6013 142.122 89.0023 142.601 88.4034 142.601ZM56.6594 140.205H87.2055V109.659H56.6594V140.205Z" fill="#0F145B"/>
<path d="M121.346 108.581H88.4038V141.523H121.346V108.581Z" fill="#D7F1FF"/>
<path d="M121.226 142.601H88.4035C87.6847 142.601 87.2056 142.122 87.2056 141.403V108.461C87.2056 107.743 87.6847 107.263 88.4035 107.263H121.345C122.064 107.263 122.543 107.743 122.543 108.461V141.403C122.423 142.122 121.944 142.601 121.226 142.601ZM89.6013 140.205H120.147V109.659H89.6013V140.205Z" fill="#0F145B"/>
<path d="M154.167 108.581H121.226V141.523H154.167V108.581Z" fill="#FFCDBD"/>
<path d="M154.168 142.601H121.226C120.507 142.601 120.028 142.122 120.028 141.403V108.461C120.028 107.743 120.507 107.263 121.226 107.263H154.168C154.886 107.263 155.365 107.743 155.365 108.461V141.403C155.365 142.122 154.886 142.601 154.168 142.601ZM122.424 140.205H152.97V109.659H122.424V140.205Z" fill="#0F145B"/>
<path d="M88.4032 174.345H63.8466C59.1749 174.345 55.4614 170.632 55.4614 165.96V141.403H88.4032V174.345Z" fill="#FFCDBD"/>
<path d="M88.4034 175.543H63.8467C58.5761 175.543 54.2637 171.231 54.2637 165.96V141.403C54.2637 140.684 54.7428 140.205 55.4616 140.205H88.4034C89.1221 140.205 89.6013 140.684 89.6013 141.403V174.345C89.6013 175.064 89.0023 175.543 88.4034 175.543ZM56.6594 142.601V165.96C56.6594 169.913 59.8937 173.147 63.8467 173.147H87.2055V142.601H56.6594Z" fill="#0F145B"/>
<path d="M145.782 174.345H88.2837V141.403H154.167V165.96C154.167 170.632 150.454 174.345 145.782 174.345Z" fill="#D7F1FF"/>
<path d="M145.782 175.543H88.2838C87.5651 175.543 87.0859 175.064 87.0859 174.345V141.403C87.0859 140.684 87.5651 140.205 88.2838 140.205H154.167C154.886 140.205 155.365 140.684 155.365 141.403V165.96C155.365 171.231 151.053 175.543 145.782 175.543ZM89.6015 173.147H145.902C149.855 173.147 153.089 169.913 153.089 165.96V142.601H89.6015V173.147Z" fill="#0F145B"/>
<path d="M71.8732 100.196C71.1544 100.196 70.6753 99.7168 70.6753 98.9981V85.1026C70.6753 84.3839 71.1544 83.9047 71.8732 83.9047C72.5919 83.9047 73.0711 84.3839 73.0711 85.1026V98.9981C73.0711 99.7168 72.5919 100.196 71.8732 100.196Z" fill="#0F145B"/>
<path d="M78.8208 93.2482H64.9254C64.2067 93.2482 63.7275 92.7691 63.7275 92.0504C63.7275 91.3316 64.2067 90.8525 64.9254 90.8525H78.8208C79.5396 90.8525 80.0187 91.3316 80.0187 92.0504C80.0187 92.7691 79.5396 93.2482 78.8208 93.2482Z" fill="#0F145B"/>
<path d="M66.961 131.101C66.6016 131.101 66.3621 130.982 66.1225 130.742C65.6434 130.263 65.6434 129.544 66.1225 129.065L75.9451 119.242C76.4243 118.763 77.1431 118.763 77.6222 119.242C78.1014 119.722 78.1014 120.44 77.6222 120.919L67.7995 130.742C67.56 130.982 67.3204 131.101 66.961 131.101Z" fill="#0F145B"/>
<path d="M76.7837 131.101C76.4243 131.101 76.1847 130.982 75.9451 130.742L66.1225 120.919C65.6434 120.44 65.6434 119.722 66.1225 119.242C66.6017 118.763 67.3204 118.763 67.7995 119.242L77.6222 129.065C78.1014 129.544 78.1014 130.263 77.6222 130.742C77.3826 130.982 77.143 131.101 76.7837 131.101Z" fill="#0F145B"/>
<path d="M111.762 93.2483H97.8668C97.1481 93.2483 96.6689 92.7691 96.6689 92.0504C96.6689 91.3317 97.1481 90.8525 97.8668 90.8525H111.762C112.481 90.8525 112.96 91.3317 112.96 92.0504C112.96 92.7691 112.361 93.2483 111.762 93.2483Z" fill="#0F145B"/>
<path d="M128.173 155.538H114.277C113.559 155.538 113.08 155.059 113.08 154.34C113.08 153.622 113.559 153.142 114.277 153.142H128.173C128.892 153.142 129.371 153.622 129.371 154.34C129.371 155.059 128.892 155.538 128.173 155.538Z" fill="#0F145B"/>
<path d="M128.173 162.606H114.277C113.559 162.606 113.08 162.127 113.08 161.408C113.08 160.689 113.559 160.21 114.277 160.21H128.173C128.892 160.21 129.371 160.689 129.371 161.408C129.371 162.127 128.892 162.606 128.173 162.606Z" fill="#0F145B"/>
<path d="M137.756 127.268C139.013 127.268 140.032 126.249 140.032 124.992C140.032 123.735 139.013 122.716 137.756 122.716C136.499 122.716 135.48 123.735 135.48 124.992C135.48 126.249 136.499 127.268 137.756 127.268Z" fill="#0F145B"/>
<path d="M111.762 126.19H97.8668C97.1481 126.19 96.6689 125.711 96.6689 124.992C96.6689 124.273 97.1481 123.794 97.8668 123.794H111.762C112.481 123.794 112.96 124.273 112.96 124.992C112.96 125.711 112.361 126.19 111.762 126.19Z" fill="#0F145B"/>
<path d="M104.815 121.159C106.072 121.159 107.091 120.14 107.091 118.883C107.091 117.626 106.072 116.607 104.815 116.607C103.558 116.607 102.539 117.626 102.539 118.883C102.539 120.14 103.558 121.159 104.815 121.159Z" fill="#0F145B"/>
<path d="M104.815 133.018C106.072 133.018 107.091 131.999 107.091 130.742C107.091 129.485 106.072 128.466 104.815 128.466C103.558 128.466 102.539 129.485 102.539 130.742C102.539 131.999 103.558 133.018 104.815 133.018Z" fill="#0F145B"/>
<path d="M132.967 98.2822C132.608 98.2822 132.368 98.1624 132.129 97.9228C131.65 97.4437 131.65 96.7249 132.129 96.2458L141.952 86.4231C142.431 85.944 143.149 85.944 143.629 86.4231C144.108 86.9023 144.108 87.621 143.629 88.1002L133.806 97.9228C133.566 98.1624 133.207 98.2822 132.967 98.2822Z" fill="#0F145B"/>
<path d="M133.564 90.1338C134.821 90.1338 135.84 89.1148 135.84 87.8578C135.84 86.6008 134.821 85.5818 133.564 85.5818C132.307 85.5818 131.288 86.6008 131.288 87.8578C131.288 89.1148 132.307 90.1338 133.564 90.1338Z" fill="#0F145B"/>
<path d="M141.949 98.519C143.206 98.519 144.225 97.5 144.225 96.243C144.225 94.986 143.206 93.967 141.949 93.967C140.692 93.967 139.673 94.986 139.673 96.243C139.673 97.5 140.692 98.519 141.949 98.519Z" fill="#0F145B"/>
<path d="M71.8727 164.882C68.6384 164.882 65.8833 161.767 65.8833 157.814C65.8833 153.861 68.5186 150.747 71.8727 150.747C75.2268 150.747 77.8621 153.861 77.8621 157.814C77.8621 161.767 75.2268 164.882 71.8727 164.882ZM71.8727 153.262C69.9561 153.262 68.2791 155.299 68.2791 157.934C68.2791 160.569 69.8363 162.606 71.8727 162.606C73.9091 162.606 75.4664 160.569 75.4664 157.934C75.4664 155.299 73.9091 153.262 71.8727 153.262Z" fill="#0F145B"/>
<path d="M210.684 37.9104C212.765 37.9104 213.979 35.6556 212.939 33.9211L203.92 19.1783L194.553 4.08862C193.513 2.35417 191.085 2.35417 190.044 4.08862L180.678 19.1783L171.659 33.9211C170.618 35.6556 171.832 37.9104 173.913 37.9104H179.117C180.504 37.9104 181.718 39.1245 181.718 40.5121V64.6209C181.718 66.0085 182.933 67.2226 184.32 67.2226H200.277C201.665 67.2226 202.879 66.0085 202.879 64.6209V40.5121C202.879 39.1245 204.093 37.9104 205.48 37.9104H210.684Z" fill="#FFCDBD"/>
<path d="M200.277 68.9571H184.32C181.892 68.9571 179.984 67.0492 179.984 64.6209V40.5121C179.984 39.9918 179.637 39.6449 179.117 39.6449H173.913C172.352 39.6449 170.965 38.7776 170.098 37.3901C169.404 36.0025 169.404 34.4415 170.271 33.054L188.656 3.04799C189.523 1.83388 190.911 0.966644 192.299 0.966644C193.86 0.966644 195.247 1.66043 195.941 3.04799L214.326 33.054C215.193 34.4415 215.193 36.0025 214.5 37.3901C213.806 38.7776 212.245 39.6449 210.684 39.6449H205.48C204.96 39.6449 204.613 39.9918 204.613 40.5121V64.6209C204.613 67.0492 202.705 68.9571 200.277 68.9571ZM192.299 4.43554C192.125 4.43554 191.778 4.43555 191.605 4.78244L173.22 34.7884C173.046 35.1353 173.046 35.4822 173.22 35.6556C173.22 35.8291 173.566 36.176 173.913 36.176H179.117C181.545 36.176 183.453 38.0839 183.453 40.5121V64.6209C183.453 65.1413 183.8 65.4882 184.32 65.4882H200.277C200.797 65.4882 201.144 65.1413 201.144 64.6209V40.5121C201.144 38.0839 203.052 36.176 205.48 36.176H210.684C211.204 36.176 211.378 35.8291 211.378 35.6556C211.378 35.4822 211.551 35.1353 211.378 34.7884L192.992 4.78244C192.819 4.609 192.472 4.43554 192.299 4.43554Z" fill="#0F145B"/>
<path d="M249.419 37.8691C250.541 37.8691 251.288 36.5607 250.728 35.6261L245.681 27.2149L240.447 18.6168C239.887 17.6822 238.578 17.6822 238.017 18.6168L232.784 27.2149L227.737 35.6261C227.176 36.5607 227.924 37.8691 229.045 37.8691H232.036C232.784 37.8691 233.531 38.6167 233.531 39.3644V53.0092C233.531 53.7568 234.279 54.5045 235.027 54.5045H243.999C244.746 54.5045 245.494 53.7568 245.494 53.0092V39.3644C245.494 38.6167 246.242 37.8691 246.989 37.8691H249.419Z" fill="#FFCDBD"/>
<path d="M243.438 56.1867H234.466C232.597 56.1867 231.101 54.6914 231.101 52.8223V39.5513H228.484C227.363 39.5513 226.241 38.8036 225.494 37.8691C224.933 36.7476 224.933 35.4392 225.494 34.5046L235.774 17.6822C236.335 16.7477 237.456 16 238.578 16C239.699 16 240.821 16.5607 241.382 17.6822L251.849 34.5046C252.41 35.6261 252.596 36.7476 251.849 37.8691C251.288 38.9905 250.167 39.5513 248.858 39.5513H246.241V52.8223C246.802 54.6914 245.307 56.1867 243.438 56.1867ZM234.84 52.4484H243.064V39.1775C243.064 37.3083 244.559 35.813 246.428 35.813H248.671L238.952 20.1121L229.232 35.813H231.475C233.344 35.813 234.84 37.3083 234.84 39.1775V52.4484Z" fill="#0F145B"/>
</svg>
