<svg width="85" height="93" viewBox="0 0 85 93" fill="none" xmlns="http://www.w3.org/2000/svg">
<path d="M73.9931 66.9447L82.3 74.6642" stroke="#0F145B" stroke-width="4" stroke-miterlimit="10" stroke-linecap="round" stroke-linejoin="round"/>
<path d="M71.4759 21.9701V79.7828C71.4759 85.5724 66.777 90.2713 60.9874 90.2713H12.4885C6.69885 90.3552 2 85.6563 2 79.8667V12.4885C2 6.69885 6.69885 2 12.4885 2H49.8276C51.4218 2 53.0161 2.58736 54.2747 3.59425L68.2035 15.0897C70.3012 16.8517 71.4759 19.369 71.4759 21.9701Z" fill="#D7F1FF" stroke="#0F145B" stroke-width="4" stroke-miterlimit="10" stroke-linecap="round" stroke-linejoin="round"/>
<path d="M65.5184 69.2943C73.9062 69.2943 80.7058 62.4947 80.7058 54.1069C80.7058 45.7192 73.9062 38.9196 65.5184 38.9196C57.1307 38.9196 50.3311 45.7192 50.3311 54.1069C50.3311 62.4947 57.1307 69.2943 65.5184 69.2943Z" fill="#FFCDBD" stroke="#0F145B" stroke-width="4" stroke-miterlimit="10" stroke-linecap="round" stroke-linejoin="round"/>
<path d="M12.5724 28.0115H37.9966" stroke="#0F145B" stroke-width="4" stroke-miterlimit="10" stroke-linecap="round" stroke-linejoin="round"/>
<path d="M12.5724 47.3103H37.9966" stroke="#0F145B" stroke-width="4" stroke-miterlimit="10" stroke-linecap="round" stroke-linejoin="round"/>
<path d="M12.5724 66.5251H37.9966" stroke="#0F145B" stroke-width="4" stroke-miterlimit="10" stroke-linecap="round" stroke-linejoin="round"/>
<path d="M52.2609 2.83911V15.9288C52.2609 17.4391 53.5195 18.6138 54.946 18.6138H69.6299" stroke="#0F145B" stroke-width="4" stroke-miterlimit="10" stroke-linecap="round" stroke-linejoin="round"/>
</svg>
