<svg width="297" height="252" viewBox="0 0 297 252" fill="none" xmlns="http://www.w3.org/2000/svg">
<path d="M148.5 251.425C230.514 251.425 297 239.51 297 224.811C297 210.112 230.514 198.196 148.5 198.196C66.4857 198.196 0 210.112 0 224.811C0 239.51 66.4857 251.425 148.5 251.425Z" fill="#003DA6"/>
<path d="M94.2109 221.985V227.166C94.2109 230.228 106.694 232.701 122.003 232.701C137.312 232.701 149.795 230.228 149.795 227.166V221.985H94.2109Z" fill="#D7F1FF"/>
<path d="M122.003 233.879C111.287 233.879 93.0334 232.465 93.0334 227.166V221.985C93.0334 221.278 93.5045 220.807 94.2111 220.807H149.913C150.62 220.807 151.091 221.278 151.091 221.985V227.166C151.091 232.465 132.838 233.879 122.003 233.879ZM95.3887 223.162V227.166C95.742 228.697 105.163 231.523 122.003 231.523C138.844 231.523 148.382 228.697 148.618 227.166V223.162H95.3887Z" fill="#0F145B"/>
<path d="M122.003 226.813C137.352 226.813 149.795 224.335 149.795 221.278C149.795 218.221 137.352 215.743 122.003 215.743C106.654 215.743 94.2109 218.221 94.2109 221.278C94.2109 224.335 106.654 226.813 122.003 226.813Z" fill="#D7F1FF"/>
<path d="M122.003 227.99C111.287 227.99 93.0334 226.577 93.0334 221.278C93.0334 215.979 111.287 214.565 122.003 214.565C132.72 214.565 150.973 215.979 150.973 221.278C150.973 226.577 132.838 227.99 122.003 227.99ZM122.003 216.921C105.163 216.921 95.6242 219.747 95.3887 221.278C95.742 222.809 105.163 225.635 122.003 225.635C138.844 225.635 148.382 222.809 148.618 221.278C148.382 219.747 138.961 216.921 122.003 216.921Z" fill="#0F145B"/>
<path d="M134.839 209.973C134.839 209.973 134.133 217.156 137.666 221.513H106.34C106.34 221.513 110.227 217.745 109.52 209.973H134.839Z" fill="white"/>
<path d="M137.666 222.691H106.34C105.869 222.691 105.398 222.456 105.281 221.985C105.045 221.513 105.163 221.042 105.516 220.689C105.634 220.571 108.931 217.156 108.342 210.09C108.342 209.737 108.46 209.384 108.696 209.148C108.931 208.913 109.285 208.795 109.52 208.795H134.839C135.193 208.795 135.546 208.913 135.664 209.148C135.781 209.384 136.017 209.737 136.017 210.09C136.017 210.208 135.428 216.685 138.49 220.689C138.725 220.925 138.843 221.278 138.843 221.513C138.843 222.22 138.372 222.691 137.666 222.691ZM108.696 220.336H135.546C133.779 217.038 133.662 213.152 133.662 211.15H110.816C110.933 215.508 109.756 218.569 108.696 220.336Z" fill="#0F145B"/>
<path d="M201.847 209.973H42.2772C32.5028 209.973 24.6127 201.965 24.6127 192.308V87.0274C24.6127 77.253 32.6206 69.3628 42.2772 69.3628H201.847C211.621 69.3628 219.512 77.3708 219.512 87.0274V192.308C219.512 201.965 211.504 209.973 201.847 209.973Z" fill="white"/>
<path d="M201.847 211.15H42.2771C31.9139 211.15 23.4349 202.671 23.4349 192.308V87.0273C23.4349 76.6641 31.9139 68.1852 42.2771 68.1852H201.847C212.21 68.1852 220.689 76.6641 220.689 87.0273V192.308C220.689 202.671 212.21 211.15 201.847 211.15ZM42.2771 70.5404C33.2093 70.5404 25.7902 77.9595 25.7902 87.0273V192.308C25.7902 201.376 33.2093 208.795 42.2771 208.795H201.847C210.915 208.795 218.334 201.376 218.334 192.308V87.0273C218.334 77.9595 210.915 70.5404 201.847 70.5404H42.2771Z" fill="#0F145B"/>
<path d="M24.6127 171.464V87.0274C24.6127 77.253 32.6206 69.3628 42.2772 69.3628H201.847C211.621 69.3628 219.512 77.3708 219.512 87.0274V171.464C219.512 181.238 211.621 189.128 201.847 189.128H42.2772C32.5028 189.128 24.6127 181.238 24.6127 171.464Z" fill="white"/>
<path d="M201.847 190.306H42.2771C31.9139 190.306 23.4349 181.827 23.4349 171.464V87.0273C23.4349 76.6641 31.9139 68.1852 42.2771 68.1852H201.847C212.21 68.1852 220.689 76.6641 220.689 87.0273V171.464C220.689 181.827 212.21 190.306 201.847 190.306ZM42.2771 70.5404C33.2093 70.5404 25.7902 77.9595 25.7902 87.0273V171.464C25.7902 180.532 33.2093 187.951 42.2771 187.951H201.847C210.915 187.951 218.334 180.532 218.334 171.464V87.0273C218.334 77.9595 210.915 70.5404 201.847 70.5404H42.2771Z" fill="#0F145B"/>
<path d="M32.1494 168.991V88.7938C32.1494 82.3168 37.4488 77.0174 43.9258 77.0174H200.08C206.557 77.0174 211.857 82.3168 211.857 88.7938V168.991C211.857 175.468 206.557 180.767 200.08 180.767H43.9258C37.4488 180.767 32.1494 175.468 32.1494 168.991Z" fill="#D7F1FF"/>
<path d="M200.08 181.945H43.9258C36.7422 181.945 30.9718 176.174 30.9718 168.991V88.7938C30.9718 81.6102 36.7422 75.8398 43.9258 75.8398H200.08C207.264 75.8398 213.034 81.6102 213.034 88.7938V168.991C213.034 176.057 207.264 181.945 200.08 181.945ZM43.9258 78.1951C38.0376 78.1951 33.3271 82.9056 33.3271 88.7938V168.991C33.3271 174.879 38.0376 179.59 43.9258 179.59H200.08C205.969 179.59 210.679 174.879 210.679 168.991V88.7938C210.679 82.9056 205.969 78.1951 200.08 78.1951H43.9258Z" fill="#0F145B"/>
<path d="M123.063 204.084C125.339 204.084 127.185 202.239 127.185 199.963C127.185 197.686 125.339 195.841 123.063 195.841C120.787 195.841 118.941 197.686 118.941 199.963C118.941 202.239 120.787 204.084 123.063 204.084Z" fill="#D7F1FF"/>
<path d="M123.063 205.262C120.119 205.262 117.764 202.907 117.764 199.963C117.764 197.019 120.119 194.663 123.063 194.663C126.007 194.663 128.362 197.019 128.362 199.963C128.362 202.907 126.007 205.262 123.063 205.262ZM123.063 197.019C121.414 197.019 120.119 198.314 120.119 199.963C120.119 201.611 121.414 202.907 123.063 202.907C124.712 202.907 126.007 201.611 126.007 199.963C126.007 198.314 124.712 197.019 123.063 197.019Z" fill="#0F145B"/>
<path d="M139.432 164.751C139.079 164.751 138.843 164.634 138.608 164.398C138.137 163.927 138.137 163.22 138.608 162.749L179.943 121.414C180.414 120.943 181.121 120.943 181.592 121.414C182.063 121.885 182.063 122.592 181.592 123.063L140.257 164.398C140.021 164.634 139.668 164.751 139.432 164.751Z" fill="#0F145B"/>
<path d="M153.564 162.278C153.211 162.278 152.975 162.161 152.74 161.925C152.268 161.454 152.268 160.747 152.74 160.276L179.825 133.191C180.296 132.72 181.003 132.72 181.474 133.191C181.945 133.662 181.945 134.368 181.474 134.839L154.388 161.925C154.153 162.161 153.917 162.278 153.564 162.278Z" fill="#0F145B"/>
<path d="M134.368 181.474C134.015 181.474 133.779 181.356 133.544 181.121C133.073 180.649 133.073 179.943 133.544 179.472L145.32 167.695C145.791 167.224 146.498 167.224 146.969 167.695C147.44 168.167 147.44 168.873 146.969 169.344L135.193 181.121C134.957 181.356 134.604 181.474 134.368 181.474Z" fill="#0F145B"/>
<path d="M113.289 156.037L113.878 155.684C116.939 153.917 117.646 149.913 115.526 147.205L98.5682 125.889C97.9794 125.065 96.8018 125.065 96.0952 125.772L90.207 132.366C89.736 132.955 89.6182 133.78 90.207 134.368L106.223 154.388C107.872 156.743 110.816 157.332 113.289 156.037Z" fill="#FFCDBD"/>
<path d="M110.462 157.921C108.342 157.921 106.458 156.979 105.163 155.33L89.147 135.31C88.3227 134.251 88.3227 132.72 89.2648 131.778L95.1529 125.183C96.2128 124.005 98.3326 124.005 99.3924 125.301L116.35 146.616C117.646 148.147 118.117 150.266 117.764 152.151C117.41 154.153 116.115 155.801 114.466 156.743L113.877 157.097C112.818 157.568 111.64 157.921 110.462 157.921ZM97.2727 126.596C97.1549 126.596 97.0372 126.596 96.9194 126.714L91.0312 133.308C90.9135 133.426 90.9135 133.662 91.0312 133.897L107.047 153.917C107.871 154.977 109.167 155.566 110.58 155.566C111.287 155.566 112.111 155.33 112.818 154.977L113.406 154.624C114.584 154.035 115.408 152.857 115.644 151.562C115.879 150.266 115.526 148.971 114.702 147.911L97.7438 126.596C97.5082 126.596 97.2727 126.596 97.2727 126.596Z" fill="#0F145B"/>
<path d="M183.24 101.63C139.668 102.808 99.8635 125.536 85.6141 134.486C82.4345 136.488 78.3128 135.782 75.9575 132.837L66.8897 121.532C64.5344 118.588 64.7699 114.349 67.4785 111.758C79.1371 100.217 108.696 68.0674 120.237 27.4389C120.708 25.908 122.592 25.5547 123.534 26.8501L183.24 101.63Z" fill="#FFCDBD"/>
<path d="M81.7281 136.841C79.1373 136.841 76.6643 135.664 75.0156 133.662L65.9478 122.356C63.2392 118.941 63.4747 114.113 66.6543 110.933C78.6662 99.0392 107.636 67.243 119.059 27.2034C119.412 25.908 120.59 24.9659 122.003 24.9659C122.945 24.9659 123.77 25.4369 124.359 26.1435L184.065 100.923C184.3 101.277 184.418 101.748 184.182 102.101C183.947 102.454 183.594 102.808 183.123 102.808C140.139 103.985 101.041 126.007 86.0854 135.546C84.9077 136.37 83.3768 136.841 81.7281 136.841ZM122.121 27.3212C121.886 27.3212 121.532 27.4389 121.414 27.7922C109.874 68.4207 80.4327 100.57 68.303 112.582C66.0655 114.82 65.83 118.352 67.832 120.826L76.8998 132.131C78.0774 133.662 79.8439 134.486 81.7281 134.486C82.9057 134.486 84.0834 134.133 85.0255 133.544C99.7459 124.123 138.255 102.454 180.885 100.57L122.592 27.5567C122.474 27.3212 122.239 27.3212 122.121 27.3212Z" fill="#0F145B"/>
<path d="M185.405 99.9578C193.589 93.4268 186.347 70.742 169.228 49.2899C152.11 27.8377 131.598 15.7416 123.414 22.2726C115.229 28.8035 122.472 51.4883 139.59 72.9405C156.708 94.3927 177.22 106.489 185.405 99.9578Z" fill="white"/>
<path d="M179.707 102.925C169.108 102.925 152.504 91.1491 138.608 73.7201C120.825 51.4627 113.76 28.381 122.592 21.3152C124.241 20.0198 126.478 19.3132 129.069 19.3132C139.668 19.3132 156.272 31.0896 170.168 48.5186C187.951 70.776 195.016 93.8576 186.184 100.923C184.418 102.219 182.298 102.925 179.707 102.925ZM129.069 21.5507C127.067 21.5507 125.418 22.0218 124.123 23.0817C116.586 29.0876 124.005 51.5805 140.492 72.1891C153.799 88.9116 169.933 100.57 179.707 100.57C181.709 100.57 183.358 100.099 184.653 99.0392C192.19 93.0333 184.771 70.5404 168.284 49.9318C154.977 33.2093 138.843 21.5507 129.069 21.5507Z" fill="#0F145B"/>
<path d="M145.085 79.4905C146.38 79.1372 147.558 78.5484 148.736 77.7241C152.857 74.4267 153.446 68.5385 150.266 64.5345C146.969 60.4128 141.081 59.824 137.077 63.0036C136.017 63.8279 135.31 64.7701 134.722 65.8299" fill="#D7F1FF"/>
<path d="M145.085 80.6681C144.614 80.6681 144.025 80.3148 143.907 79.726C143.789 79.1372 144.143 78.4306 144.732 78.3128C145.909 78.0773 146.969 77.4885 147.911 76.7819C151.444 73.9556 152.033 68.774 149.207 65.2411C147.793 63.4746 145.909 62.4148 143.672 62.1792C141.434 61.9437 139.314 62.5325 137.666 63.9457C136.841 64.6523 136.135 65.4766 135.546 66.4187C135.193 67.0075 134.486 67.2431 133.897 66.8898C133.308 66.5365 133.073 65.8299 133.426 65.2411C134.133 64.0634 134.957 63.0036 136.135 62.0615C140.728 58.4108 147.322 59.1174 150.973 63.7102C154.624 68.3029 153.917 74.8977 149.324 78.5484C148.147 79.4905 146.734 80.1971 145.32 80.5504C145.32 80.6681 145.203 80.6681 145.085 80.6681Z" fill="#0F145B"/>
<path d="M89.265 133.426L99.746 127.538L77.4886 99.6281L69.4807 108.696L89.265 133.426Z" fill="#F44C7F"/>
<path d="M89.2648 134.604C88.9115 134.604 88.5582 134.486 88.3227 134.133L68.5384 109.285C68.1851 108.814 68.1851 108.225 68.5384 107.754L76.5463 98.6859C76.7819 98.4504 77.1352 98.2149 77.4884 98.3327C77.8417 98.3327 78.195 98.4504 78.4306 98.8037L100.688 126.714C100.923 126.949 101.041 127.303 100.923 127.656C100.806 128.009 100.688 128.245 100.335 128.48L89.8536 134.368C89.6181 134.604 89.3826 134.604 89.2648 134.604ZM71.0114 108.696L89.6181 131.895L98.0971 127.185L77.4884 101.395L71.0114 108.696Z" fill="#0F145B"/>
<path d="M188.893 55.5845H188.775C188.186 55.4667 187.715 54.8779 187.715 54.2891C188.422 48.1654 186.655 42.0417 182.769 37.2133C178.883 32.385 173.348 29.3232 167.224 28.6166C166.636 28.4988 166.165 27.91 166.165 27.3212C166.282 26.7324 166.871 26.2613 167.46 26.2613C174.29 26.9679 180.296 30.383 184.536 35.6824C188.775 40.9818 190.659 47.6943 189.953 54.5246C189.953 55.1134 189.482 55.5845 188.893 55.5845Z" fill="#0F145B"/>
<path d="M202.083 57.1154H201.965C201.376 56.9976 200.905 56.4088 200.905 55.82C201.965 46.1633 199.256 36.6245 193.132 28.9698C187.127 21.3152 178.412 16.6047 168.755 15.5448C168.167 15.427 167.696 14.8382 167.696 14.2494C167.696 13.6606 168.402 13.1895 168.991 13.1895C179.354 14.3672 188.54 19.431 195.017 27.5567C201.494 35.6824 204.438 45.8101 203.26 56.0555C203.142 56.6443 202.671 57.1154 202.083 57.1154Z" fill="#0F145B"/>
<path d="M215.272 57.9397H215.154C214.565 57.822 214.094 57.2331 214.094 56.6443C215.507 43.5726 211.857 30.7363 203.731 20.6086C195.605 10.2454 183.947 3.8862 170.875 2.35527C170.286 2.23751 169.815 1.64869 169.815 1.05987C169.933 0.471052 170.522 0 171.111 0C184.771 1.53093 197.019 8.24345 205.615 18.9599C214.212 29.6764 217.981 43.1015 216.45 56.7621C216.45 57.4687 215.861 57.9397 215.272 57.9397Z" fill="#0F145B"/>
<path d="M275.449 151.915V219.629C275.449 226.46 269.914 231.877 263.202 231.877H206.44C199.609 231.877 194.192 226.342 194.192 219.629V140.845C194.192 134.015 199.727 128.598 206.44 128.598H250.13C252.014 128.598 253.898 129.305 255.312 130.482L271.681 144.025C274.036 145.791 275.449 148.736 275.449 151.915Z" fill="#FFCDBD"/>
<path d="M263.202 233.054H206.44C199.021 233.054 193.015 227.048 193.015 219.629V140.845C193.015 133.426 199.021 127.42 206.44 127.42H250.13C252.25 127.42 254.37 128.127 256.136 129.54L272.505 143.083C275.214 145.32 276.745 148.5 276.745 152.033V219.747C276.627 226.931 270.503 233.054 263.202 233.054ZM206.44 129.658C200.316 129.658 195.37 134.604 195.37 140.728V219.512C195.37 225.635 200.316 230.581 206.44 230.581H263.202C269.326 230.581 274.272 225.635 274.272 219.512V151.797C274.272 149.089 273.094 146.498 270.974 144.732L254.605 131.189C253.31 130.129 251.779 129.54 250.13 129.54H206.44V129.658Z" fill="#0F145B"/>
<path d="M236.352 151.562H206.558C205.851 151.562 205.38 151.091 205.38 150.384C205.38 149.678 205.851 149.207 206.558 149.207H236.352C237.058 149.207 237.529 149.678 237.529 150.384C237.529 151.091 236.941 151.562 236.352 151.562Z" fill="#0F145B"/>
<path d="M236.352 160.865H206.558C205.851 160.865 205.38 160.394 205.38 159.688C205.38 158.981 205.851 158.51 206.558 158.51H236.352C237.058 158.51 237.529 158.981 237.529 159.688C237.529 160.394 236.941 160.865 236.352 160.865Z" fill="#0F145B"/>
<path d="M250.13 170.168H206.558C205.851 170.168 205.38 169.697 205.38 168.991C205.38 168.284 205.851 167.813 206.558 167.813H250.13C250.837 167.813 251.308 168.284 251.308 168.991C251.308 169.697 250.837 170.168 250.13 170.168Z" fill="#0F145B"/>
<path d="M273.33 149.207H256.136C253.781 149.207 251.779 147.205 251.779 144.849V129.54C251.779 128.833 252.25 128.362 252.956 128.362C253.663 128.362 254.134 128.833 254.134 129.54V144.849C254.134 145.909 255.076 146.851 256.136 146.851H273.33C274.036 146.851 274.507 147.322 274.507 148.029C274.507 148.736 273.918 149.207 273.33 149.207Z" fill="#0F145B"/>
<path d="M213.152 207.617C212.917 207.617 212.681 207.5 212.446 207.382L205.851 202.789C205.262 202.436 205.145 201.729 205.498 201.14C205.851 200.552 206.558 200.434 207.146 200.787L213.035 204.791L224.576 194.428C225.047 194.075 225.635 194.075 226.106 194.31L233.997 200.08L251.426 190.659C252.014 190.306 252.721 190.542 253.074 191.13C253.428 191.719 253.192 192.426 252.603 192.779L234.468 202.554C234.114 202.789 233.526 202.789 233.172 202.436L225.518 196.783L213.977 207.146C213.741 207.617 213.388 207.617 213.152 207.617Z" fill="#F44C7F"/>
<path d="M252.015 214.449H206.558C205.851 214.449 205.38 213.978 205.38 213.271V191.956C205.38 191.249 205.851 190.778 206.558 190.778C207.265 190.778 207.736 191.249 207.736 191.956V212.093H252.015C252.721 212.093 253.192 212.564 253.192 213.271C253.192 213.978 252.604 214.449 252.015 214.449Z" fill="#F44C7F"/>
</svg>
